<?xml version="1.0" encoding="UTF-8" standalone="no"?>
<!-- Created with Inkscape (http://www.inkscape.org/) -->

<svg
   width="142.37476mm"
   height="108.62521mm"
   viewBox="0 0 142.37476 108.62521"
   version="1.1"
   id="svg1908"
   inkscape:version="1.1.1 (3bf5ae0d25, 2021-09-20)"
   sodipodi:docname="MIS_IV_v2.svg"
   xmlns:inkscape="http://www.inkscape.org/namespaces/inkscape"
   xmlns:sodipodi="http://sodipodi.sourceforge.net/DTD/sodipodi-0.dtd"
   xmlns="http://www.w3.org/2000/svg"
   xmlns:svg="http://www.w3.org/2000/svg">
  <sodipodi:namedview
     id="namedview1910"
     pagecolor="#ffffff"
     bordercolor="#999999"
     borderopacity="1"
     inkscape:pageshadow="0"
     inkscape:pageopacity="0"
     inkscape:pagecheckerboard="0"
     inkscape:document-units="mm"
     showgrid="false"
     fit-margin-top="0"
     fit-margin-left="0"
     fit-margin-right="0"
     fit-margin-bottom="0"
     inkscape:zoom="0.72604517"
     inkscape:cx="598.44761"
     inkscape:cy="217.61731"
     inkscape:window-width="1920"
     inkscape:window-height="1001"
     inkscape:window-x="-9"
     inkscape:window-y="-9"
     inkscape:window-maximized="1"
     inkscape:current-layer="layer1" />
  <defs
     id="defs1905">
    <clipPath
       clipPathUnits="userSpaceOnUse"
       id="clipPath1930">
      <path
         d="M 0,0 H 412 V 314 H 0 Z"
         id="path1928" />
    </clipPath>
    <clipPath
       clipPathUnits="userSpaceOnUse"
       id="clipPath1944">
      <path
         d="M 0,0 H 412 V 314 H 0 Z"
         id="path1942" />
    </clipPath>
    <clipPath
       clipPathUnits="userSpaceOnUse"
       id="clipPath1958">
      <path
         d="M 0,0 H 412 V 314 H 0 Z"
         id="path1956" />
    </clipPath>
    <clipPath
       clipPathUnits="userSpaceOnUse"
       id="clipPath1972">
      <path
         d="M 0,0 H 412 V 314 H 0 Z"
         id="path1970" />
    </clipPath>
    <clipPath
       clipPathUnits="userSpaceOnUse"
       id="clipPath1986">
      <path
         d="M 0,0 H 412 V 314 H 0 Z"
         id="path1984" />
    </clipPath>
    <clipPath
       clipPathUnits="userSpaceOnUse"
       id="clipPath2000">
      <path
         d="M 0,0 H 412 V 314 H 0 Z"
         id="path1998" />
    </clipPath>
    <clipPath
       clipPathUnits="userSpaceOnUse"
       id="clipPath2014">
      <path
         d="M 0,0 H 412 V 314 H 0 Z"
         id="path2012" />
    </clipPath>
    <clipPath
       clipPathUnits="userSpaceOnUse"
       id="clipPath2028">
      <path
         d="M 0,0 H 412 V 314 H 0 Z"
         id="path2026" />
    </clipPath>
    <clipPath
       clipPathUnits="userSpaceOnUse"
       id="clipPath2044">
      <path
         d="M 0,0 H 412 V 314 H 0 Z"
         id="path2042" />
    </clipPath>
    <clipPath
       clipPathUnits="userSpaceOnUse"
       id="clipPath2058">
      <path
         d="M 0,0 H 412 V 314 H 0 Z"
         id="path2056" />
    </clipPath>
    <clipPath
       clipPathUnits="userSpaceOnUse"
       id="clipPath2074">
      <path
         d="M 0,0 H 412 V 314 H 0 Z"
         id="path2072" />
    </clipPath>
    <clipPath
       clipPathUnits="userSpaceOnUse"
       id="clipPath2088">
      <path
         d="M 0,0 H 412 V 314 H 0 Z"
         id="path2086" />
    </clipPath>
    <clipPath
       clipPathUnits="userSpaceOnUse"
       id="clipPath2102">
      <path
         d="M 0,0 H 412 V 314 H 0 Z"
         id="path2100" />
    </clipPath>
    <clipPath
       clipPathUnits="userSpaceOnUse"
       id="clipPath2116">
      <path
         d="M 0,0 H 412 V 314 H 0 Z"
         id="path2114" />
    </clipPath>
    <clipPath
       clipPathUnits="userSpaceOnUse"
       id="clipPath2130">
      <path
         d="M 0,0 H 412 V 314 H 0 Z"
         id="path2128" />
    </clipPath>
    <clipPath
       clipPathUnits="userSpaceOnUse"
       id="clipPath2144">
      <path
         d="M 0,0 H 412 V 314 H 0 Z"
         id="path2142" />
    </clipPath>
    <clipPath
       clipPathUnits="userSpaceOnUse"
       id="clipPath2158">
      <path
         d="M 0,0 H 412 V 314 H 0 Z"
         id="path2156" />
    </clipPath>
    <clipPath
       clipPathUnits="userSpaceOnUse"
       id="clipPath2174">
      <path
         d="M 0,0 H 412 V 314 H 0 Z"
         id="path2172" />
    </clipPath>
    <clipPath
       clipPathUnits="userSpaceOnUse"
       id="clipPath2190">
      <path
         d="M 0,0 H 412 V 314 H 0 Z"
         id="path2188" />
    </clipPath>
    <clipPath
       clipPathUnits="userSpaceOnUse"
       id="clipPath2206">
      <path
         d="M 0,0 H 412 V 314 H 0 Z"
         id="path2204" />
    </clipPath>
    <clipPath
       clipPathUnits="userSpaceOnUse"
       id="clipPath2220">
      <path
         d="M 88.883,16.629 H 407.309 V 253.524 H 88.883 Z"
         id="path2218" />
    </clipPath>
    <clipPath
       clipPathUnits="userSpaceOnUse"
       id="clipPath2230">
      <path
         d="M 0,0 H 412 V 314 H 0 Z"
         id="path2228" />
    </clipPath>
    <clipPath
       clipPathUnits="userSpaceOnUse"
       id="clipPath2248">
      <path
         d="M 0,0 H 412 V 314 H 0 Z"
         id="path2246" />
    </clipPath>
    <clipPath
       clipPathUnits="userSpaceOnUse"
       id="clipPath2292">
      <path
         d="M 0,0 H 412 V 314 H 0 Z"
         id="path2290" />
    </clipPath>
    <clipPath
       clipPathUnits="userSpaceOnUse"
       id="clipPath2318">
      <path
         d="M 0,0 H 412 V 314 H 0 Z"
         id="path2316" />
    </clipPath>
    <clipPath
       clipPathUnits="userSpaceOnUse"
       id="clipPath2340">
      <path
         d="M 0,0 H 412 V 314 H 0 Z"
         id="path2338" />
    </clipPath>
    <clipPath
       clipPathUnits="userSpaceOnUse"
       id="clipPath2368">
      <path
         d="M 0,0 H 412 V 182.137 H 0 Z"
         id="path2366" />
    </clipPath>
    <clipPath
       clipPathUnits="userSpaceOnUse"
       id="clipPath2378">
      <path
         d="M 0,0 H 412 V 314 H 0 Z"
         id="path2376" />
    </clipPath>
    <clipPath
       clipPathUnits="userSpaceOnUse"
       id="clipPath2408">
      <path
         d="M 0,0 H 412 V 314 H 0 Z"
         id="path2406" />
    </clipPath>
  </defs>
  <g
     inkscape:label="圖層 1"
     inkscape:groupmode="layer"
     id="layer1"
     transform="translate(-69.113234,-91.089846)">
    <g
       id="g1918"
       inkscape:label="MIS_IV"
       transform="matrix(0.35277777,0,0,0.35277777,66.197173,89.099827)">
      <g
         id="g1920">
        <g
           id="g1922">
          <g
             id="g1924">
            <g
               id="g1926"
               clip-path="url(#clipPath1930)">
              <g
                 id="g1932">
                <path
                   d="M 88.883,16.629 H 248.031 V 253.391 H 88.883 Z"
                   style="fill:#fbfec5;fill-opacity:1;fill-rule:evenodd;stroke:none"
                   id="path1934" />
              </g>
            </g>
          </g>
        </g>
        <g
           id="g1936">
          <g
             id="g1938">
            <g
               id="g1940"
               clip-path="url(#clipPath1944)">
              <g
                 id="g1946">
                <path
                   d="m 80.359,272.633 v -1.813 h 5.563 v 1.813 z m 16.602,2.687 v 1.75 h -9.766 c -0.011,-0.437 0.055,-0.859 0.203,-1.265 0.25,-0.657 0.645,-1.305 1.188,-1.953 0.551,-0.645 1.348,-1.391 2.391,-2.235 1.601,-1.32 2.687,-2.363 3.25,-3.125 0.562,-0.769 0.843,-1.5 0.843,-2.187 0,-0.719 -0.261,-1.321 -0.781,-1.813 -0.512,-0.5 -1.18,-0.75 -2,-0.75 -0.875,0 -1.574,0.266 -2.094,0.797 -0.523,0.523 -0.789,1.246 -0.797,2.172 l -1.859,-0.188 c 0.125,-1.394 0.602,-2.457 1.438,-3.187 0.832,-0.727 1.953,-1.094 3.359,-1.094 1.414,0 2.535,0.399 3.359,1.188 0.821,0.781 1.235,1.758 1.235,2.922 0,0.586 -0.121,1.164 -0.36,1.734 -0.242,0.574 -0.64,1.18 -1.203,1.812 -0.562,0.625 -1.496,1.493 -2.797,2.594 -1.086,0.906 -1.781,1.528 -2.093,1.86 -0.313,0.324 -0.571,0.648 -0.766,0.968 z"
                   style="fill:#000000;fill-opacity:1;fill-rule:nonzero;stroke:none"
                   id="path1948" />
              </g>
            </g>
          </g>
        </g>
        <g
           id="g1950">
          <g
             id="g1952">
            <g
               id="g1954"
               clip-path="url(#clipPath1958)">
              <g
                 id="g1960">
                <path
                   d="m 159.934,272.633 v -1.813 h 5.562 v 1.813 z m 13.898,4.437 h -1.812 v -11.547 c -0.438,0.418 -1.012,0.836 -1.719,1.25 -0.711,0.418 -1.344,0.731 -1.906,0.938 v -1.766 c 1.007,-0.468 1.894,-1.039 2.656,-1.718 0.758,-0.688 1.297,-1.348 1.609,-1.985 h 1.172 z"
                   style="fill:#000000;fill-opacity:1;fill-rule:nonzero;stroke:none"
                   id="path1962" />
              </g>
            </g>
          </g>
        </g>
        <g
           id="g1964">
          <g
             id="g1966">
            <g
               id="g1968"
               clip-path="url(#clipPath1972)">
              <g
                 id="g1974">
                <path
                   d="m 243.168,269.789 c 0,-1.75 0.176,-3.156 0.531,-4.219 0.363,-1.062 0.899,-1.879 1.61,-2.453 0.707,-0.582 1.597,-0.875 2.671,-0.875 0.79,0 1.485,0.164 2.079,0.485 0.601,0.312 1.097,0.773 1.484,1.375 0.383,0.605 0.687,1.339 0.906,2.203 0.227,0.855 0.344,2.015 0.344,3.484 0,1.731 -0.18,3.133 -0.531,4.203 -0.356,1.063 -0.887,1.887 -1.594,2.469 -0.711,0.574 -1.606,0.859 -2.688,0.859 -1.429,0 -2.546,-0.508 -3.359,-1.531 -0.969,-1.227 -1.453,-3.227 -1.453,-6 z m 1.859,0 c 0,2.43 0.282,4.043 0.844,4.844 0.57,0.805 1.274,1.203 2.109,1.203 0.832,0 1.532,-0.398 2.094,-1.203 0.571,-0.813 0.86,-2.426 0.86,-4.844 0,-2.426 -0.289,-4.039 -0.86,-4.844 -0.562,-0.8 -1.265,-1.203 -2.109,-1.203 -0.836,0 -1.5,0.356 -2,1.063 -0.625,0.898 -0.938,2.558 -0.938,4.984 z"
                   style="fill:#000000;fill-opacity:1;fill-rule:nonzero;stroke:none"
                   id="path1976" />
              </g>
            </g>
          </g>
        </g>
        <g
           id="g1978">
          <g
             id="g1980">
            <g
               id="g1982"
               clip-path="url(#clipPath1986)">
              <g
                 id="g1988">
                <path
                   d="m 329.57,277.07 h -1.812 v -11.547 c -0.438,0.418 -1.012,0.836 -1.719,1.25 -0.711,0.418 -1.344,0.731 -1.906,0.938 v -1.766 c 1.008,-0.468 1.894,-1.039 2.656,-1.718 0.758,-0.688 1.297,-1.348 1.609,-1.985 h 1.172 z"
                   style="fill:#000000;fill-opacity:1;fill-rule:nonzero;stroke:none"
                   id="path1990" />
              </g>
            </g>
          </g>
        </g>
        <g
           id="g1992">
          <g
             id="g1994">
            <g
               id="g1996"
               clip-path="url(#clipPath2000)">
              <g
                 id="g2002">
                <path
                   d="m 411.848,275.32 v 1.75 h -9.766 c -0.012,-0.437 0.055,-0.859 0.203,-1.265 0.25,-0.657 0.645,-1.305 1.188,-1.953 0.55,-0.645 1.347,-1.391 2.39,-2.235 1.602,-1.32 2.688,-2.363 3.25,-3.125 0.563,-0.769 0.844,-1.5 0.844,-2.187 0,-0.719 -0.262,-1.321 -0.781,-1.813 -0.512,-0.5 -1.18,-0.75 -2,-0.75 -0.875,0 -1.574,0.266 -2.094,0.797 -0.523,0.523 -0.789,1.246 -0.797,2.172 l -1.859,-0.188 c 0.125,-1.394 0.601,-2.457 1.437,-3.187 0.832,-0.727 1.953,-1.094 3.36,-1.094 1.414,0 2.535,0.399 3.359,1.188 0.82,0.781 1.234,1.758 1.234,2.922 0,0.586 -0.121,1.164 -0.359,1.734 -0.242,0.574 -0.641,1.18 -1.203,1.812 -0.563,0.625 -1.496,1.493 -2.797,2.594 -1.086,0.906 -1.781,1.528 -2.094,1.86 -0.312,0.324 -0.57,0.648 -0.765,0.968 z"
                   style="fill:#000000;fill-opacity:1;fill-rule:nonzero;stroke:none"
                   id="path2004" />
              </g>
            </g>
          </g>
        </g>
        <g
           id="g2006">
          <g
             id="g2008">
            <g
               id="g2010"
               clip-path="url(#clipPath2014)">
              <g
                 id="g2016">
                <path
                   d="m 48.137,261.375 h -1.813 v -11.547 c -0.437,0.418 -1.012,0.836 -1.719,1.25 -0.71,0.418 -1.343,0.731 -1.906,0.938 v -1.766 c 1.008,-0.469 1.895,-1.039 2.656,-1.719 0.758,-0.687 1.297,-1.347 1.61,-1.984 h 1.172 z m 4.64,-7.281 c 0,-1.75 0.176,-3.156 0.532,-4.219 0.363,-1.063 0.898,-1.879 1.609,-2.453 0.707,-0.582 1.598,-0.875 2.672,-0.875 0.789,0 1.484,0.164 2.078,0.484 0.602,0.313 1.098,0.774 1.484,1.375 0.383,0.606 0.688,1.34 0.907,2.203 0.226,0.856 0.343,2.016 0.343,3.485 0,1.73 -0.179,3.133 -0.531,4.203 -0.355,1.062 -0.887,1.887 -1.594,2.469 -0.711,0.574 -1.605,0.859 -2.687,0.859 -1.43,0 -2.547,-0.508 -3.36,-1.531 -0.968,-1.227 -1.453,-3.227 -1.453,-6 z m 1.86,0 c 0,2.429 0.281,4.043 0.843,4.844 0.571,0.804 1.274,1.203 2.11,1.203 0.832,0 1.531,-0.399 2.094,-1.203 0.57,-0.813 0.859,-2.426 0.859,-4.844 0,-2.426 -0.289,-4.039 -0.859,-4.844 -0.563,-0.801 -1.266,-1.203 -2.11,-1.203 -0.836,0 -1.5,0.355 -2,1.062 -0.625,0.899 -0.937,2.559 -0.937,4.985 z"
                   style="fill:#000000;fill-opacity:1;fill-rule:nonzero;stroke:none"
                   id="path2018" />
              </g>
            </g>
          </g>
        </g>
        <g
           id="g2020">
          <g
             id="g2022">
            <g
               id="g2024"
               clip-path="url(#clipPath2028)">
              <g
                 id="g2030">
                <path
                   d="m 63.727,248.609 v -1.093 h 3.343 v 1.093 z m 8.339,2.657 h -1.093 v -6.938 c -0.262,0.25 -0.606,0.5 -1.032,0.75 -0.418,0.25 -0.796,0.438 -1.14,0.563 v -1.047 c 0.613,-0.282 1.144,-0.625 1.594,-1.032 0.457,-0.414 0.781,-0.812 0.968,-1.187 h 0.703 z"
                   style="fill:#000000;fill-opacity:1;fill-rule:nonzero;stroke:none"
                   id="path2032" />
                <path
                   d="m 80.574,250.219 v 1.047 h -5.859 c -0.012,-0.258 0.031,-0.508 0.125,-0.75 0.144,-0.407 0.379,-0.801 0.703,-1.188 0.332,-0.383 0.812,-0.832 1.437,-1.344 0.958,-0.781 1.602,-1.398 1.938,-1.859 0.344,-0.469 0.516,-0.906 0.516,-1.313 0,-0.437 -0.157,-0.8 -0.469,-1.093 -0.305,-0.301 -0.699,-0.453 -1.188,-0.453 -0.531,0 -0.953,0.164 -1.265,0.484 -0.313,0.312 -0.469,0.746 -0.469,1.297 l -1.125,-0.109 c 0.07,-0.833 0.359,-1.469 0.859,-1.907 0.5,-0.437 1.172,-0.656 2.016,-0.656 0.852,0 1.523,0.234 2.016,0.703 0.5,0.469 0.75,1.055 0.75,1.75 0,0.356 -0.075,0.703 -0.219,1.047 -0.149,0.344 -0.387,0.711 -0.719,1.094 -0.336,0.375 -0.898,0.89 -1.687,1.547 -0.649,0.554 -1.063,0.929 -1.25,1.125 -0.188,0.187 -0.34,0.382 -0.454,0.578 z"
                   style="fill:#000000;fill-opacity:1;fill-rule:nonzero;stroke:none"
                   id="path2034" />
              </g>
            </g>
          </g>
        </g>
        <g
           id="g2036">
          <g
             id="g2038">
            <g
               id="g2040"
               clip-path="url(#clipPath2044)">
              <g
                 id="g2046">
                <path
                   d="m 48.137,202.184 h -1.813 v -11.547 c -0.437,0.418 -1.012,0.836 -1.719,1.25 -0.71,0.418 -1.343,0.73 -1.906,0.937 v -1.765 c 1.008,-0.469 1.895,-1.039 2.656,-1.719 0.758,-0.688 1.297,-1.348 1.61,-1.985 h 1.172 z m 4.64,-7.282 c 0,-1.75 0.176,-3.156 0.532,-4.218 0.363,-1.063 0.898,-1.879 1.609,-2.454 0.707,-0.582 1.598,-0.875 2.672,-0.875 0.789,0 1.484,0.165 2.078,0.485 0.602,0.312 1.098,0.773 1.484,1.375 0.383,0.605 0.688,1.34 0.907,2.203 0.226,0.855 0.343,2.016 0.343,3.484 0,1.731 -0.179,3.133 -0.531,4.203 -0.355,1.063 -0.887,1.887 -1.594,2.469 -0.711,0.574 -1.605,0.86 -2.687,0.86 -1.43,0 -2.547,-0.508 -3.36,-1.532 -0.968,-1.226 -1.453,-3.226 -1.453,-6 z m 1.86,0 c 0,2.43 0.281,4.043 0.843,4.844 0.571,0.805 1.274,1.203 2.11,1.203 0.832,0 1.531,-0.398 2.094,-1.203 0.57,-0.812 0.859,-2.426 0.859,-4.844 0,-2.425 -0.289,-4.039 -0.859,-4.843 -0.563,-0.801 -1.266,-1.204 -2.11,-1.204 -0.836,0 -1.5,0.356 -2,1.063 -0.625,0.898 -0.937,2.559 -0.937,4.984 z"
                   style="fill:#000000;fill-opacity:1;fill-rule:nonzero;stroke:none"
                   id="path2048" />
              </g>
            </g>
          </g>
        </g>
        <g
           id="g2050">
          <g
             id="g2052">
            <g
               id="g2054"
               clip-path="url(#clipPath2058)">
              <g
                 id="g2060">
                <path
                   d="m 63.727,189.418 v -1.094 h 3.343 v 1.094 z m 8.339,2.656 h -1.093 v -6.937 c -0.262,0.25 -0.606,0.5 -1.032,0.75 -0.418,0.25 -0.796,0.437 -1.14,0.562 v -1.047 c 0.613,-0.281 1.144,-0.625 1.594,-1.031 0.457,-0.414 0.781,-0.812 0.968,-1.187 h 0.703 z"
                   style="fill:#000000;fill-opacity:1;fill-rule:nonzero;stroke:none"
                   id="path2062" />
                <path
                   d="m 74.855,187.699 c 0,-1.039 0.102,-1.879 0.313,-2.515 0.219,-0.645 0.539,-1.141 0.969,-1.485 0.425,-0.344 0.961,-0.515 1.609,-0.515 0.469,0 0.879,0.093 1.234,0.281 0.364,0.187 0.661,0.465 0.891,0.828 0.238,0.367 0.426,0.809 0.563,1.328 0.132,0.512 0.203,1.203 0.203,2.078 0,1.043 -0.11,1.887 -0.328,2.531 -0.211,0.637 -0.528,1.133 -0.954,1.485 -0.429,0.344 -0.964,0.515 -1.609,0.515 -0.855,0 -1.527,-0.304 -2.016,-0.921 -0.585,-0.739 -0.875,-1.942 -0.875,-3.61 z m 1.11,0 c 0,1.461 0.172,2.43 0.515,2.906 0.344,0.481 0.766,0.719 1.266,0.719 0.5,0 0.914,-0.238 1.25,-0.719 0.344,-0.476 0.516,-1.445 0.516,-2.906 0,-1.457 -0.172,-2.426 -0.516,-2.906 -0.336,-0.477 -0.758,-0.719 -1.266,-0.719 -0.5,0 -0.902,0.215 -1.203,0.641 -0.375,0.543 -0.562,1.539 -0.562,2.984 z"
                   style="fill:#000000;fill-opacity:1;fill-rule:nonzero;stroke:none"
                   id="path2064" />
              </g>
            </g>
          </g>
        </g>
        <g
           id="g2066">
          <g
             id="g2068">
            <g
               id="g2070"
               clip-path="url(#clipPath2074)">
              <g
                 id="g2076">
                <path
                   d="m 55.055,142.992 h -1.813 v -11.547 c -0.437,0.418 -1.012,0.836 -1.719,1.25 -0.711,0.418 -1.343,0.731 -1.906,0.938 v -1.766 c 1.008,-0.469 1.895,-1.039 2.656,-1.719 0.758,-0.687 1.297,-1.347 1.61,-1.984 h 1.172 z m 4.644,-7.281 c 0,-1.75 0.176,-3.156 0.531,-4.219 0.364,-1.062 0.899,-1.879 1.61,-2.453 0.707,-0.582 1.598,-0.875 2.672,-0.875 0.789,0 1.484,0.164 2.078,0.484 0.601,0.313 1.098,0.774 1.484,1.375 0.383,0.606 0.688,1.34 0.906,2.204 0.227,0.855 0.344,2.015 0.344,3.484 0,1.73 -0.179,3.133 -0.531,4.203 -0.355,1.063 -0.887,1.887 -1.594,2.469 -0.711,0.574 -1.605,0.859 -2.687,0.859 -1.43,0 -2.547,-0.508 -3.36,-1.531 -0.968,-1.227 -1.453,-3.227 -1.453,-6 z m 1.86,0 c 0,2.43 0.281,4.043 0.843,4.844 0.571,0.804 1.274,1.203 2.11,1.203 0.832,0 1.531,-0.399 2.093,-1.203 0.571,-0.813 0.86,-2.426 0.86,-4.844 0,-2.426 -0.289,-4.039 -0.86,-4.844 -0.562,-0.801 -1.265,-1.203 -2.109,-1.203 -0.836,0 -1.5,0.356 -2,1.063 -0.625,0.898 -0.937,2.558 -0.937,4.984 z"
                   style="fill:#000000;fill-opacity:1;fill-rule:nonzero;stroke:none"
                   id="path2078" />
              </g>
            </g>
          </g>
        </g>
        <g
           id="g2080">
          <g
             id="g2082">
            <g
               id="g2084"
               clip-path="url(#clipPath2088)">
              <g
                 id="g2090">
                <path
                   d="m 70.645,130.227 v -1.094 h 3.343 v 1.094 z m 5.917,-2.141 c -0.449,-0.164 -0.781,-0.398 -1,-0.703 -0.218,-0.313 -0.328,-0.68 -0.328,-1.11 0,-0.644 0.227,-1.187 0.688,-1.625 0.469,-0.437 1.086,-0.656 1.859,-0.656 0.77,0 1.391,0.227 1.86,0.672 0.468,0.449 0.703,0.996 0.703,1.641 0,0.406 -0.11,0.765 -0.328,1.078 -0.211,0.305 -0.532,0.539 -0.969,0.703 0.539,0.18 0.953,0.465 1.234,0.859 0.289,0.387 0.438,0.856 0.438,1.407 0,0.761 -0.274,1.402 -0.813,1.921 -0.531,0.512 -1.234,0.766 -2.109,0.766 -0.875,0 -1.586,-0.258 -2.125,-0.781 -0.531,-0.52 -0.797,-1.164 -0.797,-1.938 0,-0.57 0.145,-1.05 0.437,-1.437 0.29,-0.395 0.708,-0.66 1.25,-0.797 z m -0.218,-1.844 c 0,0.418 0.133,0.762 0.406,1.031 0.27,0.262 0.617,0.391 1.047,0.391 0.414,0 0.758,-0.129 1.031,-0.391 0.27,-0.269 0.406,-0.597 0.406,-0.984 0,-0.394 -0.14,-0.727 -0.422,-1 -0.273,-0.269 -0.617,-0.406 -1.031,-0.406 -0.406,0 -0.75,0.137 -1.031,0.406 -0.273,0.262 -0.406,0.578 -0.406,0.953 z M 76,130.32 c 0,0.313 0.07,0.618 0.219,0.907 0.144,0.293 0.363,0.515 0.656,0.671 0.289,0.157 0.602,0.235 0.937,0.235 0.52,0 0.946,-0.164 1.282,-0.5 0.344,-0.332 0.515,-0.754 0.515,-1.266 0,-0.531 -0.179,-0.961 -0.531,-1.297 -0.344,-0.343 -0.781,-0.515 -1.312,-0.515 -0.512,0 -0.934,0.172 -1.266,0.515 -0.336,0.336 -0.5,0.75 -0.5,1.25 z"
                   style="fill:#000000;fill-opacity:1;fill-rule:nonzero;stroke:none"
                   id="path2092" />
              </g>
            </g>
          </g>
        </g>
        <g
           id="g2094">
          <g
             id="g2096">
            <g
               id="g2098"
               clip-path="url(#clipPath2102)">
              <g
                 id="g2104">
                <path
                   d="M 55.055,83.801 H 53.242 V 72.254 c -0.437,0.418 -1.012,0.836 -1.719,1.25 -0.711,0.418 -1.343,0.73 -1.906,0.937 v -1.765 c 1.008,-0.469 1.895,-1.039 2.656,-1.719 0.758,-0.687 1.297,-1.348 1.61,-1.984 h 1.172 z m 4.644,-7.281 c 0,-1.75 0.176,-3.157 0.531,-4.219 0.364,-1.063 0.899,-1.879 1.61,-2.453 0.707,-0.582 1.598,-0.875 2.672,-0.875 0.789,0 1.484,0.164 2.078,0.484 0.601,0.313 1.098,0.773 1.484,1.375 0.383,0.606 0.688,1.34 0.906,2.203 0.227,0.856 0.344,2.016 0.344,3.485 0,1.73 -0.179,3.132 -0.531,4.203 -0.355,1.062 -0.887,1.886 -1.594,2.468 -0.711,0.575 -1.605,0.86 -2.687,0.86 -1.43,0 -2.547,-0.508 -3.36,-1.531 -0.968,-1.227 -1.453,-3.227 -1.453,-6 z m 1.86,0 c 0,2.429 0.281,4.042 0.843,4.843 0.571,0.805 1.274,1.203 2.11,1.203 0.832,0 1.531,-0.398 2.093,-1.203 0.571,-0.812 0.86,-2.425 0.86,-4.843 0,-2.426 -0.289,-4.04 -0.86,-4.844 -0.562,-0.801 -1.265,-1.203 -2.109,-1.203 -0.836,0 -1.5,0.355 -2,1.062 -0.625,0.899 -0.937,2.559 -0.937,4.985 z"
                   style="fill:#000000;fill-opacity:1;fill-rule:nonzero;stroke:none"
                   id="path2106" />
              </g>
            </g>
          </g>
        </g>
        <g
           id="g2108">
          <g
             id="g2110">
            <g
               id="g2112"
               clip-path="url(#clipPath2116)">
              <g
                 id="g2118">
                <path
                   d="m 70.645,71.035 v -1.094 h 3.343 v 1.094 z m 9.886,-4.031 -1.078,0.078 c -0.094,-0.426 -0.23,-0.734 -0.406,-0.922 -0.305,-0.312 -0.668,-0.469 -1.094,-0.469 -0.344,0 -0.648,0.102 -0.906,0.297 -0.344,0.25 -0.617,0.617 -0.813,1.094 -0.199,0.48 -0.304,1.164 -0.312,2.047 0.258,-0.406 0.578,-0.703 0.953,-0.891 0.383,-0.195 0.785,-0.297 1.203,-0.297 0.719,0 1.332,0.274 1.844,0.813 0.508,0.531 0.766,1.219 0.766,2.062 0,0.555 -0.122,1.071 -0.36,1.547 -0.242,0.481 -0.57,0.852 -0.984,1.11 -0.418,0.25 -0.891,0.375 -1.422,0.375 -0.906,0 -1.649,-0.332 -2.219,-1 -0.574,-0.664 -0.859,-1.766 -0.859,-3.297 0,-1.719 0.312,-2.961 0.937,-3.735 0.551,-0.675 1.297,-1.015 2.235,-1.015 0.695,0 1.269,0.199 1.718,0.594 0.446,0.386 0.711,0.921 0.797,1.609 z m -4.437,3.812 c 0,0.375 0.078,0.735 0.234,1.079 0.156,0.343 0.375,0.605 0.656,0.781 0.289,0.179 0.594,0.265 0.907,0.265 0.468,0 0.863,-0.179 1.187,-0.546 0.332,-0.375 0.5,-0.879 0.5,-1.516 0,-0.613 -0.168,-1.094 -0.5,-1.438 -0.324,-0.351 -0.73,-0.531 -1.219,-0.531 -0.492,0 -0.906,0.18 -1.25,0.531 -0.343,0.344 -0.515,0.805 -0.515,1.375 z"
                   style="fill:#000000;fill-opacity:1;fill-rule:nonzero;stroke:none"
                   id="path2120" />
              </g>
            </g>
          </g>
        </g>
        <g
           id="g2122">
          <g
             id="g2124">
            <g
               id="g2126"
               clip-path="url(#clipPath2130)">
              <g
                 id="g2132">
                <path
                   d="M 55.055,24.609 H 53.242 V 13.062 c -0.437,0.418 -1.012,0.836 -1.719,1.25 -0.711,0.418 -1.343,0.731 -1.906,0.938 v -1.766 c 1.008,-0.468 1.895,-1.039 2.656,-1.718 0.758,-0.688 1.297,-1.348 1.61,-1.985 h 1.172 z m 4.644,-7.281 c 0,-1.75 0.176,-3.156 0.531,-4.219 0.364,-1.062 0.899,-1.879 1.61,-2.453 0.707,-0.582 1.598,-0.875 2.672,-0.875 0.789,0 1.484,0.164 2.078,0.485 0.601,0.312 1.098,0.773 1.484,1.375 0.383,0.605 0.688,1.339 0.906,2.203 0.227,0.855 0.344,2.015 0.344,3.484 0,1.731 -0.179,3.133 -0.531,4.203 -0.355,1.063 -0.887,1.887 -1.594,2.469 -0.711,0.574 -1.605,0.859 -2.687,0.859 -1.43,0 -2.547,-0.507 -3.36,-1.531 -0.968,-1.226 -1.453,-3.226 -1.453,-6 z m 1.86,0 c 0,2.43 0.281,4.043 0.843,4.844 0.571,0.805 1.274,1.203 2.11,1.203 0.832,0 1.531,-0.398 2.093,-1.203 0.571,-0.813 0.86,-2.426 0.86,-4.844 0,-2.426 -0.289,-4.039 -0.86,-4.844 -0.562,-0.8 -1.265,-1.203 -2.109,-1.203 -0.836,0 -1.5,0.356 -2,1.063 -0.625,0.898 -0.937,2.558 -0.937,4.984 z"
                   style="fill:#000000;fill-opacity:1;fill-rule:nonzero;stroke:none"
                   id="path2134" />
              </g>
            </g>
          </g>
        </g>
        <g
           id="g2136">
          <g
             id="g2138">
            <g
               id="g2140"
               clip-path="url(#clipPath2144)">
              <g
                 id="g2146">
                <path
                   d="M 70.645,11.844 V 10.75 h 3.343 v 1.094 z m 7.73,2.656 v -2.125 h -3.844 v -1 l 4.047,-5.734 h 0.891 v 5.734 h 1.187 v 1 H 79.469 V 14.5 Z m 0,-3.125 V 7.391 l -2.766,3.984 z"
                   style="fill:#000000;fill-opacity:1;fill-rule:nonzero;stroke:none"
                   id="path2148" />
              </g>
            </g>
          </g>
        </g>
        <g
           id="g2150">
          <g
             id="g2152">
            <g
               id="g2154"
               clip-path="url(#clipPath2158)">
              <g
                 id="g2160">
                <g
                   id="g2162">
                  <path
                     d="m 88.883,257.914 v -4.523 m 39.789,2.261 v -2.261 m 39.785,4.523 v -4.523 m 39.785,2.261 v -2.261 m 39.789,4.523 v -4.523 m 39.785,2.261 v -2.261 m 39.789,4.523 v -4.523 m 39.786,2.261 v -2.261 m 39.785,4.523 v -4.523 m -318.293,0 h 318.293"
                     style="fill:none;stroke:#000000;stroke-width:1.72951;stroke-linecap:round;stroke-linejoin:round;stroke-miterlimit:10;stroke-dasharray:none;stroke-opacity:1"
                     id="path2164" />
                </g>
              </g>
            </g>
          </g>
        </g>
        <g
           id="g2166">
          <g
             id="g2168">
            <g
               id="g2170"
               clip-path="url(#clipPath2174)">
              <g
                 id="g2176">
                <g
                   id="g2178">
                  <path
                     d="m 84.359,253.391 h 4.524 m -2.262,-8.911 h 2.262 m -2.262,-5.187 h 2.262 m -2.262,-3.723 h 2.262 m -2.262,-2.929 h 2.262 m -2.262,-2.258 h 2.262 m -2.262,-1.996 h 2.262 m -2.262,-1.731 h 2.262 m -2.262,-1.461 h 2.262 m -4.524,-1.332 h 4.524 m -2.262,-8.91 h 2.262 m -2.262,-5.32 h 2.262 m -2.262,-3.594 h 2.262 m -2.262,-2.926 h 2.262 m -2.262,-2.394 h 2.262 m -2.262,-1.996 h 2.262 m -2.262,-1.594 h 2.262 m -2.262,-1.598 h 2.262 m -4.524,-1.328 h 4.524 m -2.262,-8.914 h 2.262 m -2.262,-5.187 h 2.262 m -2.262,-3.723 h 2.262 m -2.262,-2.926 h 2.262 m -2.262,-2.262 h 2.262 m -2.262,-1.996 h 2.262 m -2.262,-1.73 h 2.262 m -2.262,-1.461 h 2.262 m -4.524,-1.465 h 4.524 m -2.262,-8.777 h 2.262 m -2.262,-5.321 h 2.262 m -2.262,-3.593 h 2.262 m -2.262,-2.926 h 2.262 m -2.262,-2.395 h 2.262 m -2.262,-1.992 h 2.262 m -2.262,-1.597 h 2.262 m -2.262,-1.598 h 2.262 m -4.524,-1.328 h 4.524 m -2.262,-8.914 h 2.262 m -2.262,-5.188 h 2.262 m -2.262,-3.722 h 2.262 m -2.262,-2.926 h 2.262 M 86.621,112 h 2.262 m -2.262,-1.996 h 2.262 m -2.262,-1.727 h 2.262 m -2.262,-1.465 h 2.262 m -4.524,-1.332 h 4.524 m -2.262,-8.91 h 2.262 m -2.262,-5.32 h 2.262 m -2.262,-3.59 h 2.262 m -2.262,-2.93 h 2.262 m -2.262,-2.39 h 2.262 m -2.262,-1.996 h 2.262 m -2.262,-1.598 h 2.262 m -2.262,-1.594 h 2.262 M 84.359,75.82 h 4.524 m -2.262,-8.91 h 2.262 m -2.262,-5.187 h 2.262 m -2.262,-3.727 h 2.262 M 86.621,55.07 h 2.262 m -2.262,-2.261 h 2.262 m -2.262,-1.997 h 2.262 m -2.262,-1.726 h 2.262 m -2.262,-1.465 h 2.262 m -4.524,-1.328 h 4.524 m -2.262,-8.914 h 2.262 m -2.262,-5.32 h 2.262 m -2.262,-3.59 h 2.262 m -2.262,-2.926 h 2.262 m -2.262,-2.395 h 2.262 m -2.262,-1.996 h 2.262 m -2.262,-1.597 h 2.262 m -2.262,-1.594 h 2.262 m -4.524,-1.332 h 4.524 m 0,236.762 V 16.629"
                     style="fill:none;stroke:#000000;stroke-width:1.72951;stroke-linecap:round;stroke-linejoin:round;stroke-miterlimit:10;stroke-dasharray:none;stroke-opacity:1"
                     id="path2180" />
                </g>
              </g>
            </g>
          </g>
        </g>
        <g
           id="g2182">
          <g
             id="g2184">
            <g
               id="g2186"
               clip-path="url(#clipPath2190)">
              <g
                 id="g2192">
                <g
                   id="g2194">
                  <path
                     d="m 88.883,16.629 v 4.523 m 39.789,-4.523 v 2.262 m 39.785,-2.262 v 4.523 m 39.785,-4.523 v 2.262 m 39.789,-2.262 v 4.523 m 39.785,-4.523 v 2.262 m 39.789,-2.262 v 4.523 m 39.786,-4.523 v 2.262 m 39.785,-2.262 v 4.523 M 88.883,16.629 h 318.293"
                     style="fill:none;stroke:#000000;stroke-width:1.72951;stroke-linecap:round;stroke-linejoin:round;stroke-miterlimit:10;stroke-dasharray:none;stroke-opacity:1"
                     id="path2196" />
                </g>
              </g>
            </g>
          </g>
        </g>
        <g
           id="g2198">
          <g
             id="g2200">
            <g
               id="g2202"
               clip-path="url(#clipPath2206)">
              <g
                 id="g2208">
                <g
                   id="g2210">
                  <path
                     d="m 407.176,253.391 h -4.524 m 4.524,-8.911 h -2.262 m 2.262,-5.187 h -2.262 m 2.262,-3.723 h -2.262 m 2.262,-2.929 h -2.262 m 2.262,-2.258 h -2.262 m 2.262,-1.996 h -2.262 m 2.262,-1.731 h -2.262 m 2.262,-1.461 h -2.262 m 2.262,-1.332 h -4.524 m 4.524,-8.91 h -2.262 m 2.262,-5.32 h -2.262 m 2.262,-3.594 h -2.262 m 2.262,-2.926 h -2.262 m 2.262,-2.394 h -2.262 m 2.262,-1.996 h -2.262 m 2.262,-1.594 h -2.262 m 2.262,-1.598 h -2.262 m 2.262,-1.328 h -4.524 m 4.524,-8.914 h -2.262 m 2.262,-5.187 h -2.262 m 2.262,-3.723 h -2.262 m 2.262,-2.926 h -2.262 m 2.262,-2.262 h -2.262 m 2.262,-1.996 h -2.262 m 2.262,-1.73 h -2.262 m 2.262,-1.461 h -2.262 m 2.262,-1.465 h -4.524 m 4.524,-8.777 h -2.262 m 2.262,-5.321 h -2.262 m 2.262,-3.593 h -2.262 m 2.262,-2.926 h -2.262 m 2.262,-2.395 h -2.262 m 2.262,-1.992 h -2.262 m 2.262,-1.597 h -2.262 m 2.262,-1.598 h -2.262 m 2.262,-1.328 h -4.524 m 4.524,-8.914 h -2.262 m 2.262,-5.188 h -2.262 m 2.262,-3.722 h -2.262 m 2.262,-2.926 h -2.262 M 407.176,112 h -2.262 m 2.262,-1.996 h -2.262 m 2.262,-1.727 h -2.262 m 2.262,-1.465 h -2.262 m 2.262,-1.332 h -4.524 m 4.524,-8.91 h -2.262 m 2.262,-5.32 h -2.262 m 2.262,-3.59 h -2.262 m 2.262,-2.93 h -2.262 m 2.262,-2.39 h -2.262 m 2.262,-1.996 h -2.262 m 2.262,-1.598 h -2.262 m 2.262,-1.594 h -2.262 m 2.262,-1.332 h -4.524 m 4.524,-8.91 h -2.262 m 2.262,-5.187 h -2.262 m 2.262,-3.727 h -2.262 m 2.262,-2.926 h -2.262 m 2.262,-2.261 h -2.262 m 2.262,-1.997 h -2.262 m 2.262,-1.726 h -2.262 m 2.262,-1.465 h -2.262 m 2.262,-1.328 h -4.524 m 4.524,-8.914 h -2.262 m 2.262,-5.32 h -2.262 m 2.262,-3.59 h -2.262 m 2.262,-2.926 h -2.262 m 2.262,-2.395 h -2.262 m 2.262,-1.996 h -2.262 m 2.262,-1.597 h -2.262 m 2.262,-1.594 h -2.262 m 2.262,-1.332 h -4.524 m 4.524,236.762 V 16.629"
                     style="fill:none;stroke:#000000;stroke-width:1.72951;stroke-linecap:round;stroke-linejoin:round;stroke-miterlimit:10;stroke-dasharray:none;stroke-opacity:1"
                     id="path2212" />
                </g>
              </g>
            </g>
          </g>
        </g>
      </g>
      <g
         id="g2214">
        <g
           id="g2216"
           clip-path="url(#clipPath2220)">
          <g
             id="g2222">
            <g
               id="g2224">
              <g
                 id="g2226"
                 clip-path="url(#clipPath2230)">
                <g
                   id="g2232">
                  <g
                     id="g2234">
                    <path
                       d="m 88.883,56.934 1.597,0.796 1.598,0.93 1.598,0.801 1.594,0.93 1.597,0.929 1.598,0.934 1.597,0.93 1.598,0.933 1.594,0.93 1.598,1.062 1.597,0.934 1.598,1.062 1.461,1.063 1.597,1.199 1.598,1.063 1.598,1.199 1.594,1.195 1.597,1.199 1.598,1.329 1.598,1.332 1.597,1.195 1.594,1.465 1.598,1.328 1.597,1.465 1.598,1.461 1.594,1.464 1.597,1.465 1.598,1.461 1.598,1.598 1.597,1.594 1.594,1.597 1.598,1.598 1.597,1.594 1.598,1.465 3.191,3.191 1.598,1.328 1.465,1.465 1.598,1.465 1.593,1.328 1.598,1.199 3.195,2.391 1.594,1.066 1.598,0.93 1.597,0.933 3.196,1.594 1.593,0.801 1.598,0.664 1.598,0.797 1.597,0.664 1.594,0.801 1.598,0.797 3.195,1.328 1.598,0.801 1.593,0.796 1.598,0.797 1.598,0.934 1.597,0.797 1.594,0.929 1.465,0.934 1.598,0.93 1.597,0.933 1.594,0.797 1.598,0.93 1.597,0.797 1.598,0.801 1.598,0.796 1.593,0.664 1.598,0.536 1.598,0.664 1.597,0.797 1.594,1.066 1.598,1.328 1.598,1.863 1.597,1.86 1.598,1.73 1.594,1.332 1.597,1.196 1.598,1.066 1.598,0.93 1.593,1.062 1.598,1.067 1.598,1.195 1.597,1.332 1.461,1.328 1.598,1.465 1.597,1.726 1.598,1.864 1.598,1.996 1.594,2.262 1.597,2.66 1.598,2.925 1.598,3.458 1.593,4.257 1.598,5.719 1.598,9.313 1.597,61.582 1.598,-61.45 1.594,-9.046 1.597,-5.454 1.598,-4.121 1.598,-3.328 1.593,-2.793 1.598,-2.527 1.598,-2.262 1.597,-1.992 1.598,-1.73 1.594,-1.598 1.597,-1.461 1.465,-1.332 1.598,-1.328 1.594,-1.067 1.597,-1.062 1.598,-0.93 1.598,-0.801 1.597,-0.797 1.594,-0.664 1.598,-0.668 1.597,-0.664 1.598,-0.531 1.594,-0.531 1.597,-0.399 1.598,-0.402 3.195,-0.797 1.594,-0.398 4.793,-0.797 1.594,-0.266 1.598,-0.269 1.597,-0.133 1.598,-0.266 1.597,-0.132 1.461,-0.133 1.598,-0.266 3.195,-0.266 1.594,-0.132 1.598,-0.133 h 1.597 l 1.598,-0.133 1.594,-0.133 1.597,-0.133 h 1.598 l 1.598,-0.132 h 1.597 l 1.594,-0.133 h 1.598 l 1.598,-0.133 h 1.597 l 1.594,-0.133 h 3.195 l 1.598,-0.133 h 4.789 l 1.598,-0.136 h 4.656 l 1.598,-0.133 h 7.984 L 362.602,139 h 15.964 l 1.598,-0.133 h 27.012"
                       style="fill:none;stroke:#000000;stroke-width:1.72951;stroke-linecap:round;stroke-linejoin:round;stroke-miterlimit:10;stroke-dasharray:none;stroke-opacity:1"
                       id="path2236" />
                  </g>
                </g>
              </g>
            </g>
          </g>
        </g>
      </g>
      <g
         id="g2238">
        <g
           id="g2240">
          <g
             id="g2242">
            <g
               id="g2244"
               clip-path="url(#clipPath2248)">
              <g
                 id="g2250">
                <path
                   d="m 262.688,125.699 v -11.14 h 4.937 c 1,0 1.754,0.101 2.266,0.296 0.519,0.2 0.929,0.555 1.234,1.063 0.313,0.512 0.469,1.074 0.469,1.687 0,0.782 -0.258,1.45 -0.766,2 -0.512,0.543 -1.305,0.887 -2.375,1.032 0.395,0.187 0.692,0.371 0.891,0.547 0.437,0.398 0.847,0.89 1.234,1.484 l 1.938,3.031 h -1.86 l -1.468,-2.312 c -0.438,-0.676 -0.797,-1.192 -1.079,-1.547 -0.273,-0.352 -0.523,-0.598 -0.75,-0.735 -0.218,-0.144 -0.437,-0.242 -0.656,-0.296 -0.168,-0.039 -0.445,-0.063 -0.828,-0.063 h -1.703 v 4.953 z m 1.484,-6.219 h 3.156 c 0.676,0 1.203,-0.066 1.578,-0.203 0.383,-0.144 0.676,-0.367 0.875,-0.672 0.196,-0.312 0.297,-0.644 0.297,-1 0,-0.531 -0.195,-0.96 -0.578,-1.296 -0.375,-0.344 -0.98,-0.516 -1.812,-0.516 h -3.516 z m 15.082,3.625 1.422,0.172 c -0.231,0.825 -0.649,1.465 -1.25,1.922 -0.594,0.461 -1.36,0.688 -2.297,0.688 -1.188,0 -2.133,-0.364 -2.828,-1.094 -0.688,-0.727 -1.031,-1.75 -1.031,-3.063 0,-1.351 0.347,-2.406 1.046,-3.156 0.707,-0.75 1.618,-1.125 2.735,-1.125 1.07,0 1.953,0.371 2.64,1.11 0.688,0.73 1.032,1.761 1.032,3.093 0,0.086 -0.008,0.203 -0.016,0.36 h -6.016 c 0.051,0.886 0.301,1.57 0.75,2.047 0.446,0.468 1.008,0.703 1.688,0.703 0.5,0 0.926,-0.129 1.281,-0.391 0.352,-0.269 0.633,-0.691 0.844,-1.266 z m -4.484,-2.218 h 4.5 c -0.063,-0.676 -0.235,-1.188 -0.516,-1.532 -0.438,-0.519 -1,-0.781 -1.688,-0.781 -0.636,0 -1.168,0.215 -1.593,0.641 -0.43,0.418 -0.664,0.976 -0.703,1.672 z"
                   style="fill:#ff0000;fill-opacity:1;fill-rule:nonzero;stroke:none"
                   id="path2252" />
                <path
                   d="m 284.629,125.699 -3.063,-8.062 h 1.438 l 1.734,4.828 c 0.188,0.523 0.36,1.062 0.516,1.625 0.125,-0.426 0.297,-0.938 0.516,-1.531 l 1.781,-4.922 h 1.406 l -3.047,8.062 z"
                   style="fill:#ff0000;fill-opacity:1;fill-rule:nonzero;stroke:none"
                   id="path2254" />
                <path
                   d="m 295.691,123.105 1.422,0.172 c -0.23,0.825 -0.648,1.465 -1.25,1.922 -0.593,0.461 -1.359,0.688 -2.297,0.688 -1.187,0 -2.132,-0.364 -2.828,-1.094 -0.687,-0.727 -1.031,-1.75 -1.031,-3.063 0,-1.351 0.348,-2.406 1.047,-3.156 0.707,-0.75 1.617,-1.125 2.734,-1.125 1.071,0 1.953,0.371 2.641,1.11 0.687,0.73 1.031,1.761 1.031,3.093 0,0.086 -0.008,0.203 -0.015,0.36 h -6.016 c 0.051,0.886 0.301,1.57 0.75,2.047 0.445,0.468 1.008,0.703 1.687,0.703 0.5,0 0.926,-0.129 1.282,-0.391 0.351,-0.269 0.632,-0.691 0.843,-1.266 z m -4.484,-2.218 h 4.5 c -0.062,-0.676 -0.234,-1.188 -0.516,-1.532 -0.437,-0.519 -1,-0.781 -1.687,-0.781 -0.637,0 -1.168,0.215 -1.594,0.641 -0.43,0.418 -0.664,0.976 -0.703,1.672 z"
                   style="fill:#ff0000;fill-opacity:1;fill-rule:nonzero;stroke:none"
                   id="path2256" />
                <path
                   d="m 298.816,125.699 v -8.062 h 1.219 v 1.218 c 0.32,-0.57 0.613,-0.945 0.875,-1.125 0.27,-0.187 0.563,-0.281 0.875,-0.281 0.469,0 0.938,0.149 1.406,0.438 l -0.468,1.265 c -0.336,-0.195 -0.668,-0.297 -1,-0.297 -0.305,0 -0.575,0.094 -0.813,0.282 -0.23,0.179 -0.398,0.422 -0.5,0.734 -0.156,0.492 -0.234,1.027 -0.234,1.609 v 4.219 z"
                   style="fill:#ff0000;fill-opacity:1;fill-rule:nonzero;stroke:none"
                   id="path2258" />
                <path
                   d="m 303.469,123.293 1.343,-0.219 c 0.083,0.543 0.297,0.961 0.641,1.25 0.344,0.293 0.828,0.438 1.453,0.438 0.625,0 1.086,-0.125 1.391,-0.375 0.312,-0.258 0.469,-0.563 0.469,-0.907 0,-0.312 -0.137,-0.554 -0.407,-0.734 -0.187,-0.125 -0.656,-0.281 -1.406,-0.469 -1,-0.25 -1.695,-0.468 -2.078,-0.656 -0.387,-0.187 -0.684,-0.441 -0.891,-0.766 -0.199,-0.32 -0.296,-0.679 -0.296,-1.078 0,-0.363 0.082,-0.695 0.25,-1 0.164,-0.312 0.39,-0.566 0.671,-0.765 0.219,-0.157 0.508,-0.285 0.875,-0.391 0.364,-0.113 0.754,-0.172 1.172,-0.172 0.633,0 1.192,0.094 1.672,0.281 0.477,0.18 0.832,0.422 1.063,0.735 0.226,0.312 0.382,0.73 0.468,1.25 l -1.328,0.172 c -0.062,-0.407 -0.242,-0.723 -0.531,-0.953 -0.293,-0.239 -0.703,-0.36 -1.234,-0.36 -0.637,0 -1.09,0.106 -1.36,0.313 -0.261,0.211 -0.39,0.449 -0.39,0.718 0,0.18 0.054,0.34 0.172,0.485 0.101,0.148 0.273,0.265 0.515,0.359 0.133,0.055 0.535,0.172 1.203,0.36 0.969,0.261 1.645,0.476 2.032,0.64 0.382,0.156 0.687,0.399 0.906,0.719 0.218,0.312 0.328,0.699 0.328,1.156 0,0.461 -0.137,0.891 -0.406,1.297 -0.262,0.399 -0.649,0.711 -1.157,0.938 -0.5,0.218 -1.07,0.328 -1.703,0.328 -1.043,0 -1.84,-0.219 -2.39,-0.657 -0.555,-0.437 -0.903,-1.082 -1.047,-1.937 z"
                   style="fill:#ff0000;fill-opacity:1;fill-rule:nonzero;stroke:none"
                   id="path2260" />
                <path
                   d="m 317.312,123.105 1.422,0.172 c -0.23,0.825 -0.648,1.465 -1.25,1.922 -0.593,0.461 -1.359,0.688 -2.296,0.688 -1.188,0 -2.133,-0.364 -2.829,-1.094 -0.687,-0.727 -1.031,-1.75 -1.031,-3.063 0,-1.351 0.348,-2.406 1.047,-3.156 0.707,-0.75 1.617,-1.125 2.734,-1.125 1.071,0 1.953,0.371 2.641,1.11 0.688,0.73 1.031,1.761 1.031,3.093 0,0.086 -0.008,0.203 -0.015,0.36 h -6.016 c 0.051,0.886 0.301,1.57 0.75,2.047 0.445,0.468 1.008,0.703 1.688,0.703 0.5,0 0.925,-0.129 1.281,-0.391 0.351,-0.269 0.633,-0.691 0.843,-1.266 z m -4.484,-2.218 h 4.5 c -0.062,-0.676 -0.234,-1.188 -0.516,-1.532 -0.437,-0.519 -1,-0.781 -1.687,-0.781 -0.637,0 -1.168,0.215 -1.594,0.641 -0.429,0.418 -0.664,0.976 -0.703,1.672 z"
                   style="fill:#ff0000;fill-opacity:1;fill-rule:nonzero;stroke:none"
                   id="path2262" />
                <path
                   d="m 326.023,125.699 h -1.265 v -11.14 h 1.375 v 3.968 c 0.57,-0.718 1.305,-1.078 2.203,-1.078 0.5,0 0.969,0.102 1.406,0.297 0.446,0.199 0.813,0.481 1.094,0.844 0.289,0.367 0.516,0.805 0.672,1.312 0.164,0.512 0.25,1.059 0.25,1.641 0,1.387 -0.344,2.461 -1.031,3.219 -0.68,0.75 -1.497,1.125 -2.454,1.125 -0.961,0 -1.711,-0.399 -2.25,-1.203 z m -0.015,-4.094 c 0,0.969 0.133,1.668 0.406,2.094 0.426,0.711 1.008,1.063 1.75,1.063 0.594,0 1.109,-0.258 1.547,-0.782 0.437,-0.519 0.656,-1.296 0.656,-2.328 0,-1.05 -0.215,-1.828 -0.64,-2.328 -0.418,-0.5 -0.922,-0.75 -1.516,-0.75 -0.594,0 -1.109,0.262 -1.547,0.781 -0.437,0.524 -0.656,1.274 -0.656,2.25 z"
                   style="fill:#ff0000;fill-opacity:1;fill-rule:nonzero;stroke:none"
                   id="path2264" />
                <path
                   d="m 333.43,116.137 v -1.578 h 1.375 v 1.578 z m 0,9.562 v -8.062 h 1.375 v 8.062 z"
                   style="fill:#ff0000;fill-opacity:1;fill-rule:nonzero;stroke:none"
                   id="path2266" />
                <path
                   d="m 342.152,124.699 c -0.511,0.438 -1,0.746 -1.468,0.922 -0.469,0.176 -0.969,0.266 -1.5,0.266 -0.899,0 -1.586,-0.211 -2.063,-0.641 -0.469,-0.437 -0.703,-0.992 -0.703,-1.672 0,-0.394 0.086,-0.754 0.266,-1.078 0.187,-0.332 0.421,-0.598 0.703,-0.797 0.289,-0.195 0.617,-0.347 0.984,-0.453 0.27,-0.062 0.676,-0.129 1.219,-0.203 1.101,-0.125 1.914,-0.281 2.437,-0.469 0.008,-0.187 0.016,-0.304 0.016,-0.359 0,-0.551 -0.133,-0.942 -0.391,-1.172 -0.343,-0.313 -0.867,-0.469 -1.562,-0.469 -0.637,0 -1.11,0.117 -1.422,0.344 -0.305,0.23 -0.527,0.633 -0.672,1.203 l -1.344,-0.187 c 0.125,-0.571 0.321,-1.036 0.594,-1.391 0.281,-0.352 0.68,-0.625 1.203,-0.813 0.531,-0.187 1.145,-0.281 1.844,-0.281 0.687,0 1.242,0.086 1.672,0.25 0.437,0.156 0.754,0.36 0.953,0.61 0.207,0.242 0.352,0.546 0.437,0.921 0.04,0.243 0.063,0.665 0.063,1.266 v 1.828 c 0,1.274 0.023,2.074 0.078,2.406 0.063,0.336 0.18,0.657 0.359,0.969 h -1.437 c -0.137,-0.281 -0.227,-0.613 -0.266,-1 z m -0.125,-3.047 c -0.492,0.2 -1.234,0.371 -2.234,0.516 -0.563,0.086 -0.961,0.18 -1.188,0.281 -0.23,0.094 -0.414,0.242 -0.546,0.438 -0.125,0.199 -0.188,0.414 -0.188,0.64 0,0.368 0.133,0.672 0.406,0.922 0.282,0.242 0.688,0.36 1.219,0.36 0.531,0 1,-0.114 1.406,-0.344 0.414,-0.227 0.719,-0.547 0.907,-0.953 0.144,-0.301 0.218,-0.754 0.218,-1.36 z"
                   style="fill:#ff0000;fill-opacity:1;fill-rule:nonzero;stroke:none"
                   id="path2268" />
                <path
                   d="m 344.996,123.293 1.344,-0.219 c 0.082,0.543 0.297,0.961 0.64,1.25 0.344,0.293 0.829,0.438 1.454,0.438 0.625,0 1.086,-0.125 1.39,-0.375 0.313,-0.258 0.469,-0.563 0.469,-0.907 0,-0.312 -0.137,-0.554 -0.406,-0.734 -0.188,-0.125 -0.657,-0.281 -1.407,-0.469 -1,-0.25 -1.695,-0.468 -2.078,-0.656 -0.386,-0.187 -0.683,-0.441 -0.89,-0.766 -0.2,-0.32 -0.297,-0.679 -0.297,-1.078 0,-0.363 0.082,-0.695 0.25,-1 0.164,-0.312 0.39,-0.566 0.672,-0.765 0.218,-0.157 0.508,-0.285 0.875,-0.391 0.363,-0.113 0.754,-0.172 1.172,-0.172 0.632,0 1.191,0.094 1.671,0.281 0.477,0.18 0.833,0.422 1.063,0.735 0.227,0.312 0.383,0.73 0.469,1.25 l -1.328,0.172 c -0.063,-0.407 -0.243,-0.723 -0.532,-0.953 -0.293,-0.239 -0.703,-0.36 -1.234,-0.36 -0.637,0 -1.09,0.106 -1.359,0.313 -0.262,0.211 -0.391,0.449 -0.391,0.718 0,0.18 0.055,0.34 0.172,0.485 0.101,0.148 0.273,0.265 0.515,0.359 0.133,0.055 0.536,0.172 1.204,0.36 0.968,0.261 1.644,0.476 2.031,0.64 0.383,0.156 0.687,0.399 0.906,0.719 0.219,0.312 0.328,0.699 0.328,1.156 0,0.461 -0.137,0.891 -0.406,1.297 -0.262,0.399 -0.648,0.711 -1.156,0.938 -0.5,0.218 -1.071,0.328 -1.703,0.328 -1.043,0 -1.84,-0.219 -2.391,-0.657 -0.555,-0.437 -0.902,-1.082 -1.047,-1.937 z"
                   style="fill:#ff0000;fill-opacity:1;fill-rule:nonzero;stroke:none"
                   id="path2270" />
                <path
                   d="m 357.633,125.699 v -8.062 h 1.219 v 1.218 c 0.32,-0.57 0.613,-0.945 0.875,-1.125 0.269,-0.187 0.562,-0.281 0.875,-0.281 0.468,0 0.937,0.149 1.406,0.438 l -0.469,1.265 c -0.336,-0.195 -0.668,-0.297 -1,-0.297 -0.305,0 -0.574,0.094 -0.812,0.282 -0.231,0.179 -0.399,0.422 -0.5,0.734 -0.157,0.492 -0.235,1.027 -0.235,1.609 v 4.219 z"
                   style="fill:#ff0000;fill-opacity:1;fill-rule:nonzero;stroke:none"
                   id="path2272" />
                <path
                   d="m 368.344,123.105 1.422,0.172 c -0.231,0.825 -0.649,1.465 -1.25,1.922 -0.594,0.461 -1.36,0.688 -2.297,0.688 -1.188,0 -2.133,-0.364 -2.828,-1.094 -0.688,-0.727 -1.032,-1.75 -1.032,-3.063 0,-1.351 0.348,-2.406 1.047,-3.156 0.707,-0.75 1.617,-1.125 2.735,-1.125 1.07,0 1.953,0.371 2.64,1.11 0.688,0.73 1.031,1.761 1.031,3.093 0,0.086 -0.007,0.203 -0.015,0.36 h -6.016 c 0.051,0.886 0.301,1.57 0.75,2.047 0.446,0.468 1.008,0.703 1.688,0.703 0.5,0 0.926,-0.129 1.281,-0.391 0.352,-0.269 0.633,-0.691 0.844,-1.266 z m -4.485,-2.218 h 4.5 c -0.062,-0.676 -0.234,-1.188 -0.515,-1.532 -0.438,-0.519 -1,-0.781 -1.688,-0.781 -0.636,0 -1.168,0.215 -1.594,0.641 -0.429,0.418 -0.664,0.976 -0.703,1.672 z"
                   style="fill:#ff0000;fill-opacity:1;fill-rule:nonzero;stroke:none"
                   id="path2274" />
                <path
                   d="m 371.234,126.371 1.328,0.188 c 0.051,0.414 0.204,0.718 0.454,0.906 0.343,0.25 0.804,0.375 1.39,0.375 0.633,0 1.125,-0.125 1.469,-0.375 0.344,-0.25 0.578,-0.606 0.703,-1.063 0.07,-0.281 0.102,-0.867 0.094,-1.765 -0.594,0.711 -1.34,1.062 -2.234,1.062 -1.106,0 -1.965,-0.398 -2.579,-1.203 -0.605,-0.801 -0.906,-1.758 -0.906,-2.875 0,-0.769 0.141,-1.476 0.422,-2.125 0.281,-0.656 0.68,-1.16 1.203,-1.516 0.531,-0.351 1.156,-0.531 1.875,-0.531 0.945,0 1.735,0.387 2.359,1.156 v -0.968 h 1.25 v 6.968 c 0,1.258 -0.132,2.149 -0.39,2.672 -0.25,0.52 -0.652,0.93 -1.203,1.235 -0.555,0.312 -1.235,0.468 -2.047,0.468 -0.969,0 -1.75,-0.218 -2.344,-0.656 -0.586,-0.437 -0.867,-1.09 -0.844,-1.953 z m 1.125,-4.844 c 0,1.055 0.207,1.825 0.625,2.313 0.426,0.492 0.957,0.734 1.594,0.734 0.625,0 1.149,-0.238 1.578,-0.719 0.426,-0.488 0.641,-1.253 0.641,-2.296 0,-0.977 -0.227,-1.719 -0.672,-2.219 -0.437,-0.508 -0.965,-0.766 -1.578,-0.766 -0.606,0 -1.121,0.25 -1.547,0.75 -0.43,0.492 -0.641,1.227 -0.641,2.203 z"
                   style="fill:#ff0000;fill-opacity:1;fill-rule:nonzero;stroke:none"
                   id="path2276" />
                <path
                   d="m 380.141,116.137 v -1.578 h 1.375 v 1.578 z m 0,9.562 v -8.062 h 1.375 v 8.062 z"
                   style="fill:#ff0000;fill-opacity:1;fill-rule:nonzero;stroke:none"
                   id="path2278" />
                <path
                   d="m 383.082,121.668 c 0,-1.5 0.414,-2.609 1.25,-3.328 0.688,-0.594 1.531,-0.891 2.531,-0.891 1.114,0 2.02,0.367 2.719,1.094 0.707,0.719 1.063,1.719 1.063,3 0,1.043 -0.157,1.859 -0.469,2.453 -0.313,0.594 -0.766,1.059 -1.36,1.391 -0.593,0.332 -1.246,0.5 -1.953,0.5 -1.125,0 -2.039,-0.36 -2.734,-1.078 -0.699,-0.727 -1.047,-1.774 -1.047,-3.141 z m 1.406,0 c 0,1.031 0.223,1.809 0.672,2.328 0.457,0.512 1.024,0.766 1.703,0.766 0.676,0 1.239,-0.258 1.688,-0.782 0.457,-0.519 0.687,-1.304 0.687,-2.359 0,-1 -0.23,-1.754 -0.687,-2.266 -0.449,-0.519 -1.012,-0.781 -1.688,-0.781 -0.679,0 -1.246,0.262 -1.703,0.781 -0.449,0.512 -0.672,1.282 -0.672,2.313 z"
                   style="fill:#ff0000;fill-opacity:1;fill-rule:nonzero;stroke:none"
                   id="path2280" />
                <path
                   d="m 392.254,125.699 v -8.062 h 1.219 v 1.14 c 0.593,-0.882 1.453,-1.328 2.578,-1.328 0.488,0 0.937,0.09 1.344,0.266 0.406,0.168 0.707,0.398 0.906,0.687 0.207,0.282 0.347,0.618 0.422,1 0.05,0.262 0.078,0.703 0.078,1.328 v 4.969 h -1.36 v -4.906 c 0,-0.563 -0.058,-0.977 -0.171,-1.25 -0.106,-0.281 -0.293,-0.5 -0.563,-0.656 -0.273,-0.164 -0.59,-0.25 -0.953,-0.25 -0.586,0 -1.09,0.187 -1.516,0.562 -0.418,0.367 -0.625,1.063 -0.625,2.094 v 4.406 z"
                   style="fill:#ff0000;fill-opacity:1;fill-rule:nonzero;stroke:none"
                   id="path2282" />
              </g>
            </g>
          </g>
        </g>
        <g
           id="g2284">
          <g
             id="g2286">
            <g
               id="g2288"
               clip-path="url(#clipPath2292)">
              <g
                 id="g2294">
                <path
                   d="m 8.266,176.508 h 22.969 v 1.875 H 8.266 Z"
                   style="fill:#000000;fill-opacity:1;fill-rule:nonzero;stroke:none"
                   id="path2296" />
                <path
                   d="M 26.078,166.77 8.562,163.098 v -2.328 l 17.516,3.656 z"
                   style="fill:#000000;fill-opacity:1;fill-rule:nonzero;stroke:none"
                   id="path2298" />
                <path
                   d="m 30.469,154.176 -1.188,-0.25 v -4.594 l 4.266,0.891 c 0.367,0.586 0.664,1.246 0.891,1.984 0.218,0.731 0.328,1.453 0.328,2.172 0,1.523 -0.457,2.656 -1.375,3.406 -0.77,0.637 -1.766,0.953 -2.985,0.953 -1.258,0 -2.406,-0.273 -3.437,-0.828 -1.031,-0.551 -1.789,-1.25 -2.281,-2.094 -0.489,-0.851 -0.735,-1.796 -0.735,-2.828 0,-0.738 0.137,-1.406 0.406,-2 0.262,-0.593 0.621,-1.047 1.079,-1.359 0.449,-0.313 1.031,-0.535 1.75,-0.672 l 0.156,1.375 c -0.719,0.148 -1.27,0.453 -1.656,0.922 -0.383,0.461 -0.579,1.055 -0.579,1.781 0,0.762 0.211,1.469 0.625,2.125 0.407,0.656 1.028,1.184 1.86,1.578 0.836,0.387 1.777,0.578 2.828,0.578 1.055,0 1.851,-0.257 2.39,-0.781 0.532,-0.519 0.797,-1.234 0.797,-2.14 0,-0.915 -0.297,-1.895 -0.89,-2.938 l -2.25,-0.469 z"
                   style="fill:#000000;fill-opacity:1;fill-rule:nonzero;stroke:none"
                   id="path2300" />
                <path
                   d="m 8.266,137.859 h 22.969 v 1.875 H 8.266 Z"
                   style="fill:#000000;fill-opacity:1;fill-rule:nonzero;stroke:none"
                   id="path2302" />
                <path
                   d="m 31.234,123.113 c -1.5,1.188 -3.257,2.196 -5.265,3.016 -2.008,0.812 -4.086,1.219 -6.235,1.219 -1.894,0 -3.711,-0.305 -5.453,-0.922 -2.008,-0.719 -4.015,-1.821 -6.015,-3.313 v -1.547 c 1.656,0.969 2.839,1.606 3.546,1.907 1.106,0.492 2.25,0.875 3.438,1.156 1.492,0.344 2.992,0.516 4.5,0.516 3.836,0 7.66,-1.192 11.484,-3.579 z"
                   style="fill:#000000;fill-opacity:1;fill-rule:nonzero;stroke:none"
                   id="path2304" />
                <path
                   d="M 26.078,120.715 8.562,113.996 v -2.5 l 17.516,-7.172 v 2.641 l -5.312,2.047 v 7.328 l 5.312,1.922 z m -7.187,-5.047 v -5.938 l -4.86,1.829 c -1.469,0.554 -2.676,0.964 -3.625,1.234 1.125,0.23 2.242,0.547 3.344,0.953 z"
                   style="fill:#000000;fill-opacity:1;fill-rule:nonzero;stroke:none"
                   id="path2306" />
                <path
                   d="m 31.234,101.348 v 1.531 c -3.824,-2.375 -7.648,-3.563 -11.484,-3.563 -1.5,0 -2.984,0.168 -4.453,0.5 -1.195,0.274 -2.348,0.653 -3.453,1.141 -0.719,0.313 -1.91,0.953 -3.578,1.922 v -1.531 c 2,-1.5 4.007,-2.61 6.015,-3.328 1.742,-0.614 3.559,-0.922 5.453,-0.922 2.149,0 4.227,0.414 6.235,1.234 2.008,0.824 3.765,1.828 5.265,3.016 z"
                   style="fill:#000000;fill-opacity:1;fill-rule:nonzero;stroke:none"
                   id="path2308" />
              </g>
            </g>
          </g>
        </g>
        <g
           id="g2310">
          <g
             id="g2312">
            <g
               id="g2314"
               clip-path="url(#clipPath2318)">
              <g
                 id="g2320">
                <path
                   d="m 231.016,304.867 -3.375,-17.515 h 2.265 l 2.032,10.437 c 0.374,1.899 0.613,3.43 0.718,4.594 0.739,-1.5 1.344,-2.688 1.813,-3.563 l 6.25,-11.468 h 2.406 l -9.609,17.515 z"
                   style="fill:#000000;fill-opacity:1;fill-rule:nonzero;stroke:none"
                   id="path2322" />
                <path
                   d="m 246.914,309.258 0.25,-1.188 h 4.594 l -0.891,4.266 c -0.586,0.367 -1.246,0.664 -1.984,0.891 -0.731,0.218 -1.453,0.328 -2.172,0.328 -1.523,0 -2.656,-0.457 -3.406,-1.375 -0.637,-0.77 -0.953,-1.766 -0.953,-2.985 0,-1.257 0.273,-2.406 0.828,-3.437 0.55,-1.031 1.25,-1.789 2.093,-2.281 0.852,-0.489 1.797,-0.735 2.829,-0.735 0.738,0 1.406,0.137 2,0.406 0.593,0.262 1.046,0.622 1.359,1.079 0.312,0.449 0.535,1.031 0.672,1.75 l -1.375,0.156 c -0.149,-0.719 -0.453,-1.27 -0.922,-1.656 -0.461,-0.383 -1.055,-0.579 -1.781,-0.579 -0.762,0 -1.469,0.211 -2.125,0.625 -0.657,0.407 -1.184,1.028 -1.578,1.86 -0.387,0.836 -0.579,1.777 -0.579,2.828 0,1.055 0.258,1.851 0.782,2.391 0.519,0.531 1.234,0.796 2.14,0.796 0.914,0 1.895,-0.296 2.938,-0.89 l 0.469,-2.25 z"
                   style="fill:#000000;fill-opacity:1;fill-rule:nonzero;stroke:none"
                   id="path2324" />
                <path
                   d="m 264.824,310.023 c -1.187,-1.5 -2.195,-3.257 -3.015,-5.265 -0.813,-2.008 -1.219,-4.086 -1.219,-6.235 0,-1.894 0.305,-3.711 0.922,-5.453 0.718,-2.008 1.82,-4.015 3.312,-6.015 h 1.547 c -0.969,1.656 -1.605,2.84 -1.906,3.547 -0.492,1.105 -0.875,2.25 -1.156,3.437 -0.344,1.492 -0.516,2.992 -0.516,4.5 0,3.836 1.191,7.66 3.578,11.484 z"
                   style="fill:#000000;fill-opacity:1;fill-rule:nonzero;stroke:none"
                   id="path2326" />
                <path
                   d="m 274.145,304.867 -6.782,-17.515 h 2.5 l 4.563,12.718 c 0.363,1.024 0.672,1.981 0.922,2.875 0.269,-0.957 0.582,-1.914 0.937,-2.875 l 4.735,-12.718 h 2.359 l -6.859,17.515 z"
                   style="fill:#000000;fill-opacity:1;fill-rule:nonzero;stroke:none"
                   id="path2328" />
                <path
                   d="m 286.59,310.023 h -1.531 c 2.375,-3.824 3.562,-7.648 3.562,-11.484 0,-1.5 -0.168,-2.984 -0.5,-4.453 -0.273,-1.195 -0.652,-2.348 -1.141,-3.453 -0.312,-0.719 -0.953,-1.91 -1.921,-3.578 h 1.531 c 1.5,2 2.609,4.007 3.328,6.015 0.613,1.742 0.922,3.559 0.922,5.453 0,2.149 -0.414,4.227 -1.235,6.235 -0.824,2.008 -1.828,3.765 -3.015,5.265 z"
                   style="fill:#000000;fill-opacity:1;fill-rule:nonzero;stroke:none"
                   id="path2330" />
              </g>
            </g>
          </g>
        </g>
        <g
           id="g2332">
          <g
             id="g2334">
            <g
               id="g2336"
               clip-path="url(#clipPath2340)">
              <g
                 id="g2342">
                <path
                   d="m 292.195,217.348 v -1.125 c -0.562,0.886 -1.39,1.328 -2.484,1.328 -0.719,0 -1.375,-0.196 -1.969,-0.578 -0.594,-0.395 -1.054,-0.942 -1.375,-1.641 -0.324,-0.707 -0.484,-1.516 -0.484,-2.422 0,-0.883 0.144,-1.687 0.437,-2.406 0.289,-0.727 0.735,-1.285 1.328,-1.672 0.594,-0.383 1.254,-0.578 1.985,-0.578 0.539,0 1.019,0.117 1.437,0.344 0.414,0.218 0.754,0.511 1.016,0.875 v -4.407 h 1.5 v 12.282 z m -4.765,-4.438 c 0,1.137 0.238,1.992 0.718,2.563 0.477,0.562 1.047,0.843 1.704,0.843 0.656,0 1.21,-0.269 1.671,-0.812 0.457,-0.539 0.688,-1.363 0.688,-2.469 0,-1.219 -0.234,-2.109 -0.703,-2.672 -0.469,-0.57 -1.047,-0.859 -1.735,-0.859 -0.668,0 -1.226,0.277 -1.671,0.828 -0.45,0.543 -0.672,1.402 -0.672,2.578 z"
                   style="fill:#000000;fill-opacity:1;fill-rule:nonzero;stroke:none"
                   id="path2344" />
                <path
                   d="m 295.207,217.887 c 0,-1.071 0.297,-1.864 0.891,-2.375 0.5,-0.438 1.101,-0.657 1.812,-0.657 0.801,0 1.453,0.262 1.953,0.782 0.508,0.523 0.766,1.246 0.766,2.172 0,0.742 -0.117,1.324 -0.344,1.75 -0.219,0.429 -0.543,0.761 -0.969,1 -0.429,0.226 -0.898,0.343 -1.406,0.343 -0.805,0 -1.453,-0.254 -1.953,-0.765 -0.5,-0.52 -0.75,-1.27 -0.75,-2.25 z m 1,0 c 0,0.742 0.16,1.297 0.484,1.672 0.321,0.367 0.727,0.546 1.219,0.546 0.488,0 0.895,-0.179 1.219,-0.546 0.32,-0.375 0.484,-0.942 0.484,-1.704 0,-0.718 -0.164,-1.257 -0.484,-1.625 -0.324,-0.375 -0.731,-0.562 -1.219,-0.562 -0.492,0 -0.898,0.187 -1.219,0.562 -0.324,0.368 -0.484,0.918 -0.484,1.657 z"
                   style="fill:#000000;fill-opacity:1;fill-rule:nonzero;stroke:none"
                   id="path2346" />
                <path
                   d="m 301.109,220.777 2.11,-3 -1.953,-2.781 h 1.234 l 0.891,1.359 c 0.164,0.25 0.297,0.465 0.39,0.641 0.164,-0.238 0.317,-0.453 0.453,-0.641 l 0.969,-1.359 h 1.172 l -2,2.719 2.156,3.062 h -1.203 l -1.187,-1.797 -0.313,-0.484 -1.531,2.281 z"
                   style="fill:#000000;fill-opacity:1;fill-rule:nonzero;stroke:none"
                   id="path2348" />
                <path
                   d="m 320.438,210.129 h -8.11 v -1.406 h 8.11 z m 0,3.719 h -8.11 v -1.407 h 8.11 z"
                   style="fill:#000000;fill-opacity:1;fill-rule:nonzero;stroke:none"
                   id="path2350" />
                <path
                   d="m 334.801,215.895 v 1.453 h -8.125 c -0.012,-0.364 0.047,-0.711 0.172,-1.047 0.207,-0.551 0.539,-1.094 1,-1.625 0.457,-0.539 1.113,-1.164 1.968,-1.875 1.332,-1.094 2.235,-1.957 2.704,-2.594 0.468,-0.633 0.703,-1.238 0.703,-1.812 0,-0.594 -0.215,-1.094 -0.641,-1.5 -0.43,-0.415 -0.98,-0.625 -1.656,-0.625 -0.731,0 -1.313,0.218 -1.75,0.656 -0.438,0.429 -0.656,1.027 -0.656,1.797 l -1.563,-0.157 c 0.113,-1.156 0.516,-2.035 1.203,-2.64 0.695,-0.602 1.629,-0.906 2.797,-0.906 1.176,0 2.109,0.328 2.797,0.984 0.687,0.648 1.031,1.453 1.031,2.422 0,0.492 -0.105,0.976 -0.312,1.453 -0.2,0.469 -0.532,0.969 -1,1.5 -0.461,0.523 -1.231,1.242 -2.313,2.156 -0.906,0.762 -1.492,1.277 -1.75,1.547 -0.262,0.273 -0.476,0.543 -0.64,0.813 z"
                   style="fill:#000000;fill-opacity:1;fill-rule:nonzero;stroke:none"
                   id="path2352" />
                <path
                   d="m 337.266,215.629 h 1.719 v 1.719 h -1.719 z"
                   style="fill:#000000;fill-opacity:1;fill-rule:nonzero;stroke:none"
                   id="path2354" />
                <path
                   d="m 341.188,214.129 1.578,-0.125 c 0.113,0.773 0.382,1.351 0.812,1.734 0.426,0.387 0.942,0.578 1.547,0.578 0.727,0 1.344,-0.269 1.844,-0.812 0.5,-0.551 0.75,-1.281 0.75,-2.188 0,-0.851 -0.242,-1.531 -0.719,-2.031 -0.48,-0.5 -1.117,-0.75 -1.906,-0.75 -0.481,0 -0.918,0.11 -1.313,0.328 -0.386,0.219 -0.695,0.508 -0.922,0.86 l -1.406,-0.188 1.188,-6.297 h 6.109 v 1.438 h -4.906 l -0.656,3.297 c 0.726,-0.508 1.5,-0.766 2.312,-0.766 1.07,0 1.977,0.371 2.719,1.109 0.738,0.743 1.109,1.7 1.109,2.875 0,1.106 -0.324,2.063 -0.969,2.875 -0.793,0.993 -1.871,1.485 -3.234,1.485 -1.117,0 -2.027,-0.313 -2.734,-0.938 -0.711,-0.625 -1.11,-1.453 -1.203,-2.484 z"
                   style="fill:#000000;fill-opacity:1;fill-rule:nonzero;stroke:none"
                   id="path2356" />
                <path
                   d="m 355.902,217.348 v -8.891 h 1.36 v 1.266 c 0.656,-0.977 1.597,-1.469 2.828,-1.469 0.539,0 1.035,0.101 1.484,0.297 0.446,0.187 0.781,0.437 1,0.75 0.227,0.312 0.391,0.683 0.485,1.109 0.05,0.281 0.078,0.774 0.078,1.469 v 5.469 h -1.5 v -5.407 c 0,-0.613 -0.063,-1.07 -0.188,-1.375 -0.117,-0.312 -0.324,-0.554 -0.625,-0.734 -0.293,-0.187 -0.64,-0.281 -1.047,-0.281 -0.648,0 -1.203,0.211 -1.672,0.625 -0.46,0.406 -0.687,1.179 -0.687,2.312 v 4.86 z"
                   style="fill:#000000;fill-opacity:1;fill-rule:nonzero;stroke:none"
                   id="path2358" />
                <path
                   d="m 365.441,217.348 v -8.891 h 1.36 v 1.25 c 0.281,-0.437 0.648,-0.785 1.109,-1.047 0.469,-0.269 0.992,-0.406 1.578,-0.406 0.664,0 1.207,0.137 1.625,0.406 0.426,0.274 0.723,0.652 0.891,1.141 0.707,-1.031 1.625,-1.547 2.75,-1.547 0.883,0 1.562,0.246 2.031,0.734 0.477,0.492 0.719,1.242 0.719,2.25 v 6.11 h -1.5 v -5.61 c 0,-0.601 -0.055,-1.035 -0.156,-1.297 -0.094,-0.269 -0.274,-0.484 -0.532,-0.64 -0.25,-0.164 -0.546,-0.25 -0.89,-0.25 -0.625,0 -1.149,0.211 -1.563,0.625 -0.418,0.418 -0.625,1.086 -0.625,2 v 5.172 h -1.5 v -5.782 c 0,-0.664 -0.125,-1.164 -0.375,-1.5 -0.25,-0.343 -0.652,-0.515 -1.203,-0.515 -0.43,0 -0.824,0.117 -1.187,0.344 -0.356,0.218 -0.618,0.546 -0.782,0.984 -0.156,0.43 -0.234,1.047 -0.234,1.859 v 4.61 z"
                   style="fill:#000000;fill-opacity:1;fill-rule:nonzero;stroke:none"
                   id="path2360" />
              </g>
            </g>
          </g>
        </g>
      </g>
      <g
         id="g2362">
        <g
           id="g2364"
           clip-path="url(#clipPath2368)">
          <g
             id="g2370">
            <g
               id="g2372">
              <g
                 id="g2374"
                 clip-path="url(#clipPath2378)">
                <g
                   id="g2380">
                  <path
                     d="M 317.027,42.09 V 29.809 h 2.453 l 2.907,8.703 c 0.269,0.804 0.468,1.406 0.593,1.812 0.133,-0.445 0.348,-1.101 0.641,-1.969 l 2.953,-8.546 h 2.188 V 42.09 h -1.578 V 31.809 l -3.563,10.281 h -1.469 L 318.605,31.637 V 42.09 Z"
                     style="fill:#000000;fill-opacity:1;fill-rule:nonzero;stroke:none"
                     id="path2382" />
                  <path
                     d="m 331.648,29.809 h 1.625 V 42.09 h -1.625 z"
                     style="fill:#000000;fill-opacity:1;fill-rule:nonzero;stroke:none"
                     id="path2384" />
                  <path
                     d="m 335.586,38.137 1.531,-0.125 c 0.071,0.617 0.238,1.121 0.5,1.515 0.27,0.387 0.688,0.703 1.25,0.953 0.563,0.243 1.192,0.36 1.891,0.36 0.613,0 1.156,-0.086 1.625,-0.266 0.476,-0.187 0.832,-0.441 1.062,-0.765 0.239,-0.321 0.36,-0.672 0.36,-1.047 0,-0.383 -0.117,-0.723 -0.344,-1.016 -0.219,-0.289 -0.586,-0.531 -1.094,-0.719 -0.336,-0.132 -1.07,-0.336 -2.203,-0.609 -1.125,-0.27 -1.914,-0.523 -2.359,-0.766 -0.586,-0.3 -1.024,-0.679 -1.313,-1.14 -0.293,-0.457 -0.437,-0.969 -0.437,-1.532 0,-0.613 0.175,-1.191 0.531,-1.734 0.352,-0.539 0.867,-0.945 1.547,-1.219 0.676,-0.281 1.426,-0.422 2.25,-0.422 0.906,0 1.707,0.149 2.406,0.438 0.695,0.293 1.234,0.727 1.609,1.297 0.375,0.562 0.571,1.203 0.594,1.922 l -1.547,0.125 c -0.086,-0.782 -0.371,-1.367 -0.859,-1.766 -0.481,-0.394 -1.195,-0.594 -2.141,-0.594 -0.98,0 -1.695,0.184 -2.14,0.547 -0.45,0.356 -0.672,0.789 -0.672,1.297 0,0.449 0.156,0.813 0.469,1.094 0.312,0.281 1.128,0.574 2.453,0.875 1.32,0.305 2.226,0.562 2.718,0.781 0.719,0.336 1.243,0.758 1.579,1.266 0.343,0.5 0.515,1.078 0.515,1.734 0,0.656 -0.187,1.277 -0.562,1.859 -0.375,0.575 -0.914,1.024 -1.61,1.344 -0.699,0.313 -1.492,0.469 -2.375,0.469 -1.105,0 -2.039,-0.164 -2.797,-0.484 -0.75,-0.321 -1.339,-0.805 -1.765,-1.454 -0.43,-0.656 -0.653,-1.394 -0.672,-2.218 z"
                     style="fill:#000000;fill-opacity:1;fill-rule:nonzero;stroke:none"
                     id="path2386" />
                  <path
                     d="m 350.281,45.699 c -0.836,-1.054 -1.543,-2.281 -2.125,-3.687 -0.574,-1.407 -0.859,-2.864 -0.859,-4.375 0,-1.321 0.219,-2.594 0.656,-3.813 0.5,-1.414 1.274,-2.82 2.328,-4.219 h 1.078 c -0.679,1.157 -1.125,1.985 -1.343,2.485 -0.344,0.773 -0.61,1.574 -0.797,2.406 -0.242,1.055 -0.36,2.106 -0.36,3.156 0,2.688 0.832,5.368 2.5,8.047 z"
                     style="fill:#000000;fill-opacity:1;fill-rule:nonzero;stroke:none"
                     id="path2388" />
                  <path
                     d="M 353.102,45.496 V 33.199 h 1.375 v 1.156 c 0.32,-0.457 0.687,-0.796 1.093,-1.015 0.414,-0.227 0.91,-0.344 1.485,-0.344 0.757,0 1.429,0.199 2.015,0.594 0.582,0.387 1.02,0.937 1.313,1.656 0.301,0.711 0.453,1.484 0.453,2.328 0,0.906 -0.168,1.727 -0.5,2.453 -0.324,0.731 -0.797,1.293 -1.422,1.688 -0.625,0.383 -1.281,0.578 -1.969,0.578 -0.5,0 -0.949,-0.105 -1.343,-0.313 -0.399,-0.218 -0.727,-0.488 -0.985,-0.812 v 4.328 z m 1.375,-7.797 c 0,1.137 0.226,1.981 0.687,2.531 0.469,0.555 1.031,0.829 1.688,0.829 0.664,0 1.238,-0.282 1.718,-0.844 0.477,-0.57 0.719,-1.457 0.719,-2.656 0,-1.125 -0.234,-1.969 -0.703,-2.532 -0.461,-0.57 -1.016,-0.859 -1.672,-0.859 -0.637,0 -1.203,0.305 -1.703,0.906 -0.492,0.606 -0.734,1.481 -0.734,2.625 z"
                     style="fill:#000000;fill-opacity:1;fill-rule:nonzero;stroke:none"
                     id="path2390" />
                  <path
                     d="m 363.645,45.699 h -1.094 c 1.676,-2.679 2.515,-5.359 2.515,-8.047 0,-1.05 -0.121,-2.093 -0.359,-3.125 -0.187,-0.843 -0.453,-1.648 -0.797,-2.422 -0.219,-0.5 -0.672,-1.332 -1.359,-2.5 h 1.094 c 1.039,1.399 1.816,2.805 2.328,4.219 0.425,1.219 0.64,2.492 0.64,3.813 0,1.511 -0.293,2.968 -0.875,4.375 -0.574,1.406 -1.273,2.633 -2.093,3.687 z"
                     style="fill:#000000;fill-opacity:1;fill-rule:nonzero;stroke:none"
                     id="path2392" />
                  <path
                     d="M 376.141,42.09 V 31.262 h -4.047 v -1.453 h 9.734 v 1.453 h -4.062 V 42.09 Z"
                     style="fill:#000000;fill-opacity:1;fill-rule:nonzero;stroke:none"
                     id="path2394" />
                  <path
                     d="M 383.496,42.09 V 29.809 h 4.219 c 0.957,0 1.687,0.058 2.187,0.171 0.707,0.168 1.313,0.465 1.813,0.891 0.644,0.543 1.129,1.242 1.453,2.094 0.32,0.855 0.484,1.828 0.484,2.922 0,0.929 -0.109,1.758 -0.328,2.484 -0.219,0.719 -0.5,1.313 -0.844,1.781 -0.343,0.469 -0.718,0.84 -1.125,1.11 -0.398,0.273 -0.882,0.48 -1.453,0.625 -0.574,0.136 -1.234,0.203 -1.984,0.203 z m 1.625,-1.453 h 2.625 c 0.801,0 1.43,-0.071 1.891,-0.219 0.468,-0.156 0.836,-0.367 1.109,-0.641 0.383,-0.382 0.68,-0.898 0.891,-1.547 0.218,-0.656 0.328,-1.445 0.328,-2.375 0,-1.281 -0.215,-2.265 -0.641,-2.953 -0.418,-0.695 -0.929,-1.16 -1.531,-1.39 -0.43,-0.164 -1.125,-0.25 -2.094,-0.25 h -2.578 z"
                     style="fill:#000000;fill-opacity:1;fill-rule:nonzero;stroke:none"
                     id="path2396" />
                </g>
              </g>
            </g>
          </g>
        </g>
      </g>
      <g
         id="g2398">
        <g
           id="g2400">
          <g
             id="g2402">
            <g
               id="g2404"
               clip-path="url(#clipPath2408)">
              <g
                 id="g2410">
                <path
                   d="m 98.949,188.48 v -11.14 h 7.516 v 1.312 h -6.047 v 3.453 h 5.234 v 1.313 h -5.234 v 5.062 z m 8.739,-4.031 c 0,-1.5 0.414,-2.609 1.25,-3.328 0.687,-0.594 1.531,-0.891 2.531,-0.891 1.113,0 2.019,0.368 2.719,1.094 0.707,0.719 1.062,1.719 1.062,3 0,1.043 -0.156,1.86 -0.469,2.453 -0.312,0.594 -0.765,1.059 -1.359,1.391 -0.594,0.332 -1.246,0.5 -1.953,0.5 -1.125,0 -2.039,-0.359 -2.735,-1.078 -0.699,-0.727 -1.046,-1.774 -1.046,-3.141 z m 1.406,0 c 0,1.031 0.222,1.809 0.672,2.328 0.457,0.512 1.023,0.766 1.703,0.766 0.676,0 1.238,-0.258 1.687,-0.781 0.457,-0.52 0.688,-1.305 0.688,-2.36 0,-1 -0.231,-1.754 -0.688,-2.265 -0.449,-0.52 -1.011,-0.782 -1.687,-0.782 -0.68,0 -1.246,0.262 -1.703,0.782 -0.45,0.511 -0.672,1.281 -0.672,2.312 z"
                   style="fill:#0000ff;fill-opacity:1;fill-rule:nonzero;stroke:none"
                   id="path2412" />
                <path
                   d="m 116.844,188.48 v -8.062 h 1.218 v 1.219 c 0.321,-0.571 0.614,-0.946 0.876,-1.125 0.269,-0.188 0.562,-0.282 0.874,-0.282 0.469,0 0.938,0.149 1.407,0.438 l -0.469,1.266 c -0.336,-0.196 -0.668,-0.297 -1,-0.297 -0.305,0 -0.574,0.093 -0.812,0.281 -0.231,0.18 -0.399,0.422 -0.5,0.734 -0.157,0.493 -0.235,1.028 -0.235,1.61 v 4.218 z"
                   style="fill:#0000ff;fill-opacity:1;fill-rule:nonzero;stroke:none"
                   id="path2414" />
                <path
                   d="m 123.527,188.48 -2.468,-8.062 h 1.406 l 1.297,4.656 0.468,1.735 c 0.02,-0.094 0.161,-0.649 0.422,-1.672 l 1.282,-4.719 h 1.406 l 1.203,4.672 0.406,1.547 0.469,-1.563 1.375,-4.656 h 1.328 l -2.516,8.062 h -1.421 l -1.282,-4.828 -0.312,-1.375 -1.641,6.203 z"
                   style="fill:#0000ff;fill-opacity:1;fill-rule:nonzero;stroke:none"
                   id="path2416" />
                <path
                   d="m 138.547,187.48 c -0.512,0.438 -1,0.747 -1.469,0.922 -0.469,0.176 -0.969,0.266 -1.5,0.266 -0.898,0 -1.586,-0.211 -2.062,-0.641 -0.469,-0.437 -0.704,-0.992 -0.704,-1.672 0,-0.394 0.086,-0.753 0.266,-1.078 0.188,-0.332 0.422,-0.597 0.703,-0.797 0.289,-0.195 0.617,-0.347 0.985,-0.453 0.269,-0.062 0.675,-0.129 1.218,-0.203 1.102,-0.125 1.914,-0.281 2.438,-0.469 0.008,-0.187 0.016,-0.304 0.016,-0.359 0,-0.551 -0.133,-0.941 -0.391,-1.172 -0.344,-0.312 -0.867,-0.469 -1.563,-0.469 -0.636,0 -1.109,0.118 -1.422,0.344 -0.304,0.231 -0.527,0.633 -0.671,1.203 l -1.344,-0.187 c 0.125,-0.57 0.32,-1.035 0.594,-1.391 0.281,-0.351 0.679,-0.625 1.203,-0.812 0.531,-0.188 1.144,-0.282 1.844,-0.282 0.687,0 1.242,0.086 1.671,0.25 0.438,0.157 0.754,0.36 0.953,0.61 0.208,0.242 0.352,0.547 0.438,0.922 0.039,0.242 0.062,0.664 0.062,1.265 v 1.828 c 0,1.274 0.024,2.075 0.079,2.407 0.062,0.336 0.179,0.656 0.359,0.968 h -1.438 c -0.136,-0.281 -0.226,-0.613 -0.265,-1 z m -0.125,-3.046 c -0.492,0.199 -1.234,0.371 -2.234,0.515 -0.563,0.086 -0.961,0.18 -1.188,0.281 -0.23,0.094 -0.414,0.243 -0.547,0.438 -0.125,0.199 -0.187,0.414 -0.187,0.641 0,0.367 0.132,0.671 0.406,0.921 0.281,0.243 0.687,0.36 1.219,0.36 0.531,0 1,-0.113 1.406,-0.344 0.414,-0.226 0.719,-0.547 0.906,-0.953 0.145,-0.301 0.219,-0.754 0.219,-1.359 z"
                   style="fill:#0000ff;fill-opacity:1;fill-rule:nonzero;stroke:none"
                   id="path2418" />
                <path
                   d="m 141.918,188.48 v -8.062 h 1.219 v 1.219 c 0.32,-0.571 0.613,-0.946 0.875,-1.125 0.269,-0.188 0.562,-0.282 0.875,-0.282 0.468,0 0.937,0.149 1.406,0.438 l -0.469,1.266 c -0.336,-0.196 -0.668,-0.297 -1,-0.297 -0.304,0 -0.574,0.093 -0.812,0.281 -0.231,0.18 -0.399,0.422 -0.5,0.734 -0.157,0.493 -0.235,1.028 -0.235,1.61 v 4.218 z"
                   style="fill:#0000ff;fill-opacity:1;fill-rule:nonzero;stroke:none"
                   id="path2420" />
                <path
                   d="m 152.352,188.48 v -1.015 c -0.512,0.805 -1.266,1.203 -2.266,1.203 -0.637,0 -1.227,-0.18 -1.766,-0.531 -0.543,-0.352 -0.965,-0.848 -1.265,-1.485 -0.293,-0.632 -0.438,-1.367 -0.438,-2.203 0,-0.801 0.133,-1.531 0.406,-2.187 0.27,-0.657 0.672,-1.157 1.204,-1.5 0.539,-0.352 1.14,-0.532 1.796,-0.532 0.489,0 0.922,0.106 1.297,0.313 0.383,0.199 0.696,0.465 0.938,0.797 v -4 h 1.359 v 11.14 z m -4.329,-4.031 c 0,1.031 0.219,1.809 0.657,2.328 0.437,0.512 0.953,0.766 1.547,0.766 0.593,0 1.097,-0.242 1.515,-0.734 0.414,-0.489 0.625,-1.235 0.625,-2.235 0,-1.101 -0.215,-1.914 -0.64,-2.437 -0.43,-0.52 -0.95,-0.782 -1.563,-0.782 -0.617,0 -1.125,0.25 -1.531,0.75 -0.406,0.5 -0.61,1.282 -0.61,2.344 z"
                   style="fill:#0000ff;fill-opacity:1;fill-rule:nonzero;stroke:none"
                   id="path2422" />
                <path
                   d="m 161.348,188.48 h -1.266 v -11.14 h 1.375 v 3.969 c 0.57,-0.719 1.305,-1.079 2.203,-1.079 0.5,0 0.969,0.102 1.406,0.297 0.446,0.2 0.813,0.481 1.094,0.844 0.289,0.367 0.516,0.805 0.672,1.313 0.164,0.511 0.25,1.058 0.25,1.64 0,1.387 -0.344,2.461 -1.031,3.219 -0.68,0.75 -1.496,1.125 -2.453,1.125 -0.961,0 -1.711,-0.398 -2.25,-1.203 z m -0.016,-4.093 c 0,0.968 0.133,1.668 0.406,2.093 0.426,0.711 1.008,1.063 1.75,1.063 0.594,0 1.11,-0.258 1.547,-0.781 0.438,-0.52 0.656,-1.297 0.656,-2.328 0,-1.051 -0.214,-1.829 -0.64,-2.329 -0.418,-0.5 -0.922,-0.75 -1.516,-0.75 -0.594,0 -1.109,0.262 -1.547,0.782 -0.437,0.523 -0.656,1.273 -0.656,2.25 z"
                   style="fill:#0000ff;fill-opacity:1;fill-rule:nonzero;stroke:none"
                   id="path2424" />
                <path
                   d="m 168.75,178.918 v -1.578 h 1.375 v 1.578 z m 0,9.562 v -8.062 h 1.375 v 8.062 z"
                   style="fill:#0000ff;fill-opacity:1;fill-rule:nonzero;stroke:none"
                   id="path2426" />
                <path
                   d="m 177.477,187.48 c -0.512,0.438 -1,0.747 -1.469,0.922 -0.469,0.176 -0.969,0.266 -1.5,0.266 -0.899,0 -1.586,-0.211 -2.063,-0.641 -0.468,-0.437 -0.703,-0.992 -0.703,-1.672 0,-0.394 0.086,-0.753 0.266,-1.078 0.187,-0.332 0.422,-0.597 0.703,-0.797 0.289,-0.195 0.617,-0.347 0.984,-0.453 0.27,-0.062 0.676,-0.129 1.219,-0.203 1.102,-0.125 1.914,-0.281 2.438,-0.469 0.007,-0.187 0.015,-0.304 0.015,-0.359 0,-0.551 -0.133,-0.941 -0.39,-1.172 -0.344,-0.312 -0.868,-0.469 -1.563,-0.469 -0.637,0 -1.109,0.118 -1.422,0.344 -0.304,0.231 -0.527,0.633 -0.672,1.203 l -1.343,-0.187 c 0.125,-0.57 0.32,-1.035 0.593,-1.391 0.282,-0.351 0.68,-0.625 1.203,-0.812 0.532,-0.188 1.145,-0.282 1.844,-0.282 0.688,0 1.242,0.086 1.672,0.25 0.438,0.157 0.754,0.36 0.953,0.61 0.207,0.242 0.352,0.547 0.438,0.922 0.039,0.242 0.062,0.664 0.062,1.265 v 1.828 c 0,1.274 0.024,2.075 0.078,2.407 0.063,0.336 0.18,0.656 0.36,0.968 h -1.438 c -0.137,-0.281 -0.226,-0.613 -0.265,-1 z m -0.125,-3.046 c -0.493,0.199 -1.235,0.371 -2.235,0.515 -0.562,0.086 -0.961,0.18 -1.187,0.281 -0.231,0.094 -0.414,0.243 -0.547,0.438 -0.125,0.199 -0.188,0.414 -0.188,0.641 0,0.367 0.133,0.671 0.407,0.921 0.281,0.243 0.687,0.36 1.218,0.36 0.532,0 1,-0.113 1.407,-0.344 0.414,-0.226 0.718,-0.547 0.906,-0.953 0.144,-0.301 0.219,-0.754 0.219,-1.359 z"
                   style="fill:#0000ff;fill-opacity:1;fill-rule:nonzero;stroke:none"
                   id="path2428" />
                <path
                   d="m 180.316,186.074 1.344,-0.219 c 0.082,0.543 0.297,0.961 0.641,1.25 0.344,0.293 0.828,0.438 1.453,0.438 0.625,0 1.086,-0.125 1.391,-0.375 0.312,-0.258 0.468,-0.563 0.468,-0.906 0,-0.313 -0.136,-0.555 -0.406,-0.735 -0.187,-0.125 -0.656,-0.281 -1.406,-0.468 -1,-0.25 -1.696,-0.469 -2.078,-0.657 -0.387,-0.187 -0.684,-0.441 -0.891,-0.765 -0.199,-0.321 -0.297,-0.68 -0.297,-1.078 0,-0.364 0.082,-0.696 0.25,-1 0.164,-0.313 0.391,-0.567 0.672,-0.766 0.219,-0.156 0.508,-0.285 0.875,-0.391 0.363,-0.113 0.754,-0.172 1.172,-0.172 0.633,0 1.191,0.094 1.672,0.282 0.476,0.179 0.832,0.422 1.062,0.734 0.227,0.313 0.383,0.731 0.469,1.25 l -1.328,0.172 c -0.063,-0.406 -0.242,-0.723 -0.531,-0.953 -0.293,-0.238 -0.703,-0.36 -1.235,-0.36 -0.636,0 -1.09,0.106 -1.359,0.313 -0.262,0.211 -0.391,0.449 -0.391,0.719 0,0.179 0.055,0.34 0.172,0.484 0.102,0.149 0.274,0.266 0.516,0.359 0.133,0.055 0.535,0.172 1.203,0.36 0.969,0.262 1.644,0.476 2.031,0.64 0.383,0.157 0.688,0.399 0.906,0.719 0.219,0.313 0.329,0.699 0.329,1.156 0,0.461 -0.137,0.891 -0.407,1.297 -0.261,0.399 -0.648,0.711 -1.156,0.938 -0.5,0.219 -1.07,0.328 -1.703,0.328 -1.043,0 -1.84,-0.219 -2.391,-0.656 -0.554,-0.438 -0.902,-1.082 -1.047,-1.938 z"
                   style="fill:#0000ff;fill-opacity:1;fill-rule:nonzero;stroke:none"
                   id="path2430" />
                <path
                   d="m 192.953,188.48 v -8.062 h 1.219 v 1.219 c 0.32,-0.571 0.613,-0.946 0.875,-1.125 0.269,-0.188 0.562,-0.282 0.875,-0.282 0.469,0 0.937,0.149 1.406,0.438 l -0.469,1.266 c -0.336,-0.196 -0.668,-0.297 -1,-0.297 -0.304,0 -0.574,0.093 -0.812,0.281 -0.231,0.18 -0.399,0.422 -0.5,0.734 -0.156,0.493 -0.235,1.028 -0.235,1.61 v 4.218 z"
                   style="fill:#0000ff;fill-opacity:1;fill-rule:nonzero;stroke:none"
                   id="path2432" />
                <path
                   d="m 203.668,185.887 1.422,0.172 c -0.231,0.824 -0.649,1.464 -1.25,1.921 -0.594,0.461 -1.36,0.688 -2.297,0.688 -1.188,0 -2.133,-0.363 -2.828,-1.094 -0.688,-0.726 -1.031,-1.75 -1.031,-3.062 0,-1.352 0.347,-2.407 1.046,-3.157 0.708,-0.75 1.618,-1.125 2.735,-1.125 1.07,0 1.953,0.372 2.64,1.11 0.688,0.73 1.032,1.762 1.032,3.094 0,0.086 -0.008,0.203 -0.016,0.359 h -6.016 c 0.051,0.887 0.301,1.57 0.75,2.047 0.446,0.469 1.008,0.703 1.688,0.703 0.5,0 0.926,-0.129 1.281,-0.391 0.352,-0.269 0.633,-0.691 0.844,-1.265 z m -4.484,-2.219 h 4.5 c -0.063,-0.676 -0.235,-1.188 -0.516,-1.531 -0.438,-0.52 -1,-0.782 -1.688,-0.782 -0.636,0 -1.168,0.215 -1.593,0.641 -0.43,0.418 -0.664,0.977 -0.703,1.672 z"
                   style="fill:#0000ff;fill-opacity:1;fill-rule:nonzero;stroke:none"
                   id="path2434" />
                <path
                   d="m 206.559,189.152 1.328,0.188 c 0.051,0.414 0.203,0.719 0.453,0.906 0.344,0.25 0.805,0.375 1.39,0.375 0.633,0 1.125,-0.125 1.469,-0.375 0.344,-0.25 0.578,-0.605 0.703,-1.062 0.071,-0.282 0.102,-0.868 0.094,-1.766 -0.594,0.711 -1.34,1.062 -2.234,1.062 -1.106,0 -1.965,-0.398 -2.578,-1.203 -0.606,-0.8 -0.907,-1.757 -0.907,-2.875 0,-0.769 0.141,-1.476 0.422,-2.125 0.281,-0.656 0.68,-1.16 1.203,-1.515 0.532,-0.352 1.157,-0.532 1.875,-0.532 0.946,0 1.735,0.387 2.36,1.157 v -0.969 h 1.25 v 6.969 c 0,1.258 -0.133,2.148 -0.391,2.672 -0.25,0.519 -0.652,0.929 -1.203,1.234 -0.555,0.312 -1.234,0.469 -2.047,0.469 -0.969,0 -1.75,-0.219 -2.344,-0.657 -0.586,-0.437 -0.867,-1.089 -0.843,-1.953 z m 1.125,-4.843 c 0,1.054 0.207,1.824 0.625,2.312 0.425,0.492 0.957,0.734 1.593,0.734 0.625,0 1.149,-0.238 1.578,-0.718 0.426,-0.489 0.641,-1.254 0.641,-2.297 0,-0.977 -0.226,-1.719 -0.672,-2.219 -0.437,-0.508 -0.965,-0.766 -1.578,-0.766 -0.605,0 -1.121,0.25 -1.547,0.75 -0.429,0.493 -0.64,1.227 -0.64,2.204 z"
                   style="fill:#0000ff;fill-opacity:1;fill-rule:nonzero;stroke:none"
                   id="path2436" />
                <path
                   d="m 215.461,178.918 v -1.578 h 1.375 v 1.578 z m 0,9.562 v -8.062 h 1.375 v 8.062 z"
                   style="fill:#0000ff;fill-opacity:1;fill-rule:nonzero;stroke:none"
                   id="path2438" />
                <path
                   d="m 218.402,184.449 c 0,-1.5 0.414,-2.609 1.25,-3.328 0.688,-0.594 1.532,-0.891 2.532,-0.891 1.113,0 2.019,0.368 2.718,1.094 0.707,0.719 1.063,1.719 1.063,3 0,1.043 -0.156,1.86 -0.469,2.453 -0.312,0.594 -0.766,1.059 -1.359,1.391 -0.594,0.332 -1.246,0.5 -1.953,0.5 -1.125,0 -2.039,-0.359 -2.735,-1.078 -0.699,-0.727 -1.047,-1.774 -1.047,-3.141 z m 1.407,0 c 0,1.031 0.222,1.809 0.671,2.328 0.458,0.512 1.024,0.766 1.704,0.766 0.675,0 1.238,-0.258 1.687,-0.781 0.457,-0.52 0.688,-1.305 0.688,-2.36 0,-1 -0.231,-1.754 -0.688,-2.265 -0.449,-0.52 -1.012,-0.782 -1.687,-0.782 -0.68,0 -1.246,0.262 -1.704,0.782 -0.449,0.511 -0.671,1.281 -0.671,2.312 z"
                   style="fill:#0000ff;fill-opacity:1;fill-rule:nonzero;stroke:none"
                   id="path2440" />
                <path
                   d="m 227.574,188.48 v -8.062 h 1.219 v 1.141 c 0.594,-0.883 1.453,-1.329 2.578,-1.329 0.488,0 0.938,0.09 1.344,0.266 0.406,0.168 0.707,0.399 0.906,0.688 0.207,0.281 0.348,0.617 0.422,1 0.051,0.261 0.078,0.703 0.078,1.328 v 4.968 h -1.359 v -4.906 c 0,-0.562 -0.059,-0.976 -0.172,-1.25 -0.106,-0.281 -0.293,-0.5 -0.563,-0.656 -0.273,-0.164 -0.589,-0.25 -0.953,-0.25 -0.586,0 -1.09,0.187 -1.515,0.562 -0.418,0.368 -0.625,1.063 -0.625,2.094 v 4.406 z"
                   style="fill:#0000ff;fill-opacity:1;fill-rule:nonzero;stroke:none"
                   id="path2442" />
              </g>
            </g>
          </g>
        </g>
      </g>
    </g>
  </g>
</svg>
