<?xml version="1.0" encoding="UTF-8" standalone="no"?>
<!-- Created with Inkscape (http://www.inkscape.org/) -->

<svg
   width="206.9084mm"
   height="142.09824mm"
   viewBox="0 0 206.9084 142.09824"
   version="1.1"
   id="svg3592"
   inkscape:version="1.1.1 (3bf5ae0d25, 2021-09-20)"
   sodipodi:docname="TrenchMIS_v2.svg"
   xmlns:inkscape="http://www.inkscape.org/namespaces/inkscape"
   xmlns:sodipodi="http://sodipodi.sourceforge.net/DTD/sodipodi-0.dtd"
   xmlns="http://www.w3.org/2000/svg"
   xmlns:svg="http://www.w3.org/2000/svg">
  <sodipodi:namedview
     id="namedview3594"
     pagecolor="#ffffff"
     bordercolor="#999999"
     borderopacity="1"
     inkscape:pageshadow="0"
     inkscape:pageopacity="0"
     inkscape:pagecheckerboard="0"
     inkscape:document-units="mm"
     showgrid="false"
     fit-margin-top="0"
     fit-margin-left="0"
     fit-margin-right="0"
     fit-margin-bottom="0"
     inkscape:zoom="0.72604517"
     inkscape:cx="722.40684"
     inkscape:cy="315.40737"
     inkscape:window-width="1920"
     inkscape:window-height="1001"
     inkscape:window-x="-9"
     inkscape:window-y="-9"
     inkscape:window-maximized="1"
     inkscape:current-layer="layer1" />
  <defs
     id="defs3589">
    <clipPath
       clipPathUnits="userSpaceOnUse"
       id="clipPath3956">
      <path
         d="M 116.656,207.941 H 344.035 V 403 H 116.656 Z"
         id="path3954" />
    </clipPath>
    <clipPath
       clipPathUnits="userSpaceOnUse"
       id="clipPath3966">
      <path
         d="M 0,0 H 587 V 403 H 0 Z"
         id="path3964" />
    </clipPath>
    <clipPath
       clipPathUnits="userSpaceOnUse"
       id="clipPath3984">
      <path
         d="M 0,0 H 587 V 403 H 0 Z"
         id="path3982" />
    </clipPath>
    <clipPath
       clipPathUnits="userSpaceOnUse"
       id="clipPath4006">
      <path
         d="M 0,0 H 587 V 403 H 0 Z"
         id="path4004" />
    </clipPath>
    <clipPath
       clipPathUnits="userSpaceOnUse"
       id="clipPath4038">
      <path
         d="M 0,0 H 587 V 403 H 0 Z"
         id="path4036" />
    </clipPath>
    <clipPath
       clipPathUnits="userSpaceOnUse"
       id="clipPath4086">
      <path
         d="M 0,0 H 587 V 403 H 0 Z"
         id="path4084" />
    </clipPath>
  </defs>
  <g
     inkscape:label="圖層 1"
     inkscape:groupmode="layer"
     id="layer1"
     transform="translate(-36.481999,-65.242905)">
    <g
       id="g3778"
       inkscape:label="TrenchMIS"
       transform="matrix(0.35277777,0,0,0.35277777,36.472474,65.243309)">
      <g
         id="g3780">
        <path
           d="M 6.621,117.98 V 100.309 H 0.027 v -2.36 h 15.875 v 2.36 H 9.277 v 17.671 z"
           style="fill:#000000;fill-opacity:1;fill-rule:nonzero;stroke:none"
           id="path3782" />
        <path
           d="m 14.285,110.73 c 0,-2.687 0.75,-4.679 2.25,-5.984 1.25,-1.07 2.77,-1.609 4.563,-1.609 1.988,0 3.617,0.656 4.89,1.968 1.27,1.305 1.907,3.11 1.907,5.422 0,1.868 -0.282,3.336 -0.844,4.407 -0.563,1.062 -1.383,1.89 -2.453,2.484 -1.063,0.594 -2.231,0.891 -3.5,0.891 -2.032,0 -3.68,-0.649 -4.938,-1.954 -1.25,-1.3 -1.875,-3.175 -1.875,-5.625 z m 2.531,0 c 0,1.856 0.407,3.247 1.219,4.172 0.813,0.93 1.832,1.391 3.063,1.391 1.218,0 2.234,-0.461 3.047,-1.391 0.812,-0.937 1.218,-2.359 1.218,-4.265 0,-1.789 -0.414,-3.145 -1.234,-4.063 -0.813,-0.926 -1.824,-1.39 -3.031,-1.39 -1.231,0 -2.25,0.461 -3.063,1.375 -0.812,0.918 -1.219,2.308 -1.219,4.171 z"
           style="fill:#000000;fill-opacity:1;fill-rule:nonzero;stroke:none"
           id="path3784" />
        <path
           d="m 30.77,123.543 v -20.078 h 2.234 v 1.89 c 0.531,-0.738 1.129,-1.289 1.797,-1.656 0.664,-0.375 1.472,-0.562 2.422,-0.562 1.238,0 2.332,0.324 3.281,0.968 0.945,0.637 1.66,1.54 2.141,2.704 0.476,1.156 0.718,2.429 0.718,3.812 0,1.481 -0.265,2.813 -0.797,4 -0.531,1.188 -1.308,2.102 -2.328,2.734 -1.011,0.633 -2.078,0.954 -3.203,0.954 -0.812,0 -1.547,-0.172 -2.203,-0.516 -0.648,-0.344 -1.184,-0.781 -1.609,-1.313 v 7.063 z m 2.234,-12.734 c 0,1.867 0.375,3.246 1.125,4.14 0.758,0.899 1.676,1.344 2.75,1.344 1.094,0 2.023,-0.461 2.797,-1.391 0.781,-0.925 1.172,-2.359 1.172,-4.297 0,-1.851 -0.383,-3.238 -1.141,-4.156 -0.762,-0.914 -1.668,-1.375 -2.719,-1.375 -1.054,0 -1.98,0.492 -2.781,1.469 -0.805,0.98 -1.203,2.402 -1.203,4.266 z"
           style="fill:#000000;fill-opacity:1;fill-rule:nonzero;stroke:none"
           id="path3786" />
        <path
           d="m 58.141,117.98 -5.516,-14.515 h 2.594 l 3.109,8.687 c 0.344,0.95 0.656,1.93 0.938,2.938 0.218,-0.77 0.519,-1.692 0.906,-2.766 l 3.234,-8.859 h 2.532 l -5.5,14.515 z"
           style="fill:#000000;fill-opacity:1;fill-rule:nonzero;stroke:none"
           id="path3788" />
        <path
           d="m 68.117,100.777 v -2.828 h 2.453 v 2.828 z m 0,17.203 v -14.515 h 2.453 v 14.515 z"
           style="fill:#000000;fill-opacity:1;fill-rule:nonzero;stroke:none"
           id="path3790" />
        <path
           d="m 84.254,113.309 2.531,0.312 c -0.398,1.492 -1.137,2.649 -2.219,3.469 -1.086,0.812 -2.468,1.219 -4.156,1.219 -2.125,0 -3.808,-0.649 -5.047,-1.954 -1.242,-1.312 -1.859,-3.144 -1.859,-5.5 0,-2.445 0.625,-4.343 1.875,-5.687 1.258,-1.352 2.891,-2.031 4.891,-2.031 1.945,0 3.535,0.664 4.765,1.984 1.227,1.324 1.844,3.184 1.844,5.578 0,0.149 -0.008,0.367 -0.016,0.656 H 76.035 c 0.094,1.594 0.547,2.821 1.36,3.672 0.812,0.844 1.82,1.266 3.031,1.266 0.906,0 1.676,-0.234 2.312,-0.703 0.633,-0.477 1.141,-1.238 1.516,-2.281 z m -8.078,-3.985 h 8.109 c -0.117,-1.219 -0.43,-2.129 -0.937,-2.734 -0.782,-0.945 -1.797,-1.422 -3.047,-1.422 -1.125,0 -2.074,0.383 -2.844,1.141 -0.773,0.75 -1.199,1.757 -1.281,3.015 z"
           style="fill:#000000;fill-opacity:1;fill-rule:nonzero;stroke:none"
           id="path3792" />
        <path
           d="m 92.555,117.98 -4.438,-14.515 h 2.547 l 2.313,8.375 0.859,3.125 c 0.031,-0.156 0.281,-1.156 0.75,-3 l 2.312,-8.5 h 2.516 l 2.188,8.422 0.718,2.765 3.313,-11.187 h 2.39 l -4.531,14.515 h -2.547 l -2.312,-8.687 -0.563,-2.469 -2.937,11.156 z"
           style="fill:#000000;fill-opacity:1;fill-rule:nonzero;stroke:none"
           id="path3794" />
        <g
           id="g3796">
          <path
             d="M 166.102,1.16 H 299.649 V 37.469 H 166.102 Z"
             style="fill:none;stroke:#000000;stroke-width:2.2959;stroke-linecap:butt;stroke-linejoin:round;stroke-miterlimit:4;stroke-dasharray:none;stroke-opacity:1"
             id="path3798" />
        </g>
        <path
           d="M 173.379,28.234 V 11.047 h 5.562 c 2.114,0 3.489,0.09 4.125,0.265 0.989,0.262 1.813,0.825 2.469,1.688 0.664,0.855 1,1.969 1,3.344 0,1.054 -0.195,1.937 -0.578,2.656 -0.375,0.719 -0.859,1.289 -1.453,1.703 -0.594,0.406 -1.195,0.672 -1.797,0.797 -0.836,0.168 -2.031,0.25 -3.594,0.25 h -2.265 v 6.484 z m 3.469,-14.281 v 4.875 h 1.89 c 1.375,0 2.289,-0.086 2.75,-0.266 0.457,-0.175 0.817,-0.457 1.078,-0.843 0.258,-0.383 0.391,-0.828 0.391,-1.328 0,-0.625 -0.184,-1.141 -0.547,-1.547 -0.367,-0.406 -0.828,-0.66 -1.39,-0.766 -0.418,-0.082 -1.25,-0.125 -2.5,-0.125 z"
           style="fill:#000000;fill-opacity:1;fill-rule:nonzero;stroke:none"
           id="path3800" />
        <path
           d="m 189.355,11.047 h 3.297 v 17.188 h -3.297 z"
           style="fill:#000000;fill-opacity:1;fill-rule:nonzero;stroke:none"
           id="path3802" />
        <path
           d="m 198.492,19.578 -2.984,-0.531 c 0.332,-1.207 0.906,-2.098 1.719,-2.672 0.82,-0.582 2.046,-0.875 3.671,-0.875 1.469,0 2.563,0.18 3.282,0.531 0.718,0.344 1.222,0.789 1.515,1.328 0.289,0.532 0.438,1.512 0.438,2.938 l -0.031,3.844 c 0,1.093 0.05,1.902 0.156,2.421 0.101,0.524 0.301,1.079 0.594,1.672 h -3.266 c -0.086,-0.218 -0.188,-0.539 -0.313,-0.968 -0.054,-0.196 -0.093,-0.328 -0.125,-0.391 -0.562,0.543 -1.168,0.953 -1.812,1.234 -0.637,0.27 -1.313,0.407 -2.031,0.407 -1.282,0 -2.293,-0.348 -3.032,-1.047 -0.742,-0.696 -1.109,-1.578 -1.109,-2.641 0,-0.695 0.164,-1.32 0.5,-1.875 0.332,-0.551 0.801,-0.973 1.406,-1.265 0.614,-0.29 1.489,-0.547 2.625,-0.766 1.539,-0.289 2.61,-0.563 3.203,-0.813 v -0.328 c 0,-0.633 -0.156,-1.082 -0.468,-1.343 -0.313,-0.27 -0.903,-0.407 -1.766,-0.407 -0.594,0 -1.059,0.117 -1.391,0.344 -0.324,0.23 -0.585,0.633 -0.781,1.203 z m 4.406,2.672 c -0.429,0.148 -1.101,0.32 -2.015,0.516 -0.906,0.187 -1.5,0.375 -1.781,0.562 -0.43,0.313 -0.641,0.703 -0.641,1.172 0,0.461 0.172,0.855 0.516,1.188 0.343,0.335 0.781,0.5 1.312,0.5 0.594,0 1.156,-0.192 1.688,-0.579 0.406,-0.3 0.671,-0.664 0.796,-1.093 0.082,-0.282 0.125,-0.817 0.125,-1.61 z"
           style="fill:#000000;fill-opacity:1;fill-rule:nonzero;stroke:none"
           id="path3804" />
        <path
           d="m 220.699,28.234 h -3.297 v -6.359 c 0,-1.344 -0.074,-2.207 -0.218,-2.594 -0.137,-0.394 -0.368,-0.703 -0.688,-0.922 -0.312,-0.218 -0.687,-0.328 -1.125,-0.328 -0.574,0 -1.09,0.157 -1.547,0.469 -0.449,0.312 -0.758,0.73 -0.922,1.25 -0.168,0.512 -0.25,1.461 -0.25,2.844 v 5.64 h -3.297 V 15.781 h 3.063 v 1.828 c 1.082,-1.406 2.445,-2.109 4.094,-2.109 0.726,0 1.39,0.137 1.984,0.406 0.602,0.262 1.063,0.594 1.375,1 0.313,0.406 0.524,0.871 0.641,1.391 0.125,0.512 0.187,1.246 0.187,2.203 z"
           style="fill:#000000;fill-opacity:1;fill-rule:nonzero;stroke:none"
           id="path3806" />
        <path
           d="m 226.5,19.578 -2.984,-0.531 c 0.332,-1.207 0.906,-2.098 1.718,-2.672 0.821,-0.582 2.047,-0.875 3.672,-0.875 1.469,0 2.563,0.18 3.282,0.531 0.718,0.344 1.222,0.789 1.515,1.328 0.289,0.532 0.438,1.512 0.438,2.938 l -0.032,3.844 c 0,1.093 0.051,1.902 0.157,2.421 0.101,0.524 0.3,1.079 0.593,1.672 h -3.265 c -0.086,-0.218 -0.188,-0.539 -0.313,-0.968 -0.054,-0.196 -0.093,-0.328 -0.125,-0.391 -0.562,0.543 -1.168,0.953 -1.812,1.234 -0.637,0.27 -1.313,0.407 -2.032,0.407 -1.281,0 -2.292,-0.348 -3.031,-1.047 -0.742,-0.696 -1.109,-1.578 -1.109,-2.641 0,-0.695 0.164,-1.32 0.5,-1.875 0.332,-0.551 0.801,-0.973 1.406,-1.265 0.613,-0.29 1.488,-0.547 2.625,-0.766 1.539,-0.289 2.609,-0.563 3.203,-0.813 v -0.328 c 0,-0.633 -0.156,-1.082 -0.468,-1.343 -0.313,-0.27 -0.903,-0.407 -1.766,-0.407 -0.594,0 -1.059,0.117 -1.391,0.344 -0.324,0.23 -0.586,0.633 -0.781,1.203 z m 4.406,2.672 c -0.429,0.148 -1.101,0.32 -2.015,0.516 -0.907,0.187 -1.5,0.375 -1.782,0.562 -0.429,0.313 -0.64,0.703 -0.64,1.172 0,0.461 0.172,0.855 0.515,1.188 0.344,0.335 0.782,0.5 1.313,0.5 0.594,0 1.156,-0.192 1.687,-0.579 0.407,-0.3 0.672,-0.664 0.797,-1.093 0.082,-0.282 0.125,-0.817 0.125,-1.61 z"
           style="fill:#000000;fill-opacity:1;fill-rule:nonzero;stroke:none"
           id="path3808" />
        <path
           d="m 240.535,28.234 h -3.297 V 15.781 h 3.063 v 1.781 c 0.519,-0.843 0.988,-1.394 1.406,-1.656 0.426,-0.269 0.906,-0.406 1.438,-0.406 0.75,0 1.468,0.211 2.156,0.625 L 244.285,19 c -0.555,-0.363 -1.07,-0.547 -1.547,-0.547 -0.461,0 -0.851,0.133 -1.172,0.391 -0.324,0.25 -0.578,0.711 -0.765,1.375 -0.18,0.668 -0.266,2.058 -0.266,4.172 z"
           style="fill:#000000;fill-opacity:1;fill-rule:nonzero;stroke:none"
           id="path3810" />
        <path
           d="M 253.371,28.234 V 11.047 h 5.188 l 3.125,11.719 3.078,-11.719 h 5.203 v 17.187 h -3.219 V 14.703 l -3.422,13.531 h -3.328 L 256.59,14.703 v 13.531 z"
           style="fill:#000000;fill-opacity:1;fill-rule:nonzero;stroke:none"
           id="path3812" />
        <path
           d="m 273.301,11.047 h 3.469 v 17.188 h -3.469 z"
           style="fill:#000000;fill-opacity:1;fill-rule:nonzero;stroke:none"
           id="path3814" />
        <path
           d="m 279.203,22.641 3.375,-0.329 c 0.195,1.137 0.602,1.969 1.219,2.5 0.625,0.532 1.469,0.797 2.531,0.797 1.113,0 1.953,-0.234 2.516,-0.703 0.57,-0.476 0.859,-1.035 0.859,-1.672 0,-0.406 -0.121,-0.75 -0.359,-1.031 -0.242,-0.281 -0.656,-0.531 -1.25,-0.75 -0.406,-0.133 -1.336,-0.383 -2.782,-0.75 -1.855,-0.457 -3.156,-1.019 -3.906,-1.687 -1.062,-0.946 -1.594,-2.102 -1.594,-3.469 0,-0.875 0.25,-1.692 0.75,-2.453 0.5,-0.758 1.211,-1.336 2.141,-1.735 0.938,-0.394 2.067,-0.593 3.391,-0.593 2.156,0 3.773,0.476 4.859,1.422 1.094,0.937 1.664,2.199 1.719,3.781 l -3.469,0.14 c -0.148,-0.875 -0.465,-1.504 -0.953,-1.89 -0.492,-0.395 -1.227,-0.594 -2.203,-0.594 -1,0 -1.789,0.211 -2.359,0.625 -0.368,0.273 -0.547,0.625 -0.547,1.062 0,0.407 0.171,0.758 0.515,1.047 0.438,0.368 1.5,0.75 3.188,1.157 1.687,0.398 2.929,0.808 3.734,1.234 0.813,0.43 1.445,1.012 1.906,1.75 0.457,0.73 0.688,1.641 0.688,2.734 0,0.981 -0.277,1.903 -0.828,2.766 -0.543,0.855 -1.313,1.496 -2.313,1.922 -1,0.414 -2.25,0.625 -3.75,0.625 -2.168,0 -3.836,-0.5 -5,-1.5 -1.168,-1.008 -1.859,-2.477 -2.078,-4.406 z"
           style="fill:#000000;fill-opacity:1;fill-rule:nonzero;stroke:none"
           id="path3816" />
        <path
           d="M 165.434,63.539 H 298.547 V 196.652 H 165.434 Z"
           style="fill:#9dc3e6;fill-opacity:1;fill-rule:evenodd;stroke:none"
           id="path3818" />
        <g
           id="g3820">
          <path
             d="M 165.434,63.539 H 298.547 V 196.652 H 165.434 Z"
             style="fill:none;stroke:#000000;stroke-width:1.08641;stroke-linecap:butt;stroke-linejoin:round;stroke-miterlimit:4;stroke-dasharray:none;stroke-opacity:1"
             id="path3822" />
        </g>
        <path
           d="m 180.074,129.438 c 0,-28.52 23.125,-51.645 51.633,-51.645 28.516,0 51.629,23.125 51.629,51.645 0,28.531 -23.113,51.64 -51.629,51.64 -28.508,0 -51.633,-23.109 -51.633,-51.64 z"
           style="fill:#d9d9d9;fill-opacity:1;fill-rule:evenodd;stroke:none"
           id="path3824" />
        <g
           id="g3826">
          <path
             d="m 180.074,129.438 c 0,-28.52 23.125,-51.645 51.633,-51.645 28.516,0 51.629,23.125 51.629,51.645 0,28.531 -23.113,51.64 -51.629,51.64 -28.508,0 -51.633,-23.109 -51.633,-51.64"
             style="fill:none;stroke:#000000;stroke-width:1.08641;stroke-linecap:butt;stroke-linejoin:round;stroke-miterlimit:4;stroke-dasharray:none;stroke-opacity:1"
             id="path3828" />
        </g>
        <g
           id="g3830">
          <path
             d="m 232.984,128.805 h 49.082 v 1.293 h -49.082 z m 4.852,4.226 -6.129,-3.582 6.129,-3.57 c 0.309,-0.18 0.711,-0.078 0.891,0.234 0.183,0.309 0.078,0.699 -0.231,0.879 l -5.176,3.028 v -1.125 l 5.176,3.023 c 0.309,0.184 0.414,0.57 0.231,0.883 -0.18,0.308 -0.582,0.414 -0.891,0.23 z m 39.383,-7.152 6.129,3.57 -6.129,3.582 c -0.297,0.184 -0.699,0.078 -0.879,-0.23 -0.184,-0.313 -0.078,-0.699 0.23,-0.883 l 5.176,-3.023 v 1.125 l -5.176,-3.028 c -0.308,-0.18 -0.414,-0.57 -0.23,-0.879 0.18,-0.312 0.582,-0.414 0.879,-0.234 z"
             style="fill:#000000;fill-opacity:1;fill-rule:nonzero;stroke:#000000;stroke-width:0.0129334;stroke-linecap:butt;stroke-linejoin:round;stroke-miterlimit:4;stroke-dasharray:none;stroke-opacity:1"
             id="path3832" />
        </g>
        <path
           d="m 229.676,124.41 h -1.516 v -9.672 c -0.375,0.356 -0.859,0.703 -1.453,1.047 -0.586,0.344 -1.117,0.606 -1.594,0.781 v -1.468 c 0.852,-0.395 1.598,-0.875 2.235,-1.438 0.632,-0.57 1.082,-1.125 1.343,-1.656 h 0.985 z"
           style="fill:#000000;fill-opacity:1;fill-rule:nonzero;stroke:none"
           id="path3834" />
        <path
           d="m 233.648,113.676 v -1.469 h 8 v 1.188 c -0.781,0.835 -1.562,1.949 -2.343,3.343 -0.774,1.387 -1.367,2.813 -1.782,4.282 -0.304,1.031 -0.496,2.164 -0.578,3.39 h -1.562 c 0.019,-0.969 0.211,-2.14 0.578,-3.515 0.363,-1.383 0.883,-2.711 1.562,-3.985 0.688,-1.281 1.415,-2.359 2.188,-3.234 z"
           style="fill:#000000;fill-opacity:1;fill-rule:nonzero;stroke:none"
           id="path3836" />
        <path
           d="m 243.152,118.316 c 0,-1.457 0.149,-2.628 0.453,-3.515 0.301,-0.895 0.743,-1.582 1.329,-2.063 0.593,-0.488 1.343,-0.734 2.25,-0.734 0.656,0 1.234,0.137 1.734,0.406 0.5,0.262 0.91,0.649 1.234,1.156 0.332,0.5 0.594,1.11 0.782,1.829 0.187,0.718 0.281,1.695 0.281,2.921 0,1.45 -0.153,2.622 -0.453,3.516 -0.305,0.887 -0.75,1.574 -1.344,2.063 -0.586,0.48 -1.328,0.718 -2.234,0.718 -1.2,0 -2.137,-0.425 -2.813,-1.281 -0.812,-1.02 -1.219,-2.691 -1.219,-5.016 z m 1.563,0 c 0,2.032 0.234,3.387 0.703,4.063 0.477,0.668 1.066,1 1.766,1 0.695,0 1.281,-0.336 1.75,-1.016 0.476,-0.675 0.718,-2.023 0.718,-4.047 0,-2.031 -0.242,-3.378 -0.718,-4.046 -0.469,-0.676 -1.059,-1.016 -1.766,-1.016 -0.699,0 -1.258,0.297 -1.672,0.891 -0.523,0.75 -0.781,2.14 -0.781,4.171 z"
           style="fill:#000000;fill-opacity:1;fill-rule:nonzero;stroke:none"
           id="path3838" />
        <path
           d="m 265.406,115.457 v 8.953 h -1.359 v -1.062 c -0.293,0.449 -0.578,0.757 -0.859,0.922 -0.399,0.226 -0.856,0.343 -1.376,0.343 -0.468,0 -0.882,-0.09 -1.234,-0.265 -0.273,-0.145 -0.574,-0.426 -0.906,-0.844 v 4.344 h -1.5 v -12.391 h 1.5 v 3.797 c 0,1.375 0.07,2.266 0.219,2.672 0.144,0.406 0.382,0.73 0.718,0.969 0.332,0.242 0.711,0.359 1.141,0.359 0.445,0 0.848,-0.125 1.203,-0.375 0.352,-0.25 0.602,-0.567 0.75,-0.953 0.145,-0.395 0.219,-1.281 0.219,-2.656 v -3.813 z"
           style="fill:#000000;fill-opacity:1;fill-rule:nonzero;stroke:none"
           id="path3840" />
        <path
           d="m 267.91,124.41 v -8.953 h 1.36 v 1.25 c 0.281,-0.437 0.648,-0.785 1.109,-1.047 0.469,-0.269 1,-0.406 1.594,-0.406 0.664,0 1.211,0.141 1.64,0.422 0.426,0.273 0.723,0.652 0.891,1.14 0.707,-1.039 1.629,-1.562 2.766,-1.562 0.894,0 1.578,0.246 2.046,0.734 0.477,0.492 0.719,1.25 0.719,2.282 v 6.14 h -1.5 v -5.64 c 0,-0.602 -0.055,-1.036 -0.156,-1.297 -0.094,-0.27 -0.274,-0.489 -0.531,-0.657 -0.262,-0.164 -0.563,-0.25 -0.907,-0.25 -0.636,0 -1.164,0.215 -1.578,0.641 -0.418,0.418 -0.625,1.086 -0.625,2 v 5.203 h -1.515 v -5.812 c 0,-0.676 -0.125,-1.18 -0.375,-1.516 -0.243,-0.344 -0.641,-0.516 -1.203,-0.516 -0.43,0 -0.825,0.118 -1.188,0.344 -0.367,0.219 -0.633,0.547 -0.797,0.985 -0.156,0.429 -0.234,1.054 -0.234,1.875 v 4.64 z"
           style="fill:#000000;fill-opacity:1;fill-rule:nonzero;stroke:none"
           id="path3842" />
        <path
           d="m 263.449,184.621 2.188,-0.219 c 0.125,0.731 0.383,1.266 0.781,1.61 0.406,0.343 0.953,0.515 1.641,0.515 0.718,0 1.257,-0.148 1.625,-0.453 0.363,-0.301 0.546,-0.66 0.546,-1.078 0,-0.258 -0.078,-0.476 -0.234,-0.656 -0.148,-0.188 -0.414,-0.348 -0.797,-0.485 -0.261,-0.093 -0.859,-0.253 -1.797,-0.484 -1.199,-0.301 -2.043,-0.672 -2.531,-1.109 -0.68,-0.602 -1.016,-1.348 -1.016,-2.235 0,-0.562 0.157,-1.086 0.469,-1.578 0.321,-0.488 0.785,-0.863 1.391,-1.125 0.601,-0.258 1.332,-0.39 2.187,-0.39 1.395,0 2.442,0.308 3.141,0.921 0.707,0.606 1.078,1.418 1.109,2.438 l -2.234,0.109 c -0.094,-0.57 -0.305,-0.984 -0.625,-1.234 -0.313,-0.25 -0.781,-0.375 -1.406,-0.375 -0.657,0 -1.168,0.137 -1.532,0.406 -0.242,0.168 -0.359,0.399 -0.359,0.688 0,0.261 0.109,0.484 0.328,0.672 0.281,0.242 0.969,0.492 2.063,0.75 1.093,0.25 1.898,0.515 2.422,0.796 0.519,0.274 0.925,0.649 1.218,1.125 0.301,0.481 0.453,1.071 0.453,1.766 0,0.637 -0.179,1.234 -0.531,1.797 -0.355,0.555 -0.855,0.965 -1.5,1.234 -0.648,0.27 -1.453,0.407 -2.422,0.407 -1.406,0 -2.484,-0.321 -3.234,-0.969 -0.75,-0.656 -1.199,-1.602 -1.344,-2.844 z"
           style="fill:#000000;fill-opacity:1;fill-rule:nonzero;stroke:none"
           id="path3844" />
        <path
           d="m 274.348,179.09 v -1.969 h 2.14 v 1.969 z m 0,9.14 v -8.046 h 2.14 v 8.046 z"
           style="fill:#000000;fill-opacity:1;fill-rule:nonzero;stroke:none"
           id="path3846" />
        <path
           d="m 278.223,182.746 c 0,-1.133 0.172,-2.082 0.515,-2.844 0.25,-0.57 0.594,-1.082 1.032,-1.531 0.437,-0.445 0.914,-0.781 1.437,-1 0.688,-0.289 1.484,-0.437 2.391,-0.437 1.632,0 2.941,0.511 3.922,1.531 0.988,1.012 1.484,2.422 1.484,4.234 0,1.793 -0.492,3.196 -1.469,4.203 -0.98,1.012 -2.281,1.516 -3.906,1.516 -1.656,0 -2.977,-0.5 -3.953,-1.5 -0.969,-1.008 -1.453,-2.398 -1.453,-4.172 z m 2.312,-0.078 c 0,1.262 0.289,2.215 0.875,2.859 0.582,0.649 1.317,0.969 2.203,0.969 0.895,0 1.629,-0.316 2.203,-0.953 0.571,-0.645 0.86,-1.613 0.86,-2.906 0,-1.27 -0.281,-2.219 -0.844,-2.844 -0.555,-0.625 -1.293,-0.938 -2.219,-0.938 -0.918,0 -1.664,0.321 -2.234,0.954 -0.563,0.625 -0.844,1.578 -0.844,2.859 z"
           style="fill:#000000;fill-opacity:1;fill-rule:nonzero;stroke:none"
           id="path3848" />
        <path
           d="m 294.293,189.832 v 1.313 h -4.984 c 0.062,-0.5 0.222,-0.969 0.484,-1.407 0.269,-0.445 0.805,-1.039 1.609,-1.781 0.633,-0.602 1.024,-1.008 1.172,-1.219 0.196,-0.289 0.297,-0.578 0.297,-0.859 0,-0.32 -0.09,-0.567 -0.266,-0.734 -0.167,-0.165 -0.402,-0.25 -0.703,-0.25 -0.293,0 -0.527,0.089 -0.703,0.265 -0.179,0.18 -0.277,0.477 -0.297,0.891 l -1.422,-0.156 c 0.082,-0.782 0.348,-1.336 0.797,-1.672 0.446,-0.344 1.004,-0.516 1.672,-0.516 0.727,0 1.301,0.199 1.719,0.594 0.414,0.398 0.625,0.887 0.625,1.469 0,0.335 -0.063,0.652 -0.188,0.953 -0.117,0.304 -0.304,0.621 -0.562,0.953 -0.168,0.219 -0.477,0.531 -0.922,0.937 -0.449,0.407 -0.734,0.68 -0.859,0.813 -0.117,0.136 -0.211,0.273 -0.282,0.406 z"
           style="fill:#000000;fill-opacity:1;fill-rule:nonzero;stroke:none"
           id="path3850" />
        <path
           d="m 234.555,170.125 h -2.438 l -0.969,-2.516 h -4.437 l -0.922,2.516 h -2.375 l 4.328,-11.109 h 2.375 z m -4.125,-4.391 -1.532,-4.125 -1.5,4.125 z"
           style="fill:#000000;fill-opacity:1;fill-rule:nonzero;stroke:none"
           id="path3852" />
        <path
           d="m 235.73,159.016 h 2.141 v 11.109 h -2.141 z"
           style="fill:#000000;fill-opacity:1;fill-rule:nonzero;stroke:none"
           id="path3854" />
        <path
           d="M 405.793,63.625 H 538.906 V 196.762 H 405.793 Z"
           style="fill:#a9d18e;fill-opacity:1;fill-rule:evenodd;stroke:none"
           id="path3856" />
        <g
           id="g3858">
          <path
             d="M 405.793,63.625 H 538.906 V 196.762 H 405.793 Z"
             style="fill:none;stroke:#000000;stroke-width:1.08641;stroke-linecap:butt;stroke-linejoin:round;stroke-miterlimit:4;stroke-dasharray:none;stroke-opacity:1"
             id="path3860" />
        </g>
        <path
           d="m 415.285,129.535 c 0,-31.586 25.637,-57.219 57.219,-57.219 31.609,0 57.242,25.633 57.242,57.219 0,31.61 -25.633,57.242 -57.242,57.242 -31.582,0 -57.219,-25.632 -57.219,-57.242 z"
           style="fill:#a9d18e;fill-opacity:1;fill-rule:evenodd;stroke:none"
           id="path3862" />
        <g
           id="g3864">
          <path
             d="m 415.285,129.535 c 0,-31.586 25.637,-57.219 57.219,-57.219 31.609,0 57.242,25.633 57.242,57.219 0,31.61 -25.633,57.242 -57.242,57.242 -31.582,0 -57.219,-25.632 -57.219,-57.242"
             style="fill:none;stroke:#000000;stroke-width:1.08641;stroke-linecap:butt;stroke-linejoin:round;stroke-miterlimit:4;stroke-dasharray:none;stroke-opacity:1"
             id="path3866" />
        </g>
        <path
           d="m 420.434,129.535 c 0,-28.508 23.125,-51.633 51.628,-51.633 28.532,0 51.657,23.125 51.657,51.633 0,28.531 -23.125,51.656 -51.657,51.656 -28.503,0 -51.628,-23.125 -51.628,-51.656 z"
           style="fill:#d9d9d9;fill-opacity:1;fill-rule:evenodd;stroke:none"
           id="path3868" />
        <g
           id="g3870">
          <path
             d="m 420.434,129.535 c 0,-28.508 23.125,-51.633 51.628,-51.633 28.532,0 51.657,23.125 51.657,51.633 0,28.531 -23.125,51.656 -51.657,51.656 -28.503,0 -51.628,-23.125 -51.628,-51.656"
             style="fill:none;stroke:#000000;stroke-width:1.08641;stroke-linecap:butt;stroke-linejoin:round;stroke-miterlimit:4;stroke-dasharray:none;stroke-opacity:1"
             id="path3872" />
        </g>
        <g
           id="g3874">
          <path
             d="m 473.359,128.887 h 49.094 v 1.293 h -49.094 z m 4.86,4.218 -6.129,-3.57 6.129,-3.57 c 0.312,-0.18 0.699,-0.078 0.883,0.23 0.179,0.313 0.078,0.7 -0.235,0.883 l -5.172,3.024 v -1.137 l 5.172,3.027 c 0.313,0.18 0.414,0.567 0.235,0.879 -0.184,0.309 -0.571,0.414 -0.883,0.234 z m 39.371,-7.14 6.129,3.57 -6.129,3.57 c -0.309,0.18 -0.699,0.075 -0.879,-0.234 -0.18,-0.312 -0.078,-0.699 0.234,-0.879 l 5.172,-3.027 v 1.137 l -5.172,-3.024 c -0.312,-0.183 -0.414,-0.57 -0.234,-0.883 0.18,-0.308 0.57,-0.41 0.879,-0.23 z"
             style="fill:#000000;fill-opacity:1;fill-rule:nonzero;stroke:#000000;stroke-width:0.0258669;stroke-linecap:butt;stroke-linejoin:round;stroke-miterlimit:4;stroke-dasharray:none;stroke-opacity:1"
             id="path3876" />
        </g>
        <path
           d="m 470.113,123.715 h -1.515 v -9.672 c -0.375,0.355 -0.86,0.703 -1.453,1.047 -0.586,0.344 -1.118,0.605 -1.594,0.781 v -1.469 c 0.851,-0.394 1.597,-0.875 2.234,-1.437 0.633,-0.57 1.082,-1.125 1.344,-1.656 h 0.984 z"
           style="fill:#000000;fill-opacity:1;fill-rule:nonzero;stroke:none"
           id="path3878" />
        <path
           d="m 474.086,112.98 v -1.468 h 8 v 1.187 c -0.781,0.836 -1.563,1.949 -2.344,3.344 -0.773,1.387 -1.367,2.812 -1.781,4.281 -0.305,1.031 -0.496,2.164 -0.578,3.391 h -1.563 c 0.02,-0.969 0.211,-2.141 0.578,-3.516 0.364,-1.383 0.883,-2.711 1.563,-3.984 0.687,-1.281 1.414,-2.36 2.187,-3.235 z"
           style="fill:#000000;fill-opacity:1;fill-rule:nonzero;stroke:none"
           id="path3880" />
        <path
           d="m 483.59,117.621 c 0,-1.457 0.148,-2.629 0.453,-3.516 0.301,-0.894 0.742,-1.582 1.328,-2.062 0.594,-0.488 1.344,-0.734 2.25,-0.734 0.656,0 1.234,0.136 1.734,0.406 0.5,0.262 0.911,0.648 1.235,1.156 0.332,0.5 0.594,1.109 0.781,1.828 0.188,0.719 0.281,1.696 0.281,2.922 0,1.449 -0.152,2.621 -0.453,3.516 -0.304,0.886 -0.75,1.574 -1.344,2.062 -0.585,0.481 -1.328,0.719 -2.234,0.719 -1.199,0 -2.137,-0.426 -2.812,-1.281 -0.813,-1.02 -1.219,-2.692 -1.219,-5.016 z m 1.562,0 c 0,2.031 0.235,3.387 0.703,4.063 0.477,0.668 1.067,1 1.766,1 0.695,0 1.281,-0.336 1.75,-1.016 0.477,-0.676 0.719,-2.023 0.719,-4.047 0,-2.031 -0.242,-3.379 -0.719,-4.047 -0.469,-0.676 -1.059,-1.015 -1.766,-1.015 -0.699,0 -1.257,0.296 -1.671,0.89 -0.524,0.75 -0.782,2.141 -0.782,4.172 z"
           style="fill:#000000;fill-opacity:1;fill-rule:nonzero;stroke:none"
           id="path3882" />
        <path
           d="m 505.844,114.762 v 8.953 h -1.36 v -1.063 c -0.293,0.45 -0.578,0.758 -0.859,0.922 -0.398,0.227 -0.855,0.344 -1.375,0.344 -0.469,0 -0.883,-0.09 -1.234,-0.266 -0.274,-0.144 -0.575,-0.425 -0.907,-0.843 v 4.343 h -1.5 v -12.39 h 1.5 v 3.797 c 0,1.375 0.071,2.265 0.219,2.671 0.145,0.407 0.383,0.731 0.719,0.969 0.332,0.242 0.711,0.36 1.141,0.36 0.445,0 0.847,-0.125 1.203,-0.375 0.351,-0.25 0.601,-0.567 0.75,-0.954 0.144,-0.394 0.218,-1.281 0.218,-2.656 v -3.812 z"
           style="fill:#000000;fill-opacity:1;fill-rule:nonzero;stroke:none"
           id="path3884" />
        <path
           d="m 508.348,123.715 v -8.953 h 1.359 v 1.25 c 0.281,-0.438 0.648,-0.785 1.109,-1.047 0.469,-0.27 1,-0.406 1.594,-0.406 0.664,0 1.211,0.14 1.641,0.421 0.426,0.274 0.722,0.653 0.89,1.141 0.707,-1.039 1.629,-1.562 2.766,-1.562 0.895,0 1.578,0.246 2.047,0.734 0.476,0.492 0.719,1.25 0.719,2.281 v 6.141 h -1.5 v -5.641 c 0,-0.601 -0.055,-1.035 -0.157,-1.297 -0.093,-0.269 -0.273,-0.488 -0.531,-0.656 -0.262,-0.164 -0.562,-0.25 -0.906,-0.25 -0.637,0 -1.164,0.215 -1.578,0.641 -0.418,0.418 -0.625,1.086 -0.625,2 v 5.203 h -1.516 v -5.813 c 0,-0.675 -0.125,-1.179 -0.375,-1.515 -0.242,-0.344 -0.64,-0.516 -1.203,-0.516 -0.43,0 -0.824,0.117 -1.187,0.344 -0.368,0.219 -0.633,0.547 -0.797,0.984 -0.157,0.43 -0.235,1.055 -0.235,1.875 v 4.641 z"
           style="fill:#000000;fill-opacity:1;fill-rule:nonzero;stroke:none"
           id="path3886" />
        <path
           d="m 512.145,190.258 h -2.438 l -0.969,-2.516 h -4.437 l -0.922,2.516 h -2.375 l 4.328,-11.11 h 2.375 z m -4.125,-4.391 -1.532,-4.125 -1.5,4.125 z"
           style="fill:#ff0000;fill-opacity:1;fill-rule:nonzero;stroke:none"
           id="path3888" />
        <path
           d="m 513.32,179.148 h 2.141 v 11.109 h -2.141 z"
           style="fill:#ff0000;fill-opacity:1;fill-rule:nonzero;stroke:none"
           id="path3890" />
        <path
           d="m 521.184,193.223 v 1.312 h -4.985 c 0.063,-0.5 0.223,-0.969 0.485,-1.406 0.269,-0.445 0.804,-1.039 1.609,-1.781 0.633,-0.602 1.023,-1.008 1.172,-1.219 0.195,-0.289 0.297,-0.578 0.297,-0.859 0,-0.321 -0.09,-0.567 -0.266,-0.735 -0.168,-0.164 -0.402,-0.25 -0.703,-0.25 -0.293,0 -0.527,0.09 -0.703,0.266 -0.18,0.179 -0.278,0.476 -0.297,0.89 l -1.422,-0.156 c 0.082,-0.781 0.348,-1.336 0.797,-1.672 0.445,-0.343 1.004,-0.515 1.672,-0.515 0.726,0 1.301,0.199 1.719,0.593 0.414,0.399 0.625,0.887 0.625,1.469 0,0.336 -0.063,0.652 -0.188,0.953 -0.117,0.305 -0.305,0.621 -0.562,0.953 -0.168,0.219 -0.477,0.532 -0.922,0.938 -0.45,0.406 -0.735,0.68 -0.86,0.812 -0.117,0.137 -0.211,0.274 -0.281,0.407 z"
           style="fill:#ff0000;fill-opacity:1;fill-rule:nonzero;stroke:none"
           id="path3892" />
        <path
           d="m 521.242,184.773 c 0,-1.132 0.172,-2.082 0.516,-2.843 0.25,-0.571 0.594,-1.082 1.031,-1.532 0.438,-0.445 0.914,-0.781 1.438,-1 0.687,-0.289 1.484,-0.437 2.39,-0.437 1.633,0 2.942,0.512 3.922,1.531 0.988,1.012 1.484,2.422 1.484,4.235 0,1.793 -0.492,3.195 -1.468,4.203 -0.981,1.011 -2.282,1.515 -3.907,1.515 -1.656,0 -2.976,-0.5 -3.953,-1.5 -0.968,-1.007 -1.453,-2.398 -1.453,-4.172 z m 2.313,-0.078 c 0,1.262 0.289,2.215 0.875,2.86 0.582,0.648 1.316,0.968 2.203,0.968 0.894,0 1.629,-0.316 2.203,-0.953 0.57,-0.644 0.859,-1.613 0.859,-2.906 0,-1.269 -0.281,-2.219 -0.843,-2.844 -0.555,-0.625 -1.293,-0.937 -2.219,-0.937 -0.918,0 -1.664,0.32 -2.235,0.953 -0.562,0.625 -0.843,1.578 -0.843,2.859 z"
           style="fill:#ff0000;fill-opacity:1;fill-rule:nonzero;stroke:none"
           id="path3894" />
        <path
           d="m 531.621,192.613 1.375,-0.156 c 0.039,0.344 0.156,0.609 0.344,0.797 0.195,0.187 0.43,0.281 0.703,0.281 0.289,0 0.535,-0.109 0.734,-0.328 0.207,-0.227 0.313,-0.531 0.313,-0.906 0,-0.352 -0.102,-0.633 -0.297,-0.844 -0.188,-0.207 -0.422,-0.312 -0.703,-0.312 -0.18,0 -0.391,0.031 -0.641,0.093 l 0.156,-1.156 c 0.375,0.012 0.661,-0.07 0.86,-0.25 0.207,-0.176 0.312,-0.41 0.312,-0.703 0,-0.25 -0.074,-0.445 -0.218,-0.594 -0.149,-0.144 -0.344,-0.219 -0.594,-0.219 -0.242,0 -0.449,0.086 -0.625,0.25 -0.168,0.168 -0.274,0.414 -0.313,0.735 l -1.297,-0.219 c 0.082,-0.445 0.219,-0.801 0.407,-1.062 0.187,-0.27 0.441,-0.485 0.765,-0.641 0.332,-0.156 0.703,-0.234 1.11,-0.234 0.695,0 1.254,0.226 1.672,0.671 0.343,0.368 0.515,0.778 0.515,1.235 0,0.648 -0.355,1.164 -1.062,1.547 0.425,0.093 0.765,0.304 1.015,0.625 0.258,0.312 0.391,0.695 0.391,1.14 0,0.649 -0.242,1.199 -0.719,1.657 -0.469,0.46 -1.058,0.687 -1.765,0.687 -0.68,0 -1.235,-0.191 -1.672,-0.578 -0.438,-0.383 -0.696,-0.891 -0.766,-1.516 z"
           style="fill:#ff0000;fill-opacity:1;fill-rule:nonzero;stroke:none"
           id="path3896" />
        <path
           d="m 474.969,172.926 h -2.438 l -0.969,-2.516 h -4.437 l -0.922,2.516 h -2.375 l 4.328,-11.11 h 2.375 z m -4.125,-4.391 -1.532,-4.125 -1.5,4.125 z"
           style="fill:#000000;fill-opacity:1;fill-rule:nonzero;stroke:none"
           id="path3898" />
        <path
           d="m 476.148,161.816 h 2.141 v 11.109 h -2.141 z"
           style="fill:#000000;fill-opacity:1;fill-rule:nonzero;stroke:none"
           id="path3900" />
        <path
           d="M 413.895,27.977 V 13.695 h -5.094 v -2.906 h 13.656 v 2.906 h -5.094 v 14.282 z"
           style="fill:#bf0e04;fill-opacity:1;fill-rule:nonzero;stroke:none"
           id="path3902" />
        <path
           d="m 426.496,27.977 h -3.297 V 15.523 h 3.063 v 1.782 c 0.519,-0.844 0.988,-1.395 1.406,-1.657 0.426,-0.269 0.906,-0.406 1.437,-0.406 0.75,0 1.469,0.211 2.157,0.625 l -1.016,2.875 c -0.555,-0.363 -1.07,-0.547 -1.547,-0.547 -0.461,0 -0.851,0.133 -1.172,0.391 -0.324,0.25 -0.578,0.711 -0.765,1.375 -0.18,0.668 -0.266,2.059 -0.266,4.172 z"
           style="fill:#bf0e04;fill-opacity:1;fill-rule:nonzero;stroke:none"
           id="path3904" />
        <path
           d="m 439.898,24.008 3.282,0.562 c -0.43,1.2 -1.102,2.118 -2.016,2.75 -0.906,0.625 -2.043,0.938 -3.406,0.938 -2.168,0 -3.766,-0.707 -4.797,-2.125 -0.824,-1.133 -1.234,-2.563 -1.234,-4.281 0,-2.063 0.535,-3.676 1.609,-4.844 1.082,-1.176 2.445,-1.766 4.094,-1.766 1.851,0 3.312,0.617 4.375,1.844 1.07,1.219 1.586,3.09 1.547,5.609 h -8.25 c 0.019,0.981 0.285,1.743 0.796,2.282 0.508,0.543 1.141,0.812 1.891,0.812 0.52,0 0.953,-0.141 1.297,-0.422 0.352,-0.281 0.625,-0.734 0.812,-1.359 z m 0.188,-3.328 c -0.031,-0.946 -0.281,-1.664 -0.75,-2.157 -0.469,-0.5 -1.039,-0.75 -1.703,-0.75 -0.719,0 -1.313,0.262 -1.781,0.782 -0.469,0.523 -0.7,1.23 -0.688,2.125 z"
           style="fill:#bf0e04;fill-opacity:1;fill-rule:nonzero;stroke:none"
           id="path3906" />
        <path
           d="m 457.355,27.977 h -3.296 v -6.36 c 0,-1.344 -0.075,-2.207 -0.219,-2.594 -0.137,-0.394 -0.367,-0.703 -0.688,-0.921 -0.312,-0.219 -0.687,-0.329 -1.125,-0.329 -0.574,0 -1.089,0.157 -1.547,0.469 -0.449,0.313 -0.757,0.731 -0.921,1.25 -0.168,0.512 -0.25,1.461 -0.25,2.844 v 5.641 h -3.297 V 15.523 h 3.062 v 1.829 c 1.082,-1.407 2.446,-2.11 4.094,-2.11 0.727,0 1.391,0.137 1.984,0.406 0.602,0.262 1.063,0.594 1.375,1 0.313,0.407 0.524,0.872 0.641,1.391 0.125,0.512 0.187,1.246 0.187,2.203 z"
           style="fill:#bf0e04;fill-opacity:1;fill-rule:nonzero;stroke:none"
           id="path3908" />
        <path
           d="m 471.547,19.211 -3.25,0.578 c -0.106,-0.644 -0.356,-1.129 -0.75,-1.453 -0.387,-0.332 -0.887,-0.5 -1.5,-0.5 -0.824,0 -1.481,0.289 -1.969,0.859 -0.48,0.563 -0.719,1.508 -0.719,2.828 0,1.481 0.243,2.528 0.735,3.141 0.5,0.606 1.164,0.906 2,0.906 0.625,0 1.133,-0.175 1.531,-0.531 0.406,-0.351 0.687,-0.961 0.844,-1.828 l 3.234,0.547 c -0.336,1.48 -0.98,2.601 -1.937,3.359 -0.95,0.762 -2.227,1.141 -3.828,1.141 -1.813,0 -3.262,-0.57 -4.344,-1.719 -1.086,-1.156 -1.625,-2.75 -1.625,-4.781 0,-2.051 0.539,-3.649 1.625,-4.797 1.082,-1.145 2.551,-1.719 4.406,-1.719 1.52,0 2.723,0.328 3.609,0.985 0.895,0.656 1.539,1.652 1.938,2.984 z"
           style="fill:#bf0e04;fill-opacity:1;fill-rule:nonzero;stroke:none"
           id="path3910" />
        <path
           d="m 477.316,10.789 v 6.328 c 1.063,-1.25 2.332,-1.875 3.813,-1.875 0.758,0 1.441,0.141 2.047,0.422 0.613,0.281 1.07,0.641 1.375,1.078 0.312,0.438 0.523,0.922 0.64,1.453 0.114,0.532 0.172,1.36 0.172,2.485 v 7.297 h -3.297 v -6.579 c 0,-1.3 -0.062,-2.128 -0.187,-2.484 -0.125,-0.352 -0.352,-0.629 -0.672,-0.828 -0.312,-0.207 -0.703,-0.313 -1.172,-0.313 -0.555,0 -1.043,0.137 -1.469,0.407 -0.429,0.261 -0.746,0.656 -0.953,1.187 -0.199,0.531 -0.297,1.324 -0.297,2.375 v 6.235 h -3.281 V 10.789 Z"
           style="fill:#bf0e04;fill-opacity:1;fill-rule:nonzero;stroke:none"
           id="path3912" />
        <path
           d="M 495.348,27.977 V 10.789 h 5.187 l 3.125,11.719 3.078,-11.719 h 5.203 v 17.188 h -3.218 V 14.445 l -3.422,13.532 h -3.328 l -3.407,-13.532 v 13.532 z"
           style="fill:#bf0e04;fill-opacity:1;fill-rule:nonzero;stroke:none"
           id="path3914" />
        <path
           d="m 515.277,10.789 h 3.469 v 17.188 h -3.469 z"
           style="fill:#bf0e04;fill-opacity:1;fill-rule:nonzero;stroke:none"
           id="path3916" />
        <path
           d="m 521.18,22.383 3.375,-0.328 c 0.195,1.136 0.601,1.968 1.218,2.5 0.625,0.531 1.469,0.797 2.532,0.797 1.113,0 1.953,-0.235 2.515,-0.704 0.571,-0.476 0.86,-1.035 0.86,-1.671 0,-0.407 -0.121,-0.75 -0.36,-1.032 -0.242,-0.281 -0.656,-0.531 -1.25,-0.75 -0.406,-0.133 -1.336,-0.383 -2.781,-0.75 -1.855,-0.457 -3.156,-1.019 -3.906,-1.687 -1.063,-0.946 -1.594,-2.102 -1.594,-3.469 0,-0.875 0.25,-1.691 0.75,-2.453 0.5,-0.758 1.211,-1.336 2.141,-1.734 0.937,-0.395 2.066,-0.594 3.39,-0.594 2.157,0 3.774,0.476 4.86,1.422 1.093,0.937 1.664,2.199 1.718,3.781 l -3.468,0.141 c -0.149,-0.875 -0.465,-1.504 -0.953,-1.891 -0.493,-0.395 -1.227,-0.594 -2.204,-0.594 -1,0 -1.789,0.211 -2.359,0.625 -0.367,0.274 -0.547,0.625 -0.547,1.063 0,0.406 0.172,0.757 0.516,1.047 0.437,0.367 1.5,0.75 3.187,1.156 1.688,0.398 2.93,0.808 3.735,1.234 0.812,0.43 1.445,1.012 1.906,1.75 0.457,0.731 0.687,1.641 0.687,2.735 0,0.98 -0.277,1.902 -0.828,2.765 -0.543,0.856 -1.312,1.496 -2.312,1.922 -1,0.414 -2.25,0.625 -3.75,0.625 -2.168,0 -3.836,-0.5 -5,-1.5 -1.168,-1.008 -1.86,-2.477 -2.078,-4.406 z"
           style="fill:#bf0e04;fill-opacity:1;fill-rule:nonzero;stroke:none"
           id="path3918" />
        <g
           id="g3920">
          <path
             d="M 403.27,1.164 H 540.864 V 37.461 H 403.27 Z"
             style="fill:none;stroke:#bf0e04;stroke-width:2.33029;stroke-linecap:butt;stroke-linejoin:round;stroke-miterlimit:4;stroke-dasharray:none;stroke-opacity:1"
             id="path3922" />
        </g>
        <path
           d="m 30.59,291.059 2.656,0.656 c -0.562,2.18 -1.57,3.84 -3.016,4.984 -1.437,1.149 -3.199,1.719 -5.281,1.719 -2.168,0 -3.929,-0.438 -5.281,-1.313 -1.344,-0.882 -2.371,-2.16 -3.078,-3.828 -0.711,-1.664 -1.063,-3.457 -1.063,-5.375 0,-2.082 0.395,-3.898 1.188,-5.453 0.801,-1.551 1.937,-2.726 3.406,-3.531 1.477,-0.813 3.098,-1.219 4.859,-1.219 2.008,0 3.696,0.512 5.063,1.531 1.363,1.024 2.316,2.461 2.859,4.313 l -2.609,0.609 c -0.469,-1.457 -1.148,-2.519 -2.031,-3.187 -0.887,-0.664 -1.996,-1 -3.328,-1 -1.543,0 -2.829,0.371 -3.86,1.109 -1.031,0.742 -1.762,1.735 -2.187,2.985 -0.418,1.242 -0.625,2.515 -0.625,3.828 0,1.711 0.242,3.199 0.734,4.468 0.5,1.274 1.274,2.227 2.328,2.86 1.051,0.625 2.188,0.937 3.406,0.937 1.477,0 2.735,-0.425 3.766,-1.281 1.031,-0.863 1.727,-2.133 2.094,-3.812 z"
           style="fill:#000000;fill-opacity:1;fill-rule:nonzero;stroke:none"
           id="path3924" />
        <path
           d="m 36.156,298.074 v -14.515 h 2.219 v 2.203 c 0.563,-1.032 1.082,-1.707 1.563,-2.032 0.476,-0.332 1.003,-0.5 1.578,-0.5 0.832,0 1.675,0.266 2.531,0.797 l -0.844,2.282 c -0.605,-0.352 -1.211,-0.532 -1.812,-0.532 -0.532,0 -1.016,0.164 -1.453,0.485 -0.43,0.324 -0.731,0.773 -0.907,1.343 -0.273,0.875 -0.406,1.836 -0.406,2.875 v 7.594 z"
           style="fill:#000000;fill-opacity:1;fill-rule:nonzero;stroke:none"
           id="path3926" />
        <path
           d="m 44.586,290.824 c 0,-2.687 0.75,-4.679 2.25,-5.984 1.25,-1.07 2.769,-1.61 4.562,-1.61 1.989,0 3.618,0.657 4.891,1.969 1.27,1.305 1.906,3.11 1.906,5.422 0,1.867 -0.281,3.336 -0.843,4.406 -0.563,1.063 -1.383,1.891 -2.454,2.485 -1.062,0.593 -2.23,0.89 -3.5,0.89 -2.031,0 -3.679,-0.648 -4.937,-1.953 -1.25,-1.301 -1.875,-3.176 -1.875,-5.625 z m 2.531,0 c 0,1.856 0.406,3.246 1.219,4.172 0.812,0.93 1.832,1.391 3.062,1.391 1.219,0 2.235,-0.461 3.047,-1.391 0.813,-0.937 1.219,-2.359 1.219,-4.266 0,-1.789 -0.414,-3.144 -1.234,-4.062 -0.813,-0.926 -1.825,-1.391 -3.032,-1.391 -1.23,0 -2.25,0.461 -3.062,1.375 -0.813,0.918 -1.219,2.309 -1.219,4.172 z"
           style="fill:#000000;fill-opacity:1;fill-rule:nonzero;stroke:none"
           id="path3928" />
        <path
           d="m 60.086,293.746 2.437,-0.391 c 0.133,0.981 0.516,1.731 1.141,2.25 0.625,0.524 1.492,0.782 2.609,0.782 1.133,0 1.973,-0.227 2.516,-0.688 0.551,-0.469 0.828,-1.008 0.828,-1.625 0,-0.562 -0.246,-1 -0.734,-1.312 -0.336,-0.219 -1.172,-0.5 -2.516,-0.844 -1.805,-0.445 -3.055,-0.836 -3.75,-1.172 -0.699,-0.332 -1.23,-0.789 -1.594,-1.375 -0.355,-0.594 -0.531,-1.242 -0.531,-1.953 0,-0.645 0.145,-1.242 0.438,-1.797 0.3,-0.551 0.707,-1.008 1.218,-1.375 0.383,-0.281 0.907,-0.519 1.563,-0.719 0.664,-0.195 1.375,-0.297 2.125,-0.297 1.144,0 2.144,0.168 3,0.5 0.863,0.325 1.5,0.766 1.906,1.329 0.414,0.562 0.696,1.312 0.844,2.25 l -2.391,0.328 c -0.117,-0.75 -0.437,-1.332 -0.968,-1.75 -0.524,-0.414 -1.258,-0.625 -2.204,-0.625 -1.136,0 -1.949,0.187 -2.437,0.562 -0.481,0.367 -0.719,0.805 -0.719,1.313 0,0.312 0.102,0.601 0.313,0.859 0.195,0.262 0.508,0.481 0.937,0.656 0.25,0.086 0.973,0.293 2.172,0.625 1.738,0.461 2.953,0.84 3.641,1.141 0.687,0.293 1.222,0.727 1.609,1.297 0.395,0.562 0.594,1.262 0.594,2.094 0,0.824 -0.242,1.601 -0.719,2.328 -0.469,0.718 -1.156,1.277 -2.062,1.672 -0.907,0.394 -1.93,0.593 -3.063,0.593 -1.887,0 -3.324,-0.39 -4.312,-1.172 -0.993,-0.781 -1.622,-1.941 -1.891,-3.484 z"
           style="fill:#000000;fill-opacity:1;fill-rule:nonzero;stroke:none"
           id="path3930" />
        <path
           d="m 74.078,293.746 2.438,-0.391 c 0.132,0.981 0.515,1.731 1.14,2.25 0.625,0.524 1.492,0.782 2.61,0.782 1.132,0 1.972,-0.227 2.515,-0.688 0.551,-0.469 0.828,-1.008 0.828,-1.625 0,-0.562 -0.246,-1 -0.734,-1.312 -0.336,-0.219 -1.172,-0.5 -2.516,-0.844 -1.804,-0.445 -3.054,-0.836 -3.75,-1.172 -0.699,-0.332 -1.23,-0.789 -1.593,-1.375 -0.356,-0.594 -0.532,-1.242 -0.532,-1.953 0,-0.645 0.145,-1.242 0.438,-1.797 0.301,-0.551 0.707,-1.008 1.219,-1.375 0.382,-0.281 0.906,-0.519 1.562,-0.719 0.664,-0.195 1.375,-0.297 2.125,-0.297 1.145,0 2.145,0.168 3,0.5 0.863,0.325 1.5,0.766 1.906,1.329 0.414,0.562 0.696,1.312 0.844,2.25 l -2.39,0.328 c -0.118,-0.75 -0.438,-1.332 -0.969,-1.75 -0.524,-0.414 -1.258,-0.625 -2.203,-0.625 -1.137,0 -1.95,0.187 -2.438,0.562 -0.48,0.367 -0.719,0.805 -0.719,1.313 0,0.312 0.102,0.601 0.313,0.859 0.195,0.262 0.508,0.481 0.937,0.656 0.25,0.086 0.973,0.293 2.172,0.625 1.739,0.461 2.953,0.84 3.641,1.141 0.687,0.293 1.223,0.727 1.609,1.297 0.395,0.562 0.594,1.262 0.594,2.094 0,0.824 -0.242,1.601 -0.719,2.328 -0.468,0.718 -1.156,1.277 -2.062,1.672 -0.906,0.394 -1.93,0.593 -3.063,0.593 -1.886,0 -3.324,-0.39 -4.312,-1.172 -0.992,-0.781 -1.621,-1.941 -1.891,-3.484 z"
           style="fill:#000000;fill-opacity:1;fill-rule:nonzero;stroke:none"
           id="path3932" />
        <path
           d="m 11.086,328.727 2.437,-0.391 c 0.133,0.98 0.516,1.73 1.141,2.25 0.625,0.523 1.492,0.781 2.609,0.781 1.133,0 1.973,-0.226 2.516,-0.687 0.551,-0.469 0.828,-1.008 0.828,-1.625 0,-0.563 -0.246,-1 -0.734,-1.313 -0.336,-0.219 -1.172,-0.5 -2.516,-0.844 -1.805,-0.445 -3.055,-0.836 -3.75,-1.171 -0.699,-0.332 -1.23,-0.789 -1.594,-1.375 -0.355,-0.594 -0.531,-1.243 -0.531,-1.954 0,-0.644 0.145,-1.242 0.438,-1.796 0.3,-0.551 0.707,-1.008 1.218,-1.375 0.383,-0.282 0.907,-0.52 1.563,-0.719 0.664,-0.196 1.375,-0.297 2.125,-0.297 1.144,0 2.144,0.168 3,0.5 0.863,0.324 1.5,0.766 1.906,1.328 0.414,0.563 0.696,1.313 0.844,2.25 l -2.391,0.328 c -0.117,-0.75 -0.437,-1.332 -0.968,-1.75 -0.524,-0.414 -1.258,-0.625 -2.204,-0.625 -1.136,0 -1.949,0.188 -2.437,0.563 -0.481,0.367 -0.719,0.804 -0.719,1.312 0,0.313 0.102,0.602 0.313,0.86 0.195,0.261 0.508,0.48 0.937,0.656 0.25,0.086 0.973,0.293 2.172,0.625 1.738,0.461 2.953,0.84 3.641,1.14 0.687,0.293 1.222,0.727 1.609,1.297 0.395,0.563 0.594,1.262 0.594,2.094 0,0.824 -0.242,1.602 -0.719,2.328 -0.469,0.719 -1.156,1.278 -2.062,1.672 -0.907,0.395 -1.93,0.594 -3.063,0.594 -1.887,0 -3.324,-0.391 -4.312,-1.172 -0.993,-0.781 -1.622,-1.941 -1.891,-3.484 z"
           style="fill:#000000;fill-opacity:1;fill-rule:nonzero;stroke:none"
           id="path3934" />
        <path
           d="m 36,328.383 2.531,0.312 c -0.398,1.493 -1.136,2.649 -2.219,3.469 -1.085,0.813 -2.468,1.219 -4.156,1.219 -2.125,0 -3.808,-0.649 -5.047,-1.953 -1.242,-1.313 -1.859,-3.145 -1.859,-5.5 0,-2.446 0.625,-4.344 1.875,-5.688 1.258,-1.351 2.891,-2.031 4.891,-2.031 1.945,0 3.535,0.664 4.765,1.984 1.227,1.325 1.844,3.184 1.844,5.578 0,0.149 -0.008,0.368 -0.016,0.657 H 27.781 c 0.094,1.593 0.547,2.82 1.36,3.672 0.812,0.843 1.82,1.265 3.031,1.265 0.906,0 1.676,-0.234 2.312,-0.703 0.633,-0.476 1.141,-1.238 1.516,-2.281 z m -8.078,-3.985 h 8.109 c -0.117,-1.218 -0.429,-2.128 -0.937,-2.734 -0.782,-0.945 -1.797,-1.422 -3.047,-1.422 -1.125,0 -2.074,0.383 -2.844,1.141 -0.773,0.75 -1.199,1.758 -1.281,3.015 z"
           style="fill:#000000;fill-opacity:1;fill-rule:nonzero;stroke:none"
           id="path3936" />
        <path
           d="m 51.094,327.742 2.422,0.313 c -0.262,1.668 -0.938,2.976 -2.032,3.922 -1.086,0.937 -2.422,1.406 -4.015,1.406 -1.981,0 -3.574,-0.645 -4.781,-1.938 -1.211,-1.3 -1.813,-3.164 -1.813,-5.593 0,-1.563 0.258,-2.93 0.781,-4.11 0.52,-1.176 1.305,-2.054 2.36,-2.64 1.062,-0.594 2.218,-0.891 3.468,-0.891 1.582,0 2.875,0.402 3.875,1.203 1,0.793 1.641,1.922 1.922,3.391 l -2.39,0.375 c -0.231,-0.977 -0.637,-1.711 -1.219,-2.203 -0.574,-0.489 -1.274,-0.735 -2.094,-0.735 -1.242,0 -2.246,0.446 -3.016,1.328 -0.773,0.887 -1.156,2.293 -1.156,4.219 0,1.949 0.367,3.367 1.11,4.25 0.75,0.887 1.726,1.328 2.937,1.328 0.957,0 1.758,-0.297 2.406,-0.89 0.645,-0.594 1.055,-1.504 1.235,-2.735 z"
           style="fill:#000000;fill-opacity:1;fill-rule:nonzero;stroke:none"
           id="path3938" />
        <path
           d="m 60.992,330.852 0.344,2.171 c -0.688,0.145 -1.305,0.219 -1.844,0.219 -0.898,0 -1.594,-0.14 -2.094,-0.422 -0.492,-0.281 -0.836,-0.648 -1.031,-1.109 -0.199,-0.457 -0.297,-1.426 -0.297,-2.906 v -8.344 h -1.812 v -1.922 h 1.812 v -3.594 l 2.438,-1.468 v 5.062 h 2.484 v 1.922 h -2.484 v 8.484 c 0,0.7 0.039,1.153 0.125,1.36 0.094,0.199 0.238,0.355 0.437,0.468 0.196,0.118 0.477,0.172 0.844,0.172 0.27,0 0.629,-0.031 1.078,-0.093 z"
           style="fill:#000000;fill-opacity:1;fill-rule:nonzero;stroke:none"
           id="path3940" />
        <path
           d="m 63.41,315.852 v -2.829 h 2.453 v 2.829 z m 0,17.203 v -14.516 h 2.453 v 14.516 z"
           style="fill:#000000;fill-opacity:1;fill-rule:nonzero;stroke:none"
           id="path3942" />
        <path
           d="m 68.688,325.805 c 0,-2.688 0.75,-4.68 2.25,-5.985 1.25,-1.07 2.769,-1.609 4.562,-1.609 1.988,0 3.617,0.656 4.891,1.969 1.269,1.304 1.906,3.109 1.906,5.422 0,1.867 -0.281,3.336 -0.844,4.406 -0.562,1.062 -1.383,1.89 -2.453,2.484 -1.062,0.594 -2.23,0.891 -3.5,0.891 -2.031,0 -3.68,-0.649 -4.938,-1.953 -1.25,-1.301 -1.874,-3.176 -1.874,-5.625 z m 2.531,0 c 0,1.855 0.406,3.246 1.219,4.172 0.812,0.929 1.832,1.39 3.062,1.39 1.219,0 2.234,-0.461 3.047,-1.39 0.812,-0.938 1.219,-2.36 1.219,-4.266 0,-1.789 -0.414,-3.145 -1.235,-4.063 -0.812,-0.925 -1.824,-1.39 -3.031,-1.39 -1.23,0 -2.25,0.461 -3.062,1.375 -0.813,0.918 -1.219,2.308 -1.219,4.172 z"
           style="fill:#000000;fill-opacity:1;fill-rule:nonzero;stroke:none"
           id="path3944" />
        <path
           d="m 85.176,333.055 v -14.516 h 2.219 v 2.063 c 1.062,-1.594 2.597,-2.391 4.609,-2.391 0.875,0 1.676,0.164 2.406,0.484 0.738,0.313 1.289,0.727 1.656,1.235 0.364,0.511 0.618,1.117 0.766,1.812 0.094,0.461 0.141,1.258 0.141,2.391 v 8.922 h -2.469 v -8.828 c 0,-1 -0.094,-1.743 -0.281,-2.235 -0.188,-0.5 -0.528,-0.894 -1.016,-1.187 -0.492,-0.301 -1.062,-0.453 -1.719,-0.453 -1.043,0 -1.949,0.336 -2.718,1 -0.762,0.656 -1.141,1.918 -1.141,3.781 v 7.922 z"
           style="fill:#000000;fill-opacity:1;fill-rule:nonzero;stroke:none"
           id="path3946" />
        <path
           d="m 117.887,311.504 h 224.887 v 54.391 H 117.887 Z"
           style="fill:#ffff66;fill-opacity:1;fill-rule:evenodd;stroke:none"
           id="path3948" />
      </g>
      <g
         id="g3950">
        <g
           id="g3952"
           clip-path="url(#clipPath3956)">
          <g
             id="g3958">
            <g
               id="g3960">
              <g
                 id="g3962"
                 clip-path="url(#clipPath3966)">
                <g
                   id="g3968">
                  <g
                     id="g3970">
                    <path
                       d="m 117.887,311.504 h 224.887 v 54.391 H 117.887 Z"
                       style="fill:none;stroke:#000000;stroke-width:0.99003;stroke-linecap:butt;stroke-linejoin:miter;stroke-miterlimit:8;stroke-dasharray:none;stroke-opacity:1"
                       id="path3972" />
                  </g>
                </g>
              </g>
            </g>
          </g>
          <path
             d="m 117.887,295.543 11.101,-44.402 h 202.688 l 11.097,44.402 z"
             style="fill:#9dc3e6;fill-opacity:1;fill-rule:evenodd;stroke:none"
             id="path3974" />
          <g
             id="g3976">
            <g
               id="g3978">
              <g
                 id="g3980"
                 clip-path="url(#clipPath3984)">
                <g
                   id="g3986">
                  <g
                     id="g3988">
                    <path
                       d="m 117.887,295.543 11.101,-44.402 h 202.688 l 11.097,44.402 z"
                       style="fill:none;stroke:#000000;stroke-width:0.99003;stroke-linecap:butt;stroke-linejoin:miter;stroke-miterlimit:8;stroke-dasharray:none;stroke-opacity:1"
                       id="path3990" />
                  </g>
                </g>
              </g>
            </g>
          </g>
          <g
             id="g3992">
            <path
               d="m 231.082,254.742 c 35.145,0 63.633,7.965 63.633,17.789 H 167.449 c 0,-9.824 28.5,-17.789 63.633,-17.789 z"
               style="fill:#dbdbdb;fill-opacity:1;fill-rule:evenodd;stroke:#000000;stroke-width:0.99003;stroke-linecap:butt;stroke-linejoin:round;stroke-miterlimit:10;stroke-dasharray:none;stroke-opacity:1"
               id="path3994" />
          </g>
          <path
             d="m 117.887,295.184 h 224.887 v 18.602 H 117.887 Z"
             style="fill:#9dc3e6;fill-opacity:1;fill-rule:evenodd;stroke:none"
             id="path3996" />
          <g
             id="g3998">
            <g
               id="g4000">
              <g
                 id="g4002"
                 clip-path="url(#clipPath4006)">
                <g
                   id="g4008">
                  <g
                     id="g4010">
                    <path
                       d="m 117.887,295.184 h 224.887 v 18.602 H 117.887 Z"
                       style="fill:none;stroke:#000000;stroke-width:0.99003;stroke-linecap:butt;stroke-linejoin:miter;stroke-miterlimit:8;stroke-dasharray:none;stroke-opacity:1"
                       id="path4012" />
                  </g>
                </g>
              </g>
            </g>
          </g>
          <path
             d="m 214.309,305.82 2.531,-0.25 c 0.144,0.844 0.453,1.469 0.922,1.875 0.468,0.399 1.097,0.594 1.89,0.594 0.832,0 1.461,-0.176 1.891,-0.531 0.426,-0.352 0.641,-0.77 0.641,-1.25 0,-0.301 -0.094,-0.555 -0.282,-0.766 -0.179,-0.219 -0.484,-0.406 -0.922,-0.562 -0.312,-0.102 -1.011,-0.289 -2.093,-0.563 -1.399,-0.344 -2.375,-0.769 -2.938,-1.281 -0.793,-0.707 -1.187,-1.57 -1.187,-2.594 0,-0.656 0.187,-1.265 0.562,-1.828 0.375,-0.57 0.91,-1.008 1.61,-1.312 0.695,-0.301 1.539,-0.454 2.531,-0.454 1.625,0 2.844,0.356 3.656,1.063 0.82,0.711 1.254,1.656 1.297,2.844 l -2.609,0.109 c -0.118,-0.656 -0.356,-1.129 -0.719,-1.422 -0.367,-0.289 -0.914,-0.437 -1.641,-0.437 -0.761,0 -1.355,0.156 -1.781,0.468 -0.273,0.2 -0.406,0.465 -0.406,0.797 0,0.305 0.125,0.563 0.375,0.782 0.332,0.281 1.129,0.574 2.39,0.875 1.27,0.293 2.207,0.601 2.813,0.921 0.601,0.313 1.078,0.75 1.422,1.313 0.343,0.555 0.515,1.234 0.515,2.047 0,0.742 -0.211,1.433 -0.625,2.078 -0.406,0.637 -0.984,1.117 -1.734,1.437 -0.75,0.313 -1.684,0.469 -2.797,0.469 -1.625,0 -2.875,-0.375 -3.75,-1.125 -0.875,-0.758 -1.398,-1.859 -1.562,-3.297 z m 12.648,-6.406 v -2.297 h 2.469 v 2.297 z m 0,10.594 v -9.328 h 2.469 v 9.328 z"
             style="fill:#000000;fill-opacity:1;fill-rule:nonzero;stroke:none"
             id="path4014" />
          <path
             d="m 231.441,303.648 c 0,-1.312 0.196,-2.414 0.594,-3.312 0.289,-0.656 0.688,-1.242 1.188,-1.766 0.507,-0.519 1.066,-0.906 1.672,-1.156 0.8,-0.344 1.726,-0.516 2.781,-0.516 1.894,0 3.41,0.59 4.547,1.766 1.144,1.18 1.718,2.82 1.718,4.922 0,2.074 -0.57,3.699 -1.703,4.875 -1.125,1.18 -2.636,1.766 -4.531,1.766 -1.918,0 -3.445,-0.582 -4.578,-1.75 -1.125,-1.165 -1.688,-2.774 -1.688,-4.829 z m 2.688,-0.093 c 0,1.461 0.332,2.57 1,3.328 0.676,0.75 1.535,1.125 2.578,1.125 1.031,0 1.879,-0.375 2.547,-1.125 0.664,-0.75 1,-1.867 1,-3.36 0,-1.476 -0.324,-2.578 -0.969,-3.296 -0.648,-0.727 -1.508,-1.094 -2.578,-1.094 -1.074,0 -1.937,0.371 -2.594,1.109 -0.656,0.731 -0.984,1.836 -0.984,3.313 z"
             style="fill:#000000;fill-opacity:1;fill-rule:nonzero;stroke:none"
             id="path4016" />
          <path
             d="m 250.75,309.945 v 1.532 h -5.781 c 0.062,-0.582 0.25,-1.129 0.562,-1.641 0.313,-0.52 0.93,-1.207 1.86,-2.063 0.738,-0.687 1.191,-1.156 1.359,-1.406 0.227,-0.344 0.344,-0.679 0.344,-1.015 0,-0.364 -0.102,-0.645 -0.297,-0.844 -0.199,-0.196 -0.469,-0.297 -0.813,-0.297 -0.343,0 -0.621,0.105 -0.828,0.312 -0.199,0.211 -0.312,0.555 -0.344,1.032 l -1.64,-0.157 c 0.094,-0.906 0.394,-1.554 0.906,-1.953 0.52,-0.394 1.164,-0.593 1.938,-0.593 0.851,0 1.519,0.23 2,0.687 0.488,0.461 0.734,1.027 0.734,1.703 0,0.387 -0.074,0.758 -0.219,1.11 -0.136,0.343 -0.355,0.71 -0.656,1.093 -0.199,0.25 -0.559,0.617 -1.078,1.094 -0.524,0.481 -0.852,0.797 -0.985,0.953 -0.136,0.156 -0.25,0.309 -0.343,0.453 z"
             style="fill:#000000;fill-opacity:1;fill-rule:nonzero;stroke:none"
             id="path4018" />
          <path
             d="m 209.086,343.164 2.531,-0.25 c 0.145,0.844 0.453,1.469 0.922,1.875 0.469,0.399 1.098,0.594 1.891,0.594 0.832,0 1.461,-0.176 1.89,-0.531 0.426,-0.352 0.641,-0.77 0.641,-1.25 0,-0.301 -0.094,-0.555 -0.281,-0.766 -0.18,-0.219 -0.485,-0.406 -0.922,-0.563 -0.313,-0.101 -1.012,-0.289 -2.094,-0.562 -1.398,-0.344 -2.375,-0.77 -2.937,-1.281 -0.793,-0.707 -1.188,-1.571 -1.188,-2.594 0,-0.656 0.188,-1.266 0.563,-1.828 0.375,-0.57 0.91,-1.008 1.609,-1.313 0.695,-0.3 1.539,-0.453 2.531,-0.453 1.625,0 2.844,0.356 3.656,1.063 0.821,0.711 1.254,1.656 1.297,2.843 l -2.609,0.11 c -0.117,-0.656 -0.356,-1.129 -0.719,-1.422 -0.367,-0.289 -0.914,-0.438 -1.64,-0.438 -0.762,0 -1.356,0.157 -1.782,0.469 -0.273,0.199 -0.406,0.465 -0.406,0.797 0,0.305 0.125,0.563 0.375,0.781 0.332,0.282 1.129,0.575 2.391,0.875 1.269,0.293 2.207,0.602 2.812,0.922 0.602,0.313 1.078,0.75 1.422,1.313 0.344,0.554 0.516,1.234 0.516,2.047 0,0.742 -0.211,1.433 -0.625,2.078 -0.407,0.636 -0.985,1.117 -1.735,1.437 -0.75,0.313 -1.683,0.469 -2.797,0.469 -1.625,0 -2.875,-0.375 -3.75,-1.125 -0.875,-0.758 -1.398,-1.859 -1.562,-3.297 z m 12.648,-6.406 v -2.297 h 2.469 v 2.297 z m 0,10.594 v -9.329 h 2.469 v 9.329 z"
             style="fill:#000000;fill-opacity:1;fill-rule:nonzero;stroke:none"
             id="path4020" />
          <path
             d="m 235.828,351.133 h -1.703 c -0.898,-1.344 -1.578,-2.746 -2.047,-4.203 -0.469,-1.469 -0.703,-2.883 -0.703,-4.25 0,-1.688 0.289,-3.285 0.875,-4.797 0.5,-1.313 1.141,-2.524 1.922,-3.641 h 1.687 c -0.812,1.781 -1.371,3.297 -1.671,4.547 -0.293,1.242 -0.438,2.559 -0.438,3.953 0,0.961 0.086,1.946 0.266,2.953 0.175,1 0.422,1.957 0.734,2.875 0.195,0.594 0.555,1.446 1.078,2.563 z"
             style="fill:#000000;fill-opacity:1;fill-rule:nonzero;stroke:none"
             id="path4022" />
          <path
             d="m 237.652,338.023 h 2.313 v 1.36 c 0.289,-0.469 0.691,-0.848 1.203,-1.141 0.508,-0.289 1.078,-0.437 1.703,-0.437 1.082,0 2,0.429 2.75,1.281 0.758,0.844 1.141,2.027 1.141,3.547 0,1.562 -0.383,2.777 -1.141,3.64 -0.762,0.868 -1.683,1.297 -2.766,1.297 -0.523,0 -0.992,-0.105 -1.406,-0.312 -0.418,-0.207 -0.859,-0.563 -1.328,-1.063 v 4.703 h -2.469 z m 2.453,4.5 c 0,1.055 0.204,1.829 0.61,2.329 0.414,0.5 0.926,0.75 1.531,0.75 0.57,0 1.047,-0.227 1.422,-0.688 0.383,-0.457 0.578,-1.211 0.578,-2.266 0,-0.976 -0.199,-1.703 -0.594,-2.171 -0.386,-0.477 -0.871,-0.719 -1.453,-0.719 -0.605,0 -1.105,0.234 -1.5,0.703 -0.398,0.461 -0.594,1.148 -0.594,2.062 z"
             style="fill:#000000;fill-opacity:1;fill-rule:nonzero;stroke:none"
             id="path4024" />
          <path
             d="m 248.039,351.133 c 0.488,-1.043 0.832,-1.844 1.031,-2.406 0.196,-0.555 0.379,-1.188 0.547,-1.907 0.164,-0.726 0.289,-1.422 0.375,-2.078 0.082,-0.656 0.125,-1.32 0.125,-2 0,-1.394 -0.152,-2.711 -0.453,-3.953 -0.293,-1.25 -0.84,-2.766 -1.641,-4.547 h 1.672 c 0.883,1.262 1.571,2.602 2.063,4.016 0.488,1.406 0.734,2.84 0.734,4.297 0,1.218 -0.195,2.531 -0.578,3.937 -0.437,1.57 -1.164,3.117 -2.172,4.641 z"
             style="fill:#000000;fill-opacity:1;fill-rule:nonzero;stroke:none"
             id="path4026" />
          <path
             d="m 117.887,363.555 h 224.887 v 16.891 H 117.887 Z"
             style="fill:#dbdbdb;fill-opacity:1;fill-rule:evenodd;stroke:none"
             id="path4028" />
          <g
             id="g4030">
            <g
               id="g4032">
              <g
                 id="g4034"
                 clip-path="url(#clipPath4038)">
                <g
                   id="g4040">
                  <g
                     id="g4042">
                    <path
                       d="m 117.887,363.555 h 224.887 v 16.891 H 117.887 Z"
                       style="fill:none;stroke:#000000;stroke-width:0.99003;stroke-linecap:butt;stroke-linejoin:miter;stroke-miterlimit:8;stroke-dasharray:none;stroke-opacity:1"
                       id="path4044" />
                  </g>
                </g>
              </g>
            </g>
          </g>
          <path
             d="m 233.855,378.539 h -2.828 l -1.125,-2.922 h -5.14 l -1.063,2.922 h -2.765 l 5.015,-12.891 h 2.75 z m -4.781,-5.094 -1.781,-4.781 -1.734,4.781 z m 6.156,5.094 v -12.891 h 2.469 v 12.891 z"
             style="fill:#000000;fill-opacity:1;fill-rule:nonzero;stroke:none"
             id="path4046" />
          <path
             d="m 167.449,272.172 h 127.266 v 22.863 H 167.449 Z"
             style="fill:#dbdbdb;fill-opacity:1;fill-rule:evenodd;stroke:none"
             id="path4048" />
          <g
             id="g4050">
            <path
               d="m 167.449,272.172 h 127.266 v 22.863 H 167.449 Z"
               style="fill:none;stroke:#000000;stroke-width:0.99003;stroke-linecap:butt;stroke-linejoin:miter;stroke-miterlimit:8;stroke-dasharray:none;stroke-opacity:1"
               id="path4052" />
          </g>
          <path
             d="m 235.086,289.453 h -2.828 l -1.125,-2.922 h -5.141 l -1.062,2.922 h -2.766 l 5.016,-12.891 h 2.75 z m -4.781,-5.094 -1.782,-4.781 -1.734,4.781 z m 6.156,5.094 v -12.891 h 2.469 v 12.891 z"
             style="fill:#000000;fill-opacity:1;fill-rule:nonzero;stroke:none"
             id="path4054" />
          <path
             d="m 227.645,243.297 c 0,-1.379 1.398,-2.52 3.105,-2.52 1.727,0 3.105,1.141 3.105,2.52 0,1.394 -1.378,2.519 -3.105,2.519 -1.707,0 -3.105,-1.125 -3.105,-2.519 z"
             style="fill:#ffffff;fill-opacity:1;fill-rule:evenodd;stroke:none"
             id="path4056" />
          <g
             id="g4058">
            <path
               d="m 227.645,243.297 c 0,-1.379 1.398,-2.52 3.105,-2.52 1.727,0 3.105,1.141 3.105,2.52 0,1.394 -1.378,2.519 -3.105,2.519 -1.707,0 -3.105,-1.125 -3.105,-2.519"
               style="fill:none;stroke:#000000;stroke-width:1.50004;stroke-linecap:butt;stroke-linejoin:miter;stroke-miterlimit:8;stroke-dasharray:none;stroke-opacity:1"
               id="path4060" />
          </g>
          <path
             d="m 224.332,233.875 -5.125,-14.328 h 3.141 l 3.625,10.609 3.515,-10.609 h 3.063 l -5.125,14.328 z"
             style="fill:#000000;fill-opacity:1;fill-rule:nonzero;stroke:none"
             id="path4062" />
          <path
             d="m 237.98,235.355 v -1.609 h 4.141 v 3.797 c -0.406,0.387 -0.992,0.73 -1.75,1.031 -0.762,0.289 -1.539,0.438 -2.328,0.438 -0.992,0 -1.859,-0.207 -2.609,-0.625 -0.743,-0.414 -1.297,-1.008 -1.672,-1.782 -0.367,-0.781 -0.547,-1.628 -0.547,-2.546 0,-0.989 0.207,-1.868 0.625,-2.641 0.414,-0.77 1.023,-1.363 1.828,-1.781 0.602,-0.313 1.363,-0.469 2.281,-0.469 1.176,0 2.098,0.25 2.766,0.75 0.664,0.492 1.094,1.172 1.281,2.047 l -1.906,0.359 c -0.137,-0.469 -0.391,-0.836 -0.766,-1.109 -0.367,-0.27 -0.824,-0.406 -1.375,-0.406 -0.844,0 -1.515,0.265 -2.015,0.796 -0.493,0.532 -0.735,1.325 -0.735,2.375 0,1.137 0.25,1.985 0.75,2.547 0.5,0.563 1.156,0.844 1.969,0.844 0.406,0 0.812,-0.078 1.219,-0.234 0.406,-0.157 0.754,-0.348 1.047,-0.578 v -1.204 z"
             style="fill:#000000;fill-opacity:1;fill-rule:nonzero;stroke:none"
             id="path4064" />
          <g
             id="g4066">
            <path
               d="m 231.066,245.516 v 22.683"
               style="fill:none;stroke:#000000;stroke-width:1.50004;stroke-linecap:butt;stroke-linejoin:miter;stroke-miterlimit:8;stroke-dasharray:none;stroke-opacity:1"
               id="path4068" />
          </g>
          <g
             id="g4070">
            <path
               d="m 215.359,393.168 h 29.164"
               style="fill:none;stroke:#000000;stroke-width:1.50004;stroke-linecap:butt;stroke-linejoin:miter;stroke-miterlimit:8;stroke-dasharray:none;stroke-opacity:1"
               id="path4072" />
          </g>
          <g
             id="g4074">
            <path
               d="m 220.73,397.367 h 20.071"
               style="fill:none;stroke:#000000;stroke-width:1.50004;stroke-linecap:butt;stroke-linejoin:miter;stroke-miterlimit:8;stroke-dasharray:none;stroke-opacity:1"
               id="path4076" />
          </g>
          <g
             id="g4078">
            <g
               id="g4080">
              <g
                 id="g4082"
                 clip-path="url(#clipPath4086)">
                <g
                   id="g4088">
                  <g
                     id="g4090">
                    <path
                       d="m 225.23,402.047 h 10.95"
                       style="fill:none;stroke:#000000;stroke-width:1.50004;stroke-linecap:butt;stroke-linejoin:miter;stroke-miterlimit:8;stroke-dasharray:none;stroke-opacity:1"
                       id="path4092" />
                  </g>
                </g>
              </g>
            </g>
          </g>
          <g
             id="g4094">
            <path
               d="m 230.75,380.445 v 12.75"
               style="fill:none;stroke:#000000;stroke-width:1.50004;stroke-linecap:butt;stroke-linejoin:miter;stroke-miterlimit:8;stroke-dasharray:none;stroke-opacity:1"
               id="path4096" />
          </g>
        </g>
      </g>
      <g
         id="g4098">
        <g
           id="g4100">
          <path
             d="m 358.234,329.504 10.801,-43.109 h 203.047 l 10.77,43.109 z"
             style="fill:#a9d18e;fill-opacity:1;fill-rule:evenodd;stroke:#000000;stroke-width:0.99003;stroke-linecap:butt;stroke-linejoin:miter;stroke-miterlimit:8;stroke-dasharray:none;stroke-opacity:1"
             id="path4102" />
        </g>
        <g
           id="g4104">
          <path
             d="m 471.066,248.504 c 39.633,0 71.735,9.777 71.735,21.777 H 399.305 c 0,-12 32.133,-21.777 71.761,-21.777 z"
             style="fill:#a9d18e;fill-opacity:1;fill-rule:evenodd;stroke:#000000;stroke-width:0.99003;stroke-linecap:butt;stroke-linejoin:round;stroke-miterlimit:10;stroke-dasharray:none;stroke-opacity:1"
             id="path4106" />
        </g>
        <g
           id="g4108">
          <path
             d="m 470.617,252.434 c 35.133,0 63.571,7.98 63.571,17.789 H 407.047 c 0,-9.809 28.469,-17.789 63.57,-17.789 z"
             style="fill:#dbdbdb;fill-opacity:1;fill-rule:evenodd;stroke:#000000;stroke-width:0.99003;stroke-linecap:butt;stroke-linejoin:round;stroke-miterlimit:10;stroke-dasharray:none;stroke-opacity:1"
             id="path4110" />
        </g>
        <g
           id="g4112">
          <path
             d="M 407.074,304.605 H 534.34 v 32.579 h 48.75 v 26.941 H 358.293 v -26.941 h 48.781 z"
             style="fill:#ffff66;fill-opacity:1;fill-rule:evenodd;stroke:#000000;stroke-width:0.99003;stroke-linecap:butt;stroke-linejoin:miter;stroke-miterlimit:8;stroke-dasharray:none;stroke-opacity:1"
             id="path4114" />
        </g>
        <path
           d="M 407.074,292.695 H 534.34 v 18.867 H 407.074 Z"
           style="fill:#9dc3e6;fill-opacity:1;fill-rule:evenodd;stroke:none"
           id="path4116" />
        <g
           id="g4118">
          <path
             d="M 407.074,292.695 H 534.34 v 18.867 H 407.074 Z"
             style="fill:none;stroke:#000000;stroke-width:0.99003;stroke-linecap:butt;stroke-linejoin:miter;stroke-miterlimit:8;stroke-dasharray:none;stroke-opacity:1"
             id="path4120" />
        </g>
        <path
           d="m 358.234,361.727 h 224.855 v 16.23 H 358.234 Z"
           style="fill:#dbdbdb;fill-opacity:1;fill-rule:evenodd;stroke:none"
           id="path4122" />
        <g
           id="g4124">
          <path
             d="m 358.234,361.727 h 224.855 v 16.23 H 358.234 Z"
             style="fill:none;stroke:#000000;stroke-width:0.99003;stroke-linecap:butt;stroke-linejoin:miter;stroke-miterlimit:8;stroke-dasharray:none;stroke-opacity:1"
             id="path4126" />
        </g>
        <path
           d="M 407.074,270.074 H 534.34 v 22.828 H 407.074 Z"
           style="fill:#dbdbdb;fill-opacity:1;fill-rule:evenodd;stroke:none"
           id="path4128" />
        <g
           id="g4130">
          <path
             d="M 407.074,270.074 H 534.34 v 22.828 H 407.074 Z"
             style="fill:none;stroke:#000000;stroke-width:0.99003;stroke-linecap:butt;stroke-linejoin:miter;stroke-miterlimit:8;stroke-dasharray:none;stroke-opacity:1"
             id="path4132" />
        </g>
        <path
           d="m 467.918,240.82 c 0,-1.379 1.379,-2.519 3.09,-2.519 1.738,0 3.121,1.14 3.121,2.519 0,1.383 -1.383,2.524 -3.121,2.524 -1.711,0 -3.09,-1.141 -3.09,-2.524 z"
           style="fill:#ffffff;fill-opacity:1;fill-rule:evenodd;stroke:none"
           id="path4134" />
        <g
           id="g4136">
          <path
             d="m 467.918,240.82 c 0,-1.379 1.379,-2.519 3.09,-2.519 1.738,0 3.121,1.14 3.121,2.519 0,1.383 -1.383,2.524 -3.121,2.524 -1.711,0 -3.09,-1.141 -3.09,-2.524"
             style="fill:none;stroke:#000000;stroke-width:1.50004;stroke-linecap:butt;stroke-linejoin:miter;stroke-miterlimit:8;stroke-dasharray:none;stroke-opacity:1"
             id="path4138" />
        </g>
        <path
           d="m 466.277,230.66 -5.125,-14.328 h 3.141 l 3.625,10.609 3.516,-10.609 h 3.062 l -5.125,14.328 z"
           style="fill:#000000;fill-opacity:1;fill-rule:nonzero;stroke:none"
           id="path4140" />
        <path
           d="m 478.395,232.141 v -1.61 h 4.14 v 3.797 c -0.406,0.387 -0.992,0.731 -1.75,1.031 -0.762,0.289 -1.539,0.438 -2.328,0.438 -0.992,0 -1.859,-0.207 -2.609,-0.625 -0.743,-0.414 -1.297,-1.008 -1.672,-1.781 -0.367,-0.782 -0.547,-1.629 -0.547,-2.547 0,-0.989 0.207,-1.867 0.625,-2.641 0.414,-0.769 1.023,-1.363 1.828,-1.781 0.602,-0.313 1.363,-0.469 2.281,-0.469 1.176,0 2.098,0.25 2.766,0.75 0.664,0.492 1.094,1.172 1.281,2.047 l -1.906,0.359 c -0.137,-0.468 -0.391,-0.836 -0.766,-1.109 -0.367,-0.27 -0.824,-0.406 -1.375,-0.406 -0.843,0 -1.515,0.265 -2.015,0.797 -0.493,0.531 -0.735,1.324 -0.735,2.375 0,1.136 0.25,1.984 0.75,2.546 0.5,0.563 1.157,0.844 1.969,0.844 0.406,0 0.813,-0.078 1.219,-0.234 0.406,-0.156 0.754,-0.348 1.047,-0.578 v -1.203 z"
           style="fill:#000000;fill-opacity:1;fill-rule:nonzero;stroke:none"
           id="path4142" />
        <g
           id="g4144">
          <path
             d="m 471.336,243.043 v 22.68"
             style="fill:none;stroke:#000000;stroke-width:1.50004;stroke-linecap:butt;stroke-linejoin:miter;stroke-miterlimit:8;stroke-dasharray:none;stroke-opacity:1"
             id="path4146" />
        </g>
        <g
           id="g4148">
          <path
             d="m 455.617,390.676 h 29.16"
             style="fill:none;stroke:#000000;stroke-width:1.50004;stroke-linecap:butt;stroke-linejoin:miter;stroke-miterlimit:8;stroke-dasharray:none;stroke-opacity:1"
             id="path4150" />
        </g>
        <g
           id="g4152">
          <path
             d="m 460.988,394.848 h 20.071"
             style="fill:none;stroke:#000000;stroke-width:1.50004;stroke-linecap:butt;stroke-linejoin:miter;stroke-miterlimit:8;stroke-dasharray:none;stroke-opacity:1"
             id="path4154" />
        </g>
        <g
           id="g4156">
          <path
             d="m 465.488,399.559 h 10.95"
             style="fill:none;stroke:#000000;stroke-width:1.50004;stroke-linecap:butt;stroke-linejoin:miter;stroke-miterlimit:8;stroke-dasharray:none;stroke-opacity:1"
             id="path4158" />
        </g>
        <g
           id="g4160">
          <path
             d="m 471.039,377.957 v 12.75"
             style="fill:none;stroke:#000000;stroke-width:1.50004;stroke-linecap:butt;stroke-linejoin:miter;stroke-miterlimit:8;stroke-dasharray:none;stroke-opacity:1"
             id="path4162" />
        </g>
        <g
           id="g4164">
          <path
             d="m 534.219,270.043 h 8.461 v 59.25 h 40.41 v 7.953 h -48.871 z"
             style="fill:#a9d18e;fill-opacity:1;fill-rule:evenodd;stroke:#000000;stroke-width:0.99003;stroke-linecap:butt;stroke-linejoin:round;stroke-miterlimit:10;stroke-dasharray:none;stroke-opacity:1"
             id="path4166" />
        </g>
        <g
           id="g4168">
          <path
             d="m 407.227,270.164 h -8.434 v 59.25 h -40.5 v 7.949 h 48.934 z"
             style="fill:#a9d18e;fill-opacity:1;fill-rule:evenodd;stroke:#000000;stroke-width:0.99003;stroke-linecap:butt;stroke-linejoin:round;stroke-miterlimit:10;stroke-dasharray:none;stroke-opacity:1"
             id="path4170" />
        </g>
        <g
           id="g4172">
          <path
             d="m 537.531,291.055 h 25.891 c 0.269,0 0.512,-0.211 0.512,-0.481 v -7.472 h -1.02 v 7.472 l 0.508,-0.512 h -25.891 z m 28.891,-6.961 -3,-6 -3,6 z"
             style="fill:#ff0000;fill-opacity:1;fill-rule:nonzero;stroke:#ff0000;stroke-width:0.030001;stroke-linecap:butt;stroke-linejoin:round;stroke-miterlimit:4;stroke-dasharray:none;stroke-opacity:1"
             id="path4174" />
        </g>
        <path
           d="m 453.957,303.867 2.531,-0.25 c 0.145,0.844 0.453,1.469 0.922,1.875 0.469,0.399 1.098,0.594 1.891,0.594 0.832,0 1.461,-0.176 1.89,-0.531 0.426,-0.352 0.641,-0.77 0.641,-1.25 0,-0.301 -0.094,-0.555 -0.281,-0.766 -0.18,-0.219 -0.485,-0.406 -0.922,-0.562 -0.313,-0.102 -1.012,-0.289 -2.094,-0.563 -1.398,-0.344 -2.375,-0.769 -2.937,-1.281 -0.793,-0.707 -1.188,-1.571 -1.188,-2.594 0,-0.656 0.188,-1.266 0.563,-1.828 0.375,-0.57 0.91,-1.008 1.609,-1.313 0.695,-0.3 1.539,-0.453 2.531,-0.453 1.625,0 2.844,0.356 3.657,1.063 0.82,0.711 1.253,1.656 1.296,2.844 l -2.609,0.109 c -0.117,-0.656 -0.355,-1.129 -0.719,-1.422 -0.367,-0.289 -0.914,-0.437 -1.64,-0.437 -0.762,0 -1.356,0.156 -1.782,0.468 -0.273,0.2 -0.406,0.465 -0.406,0.797 0,0.305 0.125,0.563 0.375,0.781 0.332,0.282 1.129,0.575 2.391,0.875 1.269,0.293 2.207,0.602 2.812,0.922 0.602,0.313 1.078,0.75 1.422,1.313 0.344,0.554 0.516,1.234 0.516,2.047 0,0.742 -0.211,1.433 -0.625,2.078 -0.406,0.637 -0.985,1.117 -1.735,1.437 -0.75,0.313 -1.683,0.469 -2.796,0.469 -1.625,0 -2.875,-0.375 -3.75,-1.125 -0.875,-0.758 -1.399,-1.859 -1.563,-3.297 z"
           style="fill:#000000;fill-opacity:1;fill-rule:nonzero;stroke:none"
           id="path4176" />
        <path
           d="m 466.602,297.461 v -2.297 h 2.468 v 2.297 z m 0,10.594 v -9.328 h 2.468 v 9.328 z"
           style="fill:#000000;fill-opacity:1;fill-rule:nonzero;stroke:none"
           id="path4178" />
        <path
           d="m 471.086,301.695 c 0,-1.312 0.195,-2.414 0.594,-3.312 0.289,-0.656 0.687,-1.242 1.187,-1.766 0.508,-0.519 1.067,-0.906 1.672,-1.156 0.801,-0.344 1.727,-0.516 2.781,-0.516 1.895,0 3.41,0.59 4.547,1.766 1.145,1.18 1.719,2.82 1.719,4.922 0,2.074 -0.57,3.699 -1.703,4.875 -1.125,1.18 -2.637,1.765 -4.531,1.765 -1.918,0 -3.446,-0.582 -4.579,-1.75 -1.125,-1.164 -1.687,-2.773 -1.687,-4.828 z m 2.687,-0.093 c 0,1.46 0.332,2.57 1,3.328 0.676,0.75 1.536,1.125 2.579,1.125 1.031,0 1.878,-0.375 2.546,-1.125 0.664,-0.75 1,-1.868 1,-3.36 0,-1.476 -0.324,-2.578 -0.968,-3.297 -0.649,-0.726 -1.508,-1.093 -2.578,-1.093 -1.075,0 -1.938,0.371 -2.594,1.109 -0.656,0.731 -0.985,1.836 -0.985,3.313 z"
           style="fill:#000000;fill-opacity:1;fill-rule:nonzero;stroke:none"
           id="path4180" />
        <path
           d="m 490.117,308.723 v 1.531 h -5.781 c 0.062,-0.582 0.25,-1.129 0.562,-1.641 0.313,-0.519 0.93,-1.207 1.86,-2.062 0.738,-0.688 1.191,-1.156 1.359,-1.406 0.227,-0.344 0.344,-0.68 0.344,-1.016 0,-0.363 -0.102,-0.645 -0.297,-0.844 -0.199,-0.195 -0.469,-0.297 -0.812,-0.297 -0.344,0 -0.622,0.106 -0.829,0.313 -0.199,0.211 -0.312,0.554 -0.343,1.031 l -1.641,-0.156 c 0.094,-0.906 0.395,-1.555 0.906,-1.953 0.52,-0.395 1.164,-0.594 1.938,-0.594 0.851,0 1.519,0.23 2,0.687 0.488,0.461 0.734,1.028 0.734,1.704 0,0.386 -0.074,0.757 -0.219,1.109 -0.136,0.344 -0.355,0.711 -0.656,1.094 -0.199,0.25 -0.558,0.617 -1.078,1.093 -0.523,0.481 -0.852,0.797 -0.984,0.954 -0.137,0.156 -0.25,0.308 -0.344,0.453 z"
           style="fill:#000000;fill-opacity:1;fill-rule:nonzero;stroke:none"
           id="path4182" />
        <path
           d="m 449.59,339.93 2.531,-0.25 c 0.145,0.843 0.453,1.468 0.922,1.875 0.469,0.398 1.098,0.593 1.891,0.593 0.832,0 1.461,-0.175 1.89,-0.531 0.426,-0.351 0.641,-0.769 0.641,-1.25 0,-0.301 -0.094,-0.555 -0.281,-0.765 -0.18,-0.219 -0.485,-0.407 -0.922,-0.563 -0.313,-0.101 -1.012,-0.289 -2.094,-0.562 -1.398,-0.344 -2.375,-0.77 -2.938,-1.282 -0.792,-0.707 -1.187,-1.57 -1.187,-2.593 0,-0.657 0.187,-1.266 0.562,-1.829 0.375,-0.57 0.911,-1.007 1.61,-1.312 0.695,-0.301 1.539,-0.453 2.531,-0.453 1.625,0 2.844,0.355 3.656,1.062 0.821,0.711 1.254,1.657 1.297,2.844 l -2.609,0.109 c -0.117,-0.656 -0.356,-1.128 -0.719,-1.421 -0.367,-0.29 -0.914,-0.438 -1.641,-0.438 -0.761,0 -1.355,0.156 -1.781,0.469 -0.273,0.199 -0.406,0.465 -0.406,0.797 0,0.304 0.125,0.562 0.375,0.781 0.332,0.281 1.129,0.574 2.391,0.875 1.269,0.293 2.207,0.602 2.812,0.922 0.602,0.312 1.078,0.75 1.422,1.312 0.344,0.555 0.516,1.235 0.516,2.047 0,0.742 -0.211,1.434 -0.625,2.078 -0.407,0.637 -0.985,1.117 -1.735,1.438 -0.75,0.312 -1.683,0.469 -2.797,0.469 -1.625,0 -2.875,-0.375 -3.75,-1.125 -0.875,-0.758 -1.398,-1.86 -1.562,-3.297 z"
           style="fill:#000000;fill-opacity:1;fill-rule:nonzero;stroke:none"
           id="path4184" />
        <path
           d="m 462.234,333.523 v -2.296 h 2.469 v 2.296 z m 0,10.594 v -9.328 h 2.469 v 9.328 z"
           style="fill:#000000;fill-opacity:1;fill-rule:nonzero;stroke:none"
           id="path4186" />
        <path
           d="m 476.332,347.898 h -1.703 c -0.899,-1.343 -1.578,-2.746 -2.047,-4.203 -0.469,-1.468 -0.703,-2.883 -0.703,-4.25 0,-1.687 0.289,-3.285 0.875,-4.797 0.5,-1.312 1.141,-2.523 1.922,-3.64 h 1.687 c -0.812,1.781 -1.371,3.297 -1.672,4.547 -0.293,1.242 -0.437,2.558 -0.437,3.953 0,0.961 0.086,1.945 0.266,2.953 0.175,1 0.421,1.957 0.734,2.875 0.195,0.594 0.555,1.445 1.078,2.562 z"
           style="fill:#000000;fill-opacity:1;fill-rule:nonzero;stroke:none"
           id="path4188" />
        <path
           d="m 478.152,334.789 h 2.313 v 1.359 c 0.289,-0.468 0.691,-0.847 1.203,-1.14 0.508,-0.289 1.078,-0.438 1.703,-0.438 1.082,0 2,0.43 2.75,1.282 0.758,0.843 1.141,2.027 1.141,3.546 0,1.563 -0.383,2.778 -1.141,3.641 -0.762,0.867 -1.683,1.297 -2.766,1.297 -0.523,0 -0.992,-0.106 -1.406,-0.313 -0.418,-0.207 -0.859,-0.562 -1.328,-1.062 v 4.703 h -2.469 z m 2.453,4.5 c 0,1.055 0.204,1.828 0.61,2.328 0.414,0.5 0.926,0.75 1.531,0.75 0.57,0 1.047,-0.226 1.422,-0.687 0.383,-0.457 0.578,-1.211 0.578,-2.266 0,-0.976 -0.199,-1.703 -0.594,-2.172 -0.386,-0.476 -0.871,-0.719 -1.453,-0.719 -0.605,0 -1.105,0.235 -1.5,0.704 -0.398,0.461 -0.594,1.148 -0.594,2.062 z"
           style="fill:#000000;fill-opacity:1;fill-rule:nonzero;stroke:none"
           id="path4190" />
        <path
           d="m 488.539,347.898 c 0.488,-1.043 0.832,-1.843 1.031,-2.406 0.196,-0.554 0.379,-1.187 0.547,-1.906 0.164,-0.727 0.289,-1.422 0.375,-2.078 0.082,-0.656 0.125,-1.32 0.125,-2 0,-1.395 -0.152,-2.711 -0.453,-3.953 -0.293,-1.25 -0.84,-2.766 -1.641,-4.547 h 1.672 c 0.883,1.262 1.571,2.601 2.063,4.015 0.488,1.407 0.734,2.84 0.734,4.297 0,1.219 -0.195,2.532 -0.578,3.938 -0.437,1.57 -1.164,3.117 -2.172,4.64 z"
           style="fill:#000000;fill-opacity:1;fill-rule:nonzero;stroke:none"
           id="path4192" />
        <path
           d="m 473.941,376.43 h -2.828 l -1.125,-2.922 h -5.14 l -1.063,2.922 h -2.765 l 5.015,-12.891 h 2.75 z m -4.781,-5.094 -1.781,-4.781 -1.734,4.781 z"
           style="fill:#000000;fill-opacity:1;fill-rule:nonzero;stroke:none"
           id="path4194" />
        <path
           d="m 475.312,363.539 h 2.469 v 12.891 h -2.469 z"
           style="fill:#000000;fill-opacity:1;fill-rule:nonzero;stroke:none"
           id="path4196" />
        <path
           d="m 474.914,287.242 h -2.828 l -1.125,-2.922 h -5.141 l -1.062,2.922 h -2.766 l 5.016,-12.89 h 2.75 z m -4.781,-5.094 -1.781,-4.781 -1.735,4.781 z"
           style="fill:#000000;fill-opacity:1;fill-rule:nonzero;stroke:none"
           id="path4198" />
        <path
           d="m 476.289,274.352 h 2.469 v 12.891 h -2.469 z"
           style="fill:#000000;fill-opacity:1;fill-rule:nonzero;stroke:none"
           id="path4200" />
        <path
           d="m 558.25,271.074 h -2.828 l -1.125,-2.922 h -5.141 l -1.062,2.922 h -2.766 l 5.016,-12.89 h 2.75 z m -4.781,-5.094 -1.781,-4.781 -1.735,4.781 z"
           style="fill:#ff0000;fill-opacity:1;fill-rule:nonzero;stroke:none"
           id="path4202" />
        <path
           d="m 559.625,258.184 h 2.469 v 12.891 h -2.469 z"
           style="fill:#ff0000;fill-opacity:1;fill-rule:nonzero;stroke:none"
           id="path4204" />
        <path
           d="m 568.738,274.508 v 1.531 h -5.781 c 0.063,-0.582 0.25,-1.129 0.563,-1.641 0.312,-0.519 0.929,-1.207 1.859,-2.062 0.738,-0.688 1.191,-1.156 1.359,-1.406 0.227,-0.344 0.344,-0.68 0.344,-1.016 0,-0.363 -0.102,-0.644 -0.297,-0.844 -0.199,-0.195 -0.469,-0.297 -0.812,-0.297 -0.344,0 -0.621,0.106 -0.828,0.313 -0.2,0.211 -0.313,0.555 -0.344,1.031 l -1.641,-0.156 c 0.094,-0.906 0.395,-1.555 0.906,-1.953 0.52,-0.395 1.164,-0.594 1.938,-0.594 0.851,0 1.519,0.231 2,0.688 0.488,0.46 0.734,1.027 0.734,1.703 0,0.386 -0.074,0.757 -0.218,1.109 -0.137,0.344 -0.356,0.711 -0.657,1.094 -0.199,0.25 -0.558,0.617 -1.078,1.094 -0.523,0.48 -0.851,0.796 -0.984,0.953 -0.137,0.156 -0.25,0.308 -0.344,0.453 z"
           style="fill:#ff0000;fill-opacity:1;fill-rule:nonzero;stroke:none"
           id="path4206" />
        <path
           d="m 568.801,264.715 c 0,-1.313 0.195,-2.414 0.594,-3.313 0.289,-0.656 0.687,-1.242 1.187,-1.765 0.508,-0.52 1.066,-0.907 1.672,-1.157 0.801,-0.343 1.726,-0.515 2.781,-0.515 1.895,0 3.41,0.59 4.547,1.765 1.145,1.18 1.719,2.821 1.719,4.922 0,2.075 -0.571,3.7 -1.703,4.875 -1.125,1.18 -2.637,1.766 -4.532,1.766 -1.918,0 -3.445,-0.582 -4.578,-1.75 -1.125,-1.164 -1.687,-2.773 -1.687,-4.828 z m 2.687,-0.094 c 0,1.461 0.332,2.57 1,3.328 0.676,0.75 1.535,1.125 2.578,1.125 1.032,0 1.879,-0.375 2.547,-1.125 0.664,-0.75 1,-1.867 1,-3.359 0,-1.477 -0.324,-2.578 -0.968,-3.297 -0.649,-0.727 -1.508,-1.094 -2.579,-1.094 -1.074,0 -1.937,0.371 -2.593,1.11 -0.657,0.73 -0.985,1.836 -0.985,3.312 z"
           style="fill:#ff0000;fill-opacity:1;fill-rule:nonzero;stroke:none"
           id="path4208" />
        <path
           d="m 580.836,273.809 1.594,-0.188 c 0.05,0.406 0.187,0.719 0.406,0.938 0.226,0.211 0.5,0.312 0.812,0.312 0.344,0 0.629,-0.129 0.86,-0.391 0.226,-0.257 0.344,-0.609 0.344,-1.046 0,-0.407 -0.118,-0.727 -0.344,-0.969 -0.219,-0.25 -0.485,-0.375 -0.797,-0.375 -0.219,0 -0.477,0.043 -0.766,0.125 l 0.188,-1.344 c 0.445,0.012 0.785,-0.082 1.015,-0.281 0.239,-0.207 0.36,-0.485 0.36,-0.828 0,-0.282 -0.09,-0.504 -0.266,-0.672 -0.168,-0.176 -0.398,-0.266 -0.687,-0.266 -0.282,0 -0.524,0.102 -0.719,0.297 -0.199,0.188 -0.32,0.469 -0.359,0.844 l -1.516,-0.25 c 0.101,-0.52 0.258,-0.938 0.469,-1.25 0.218,-0.313 0.515,-0.555 0.89,-0.735 0.383,-0.175 0.813,-0.265 1.282,-0.265 0.812,0 1.46,0.258 1.953,0.765 0.394,0.43 0.593,0.907 0.593,1.438 0,0.75 -0.414,1.352 -1.234,1.797 0.5,0.117 0.895,0.355 1.188,0.719 0.289,0.367 0.437,0.808 0.437,1.328 0,0.75 -0.277,1.39 -0.828,1.922 -0.555,0.531 -1.234,0.796 -2.047,0.796 -0.781,0 -1.43,-0.222 -1.937,-0.671 -0.512,-0.446 -0.809,-1.032 -0.891,-1.75 z"
           style="fill:#ff0000;fill-opacity:1;fill-rule:nonzero;stroke:none"
           id="path4210" />
      </g>
    </g>
  </g>
</svg>
